<svg width="6204" height="1049" viewBox="0 0 6204 1049" fill="none" xmlns="http://www.w3.org/2000/svg">
<rect x="41.4199" y="41.418" width="993.958" height="952.543" rx="204.92" fill="black"/>
<path fill-rule="evenodd" clip-rule="evenodd" d="M432.291 706.236C469.1 706.236 502.048 683.403 514.973 648.937L606.658 404.444C628.306 346.714 585.631 285.133 523.976 285.133C487.166 285.133 454.218 307.966 441.293 342.432L349.608 586.925C327.96 644.655 370.636 706.236 432.291 706.236Z" fill="white"/>
<ellipse cx="87.7298" cy="81.1501" rx="87.7298" ry="81.1501" transform="matrix(-1 0 0 1 767.637 537.363)" fill="white"/>
<mask id="path-4-outside-1_315_2031" maskUnits="userSpaceOnUse" x="1360" y="226" width="4463" height="519" fill="black">
<rect fill="white" x="1360" y="226" width="4463" height="519"/>
<path d="M1632.08 620.737H1485.75L1454.06 728H1374.01L1525.78 261.807H1593.98L1743.19 728H1663.46L1632.08 620.737ZM1505.29 554.778H1613.19L1559.72 370.35L1505.29 554.778ZM2040.96 375.153C2053.34 375.153 2065.29 376.007 2076.82 377.715C2088.56 379.422 2097.74 381.45 2104.36 383.798L2093.47 459.362C2081.73 456.801 2070.1 454.88 2058.57 453.599C2047.26 452.318 2035.94 451.678 2024.63 451.678C2011.82 451.678 2000.3 452.959 1990.05 455.52C1979.8 458.082 1970.73 462.031 1962.83 467.367C1954.3 472.49 1947.04 479.001 1941.06 486.899C1935.09 494.797 1930.07 503.869 1926.01 514.115V728H1849.49V381.557H1921.21L1924.41 429.585L1924.73 437.59C1938.82 418.165 1955.68 402.903 1975.32 391.803C1995.17 380.703 2017.05 375.153 2040.96 375.153ZM2346.1 672.928C2355.71 672.928 2364.88 671.54 2373.64 668.765C2382.6 665.777 2390.5 661.614 2397.33 656.278C2403.95 650.941 2409.18 644.644 2413.02 637.387C2417.07 630.129 2419.1 622.125 2419.1 613.373H2491.14C2491.36 630.236 2487.52 646.139 2479.62 661.081C2471.93 675.809 2461.47 688.51 2448.24 699.183C2434.79 710.283 2419.32 719.035 2401.81 725.438C2384.52 731.629 2366.27 734.724 2347.06 734.724C2320.38 734.724 2297 730.135 2276.94 720.956C2257.09 711.564 2240.54 698.97 2227.31 683.174C2213.86 667.378 2203.72 649.02 2196.89 628.101C2190.06 606.969 2186.65 584.449 2186.65 560.542V549.335C2186.65 525.641 2189.95 503.228 2196.57 482.096C2203.4 460.963 2213.54 442.499 2226.99 426.703C2240.44 410.907 2257.09 398.42 2276.94 389.241C2297 379.849 2320.27 375.153 2346.74 375.153C2367.66 375.153 2386.98 378.355 2404.69 384.759C2422.62 391.162 2437.99 400.128 2450.8 411.654C2463.61 423.181 2473.53 436.949 2480.58 452.959C2487.84 468.968 2491.36 486.578 2491.14 505.79H2419.1C2419.1 496.398 2417.29 487.539 2413.66 479.214C2410.24 470.889 2405.33 463.632 2398.93 457.441C2392.31 451.251 2384.42 446.341 2375.24 442.713C2366.27 439.084 2356.56 437.269 2346.1 437.269C2330.09 437.269 2316.75 440.578 2306.08 447.195C2295.62 453.599 2287.29 462.031 2281.1 472.49C2274.48 482.95 2269.79 494.903 2267.01 508.351C2264.45 521.799 2263.17 535.46 2263.17 549.335V560.542C2263.17 574.63 2264.45 588.505 2267.01 602.166C2269.79 615.614 2274.38 627.461 2280.78 637.707C2286.97 648.38 2295.4 656.918 2306.08 663.322C2316.75 669.726 2330.09 672.928 2346.1 672.928ZM2665.65 430.866C2670.13 424.035 2675.15 417.738 2680.7 411.975C2686.25 406.211 2692.12 401.195 2698.31 396.926C2707.91 389.882 2718.48 384.545 2730 380.916C2741.74 377.074 2754.13 375.153 2767.15 375.153C2785.29 375.153 2801.83 377.821 2816.78 383.158C2831.93 388.494 2844.85 396.819 2855.52 408.132C2866.19 419.446 2874.41 433.961 2880.17 451.678C2886.15 469.182 2889.14 490.207 2889.14 514.755V728H2812.61V514.115C2812.61 501.307 2811.01 490.1 2807.81 480.495C2804.82 470.889 2800.34 463.098 2794.36 457.121C2788.17 450.717 2780.59 446.021 2771.63 443.033C2762.88 439.831 2752.74 438.23 2741.21 438.23C2732.25 438.23 2723.71 439.297 2715.6 441.432C2707.7 443.567 2700.44 446.662 2693.82 450.717C2688.27 453.919 2683.04 457.762 2678.13 462.244C2673.44 466.727 2669.28 471.743 2665.65 477.293V728H2589.12V236.192H2665.65V430.866ZM3144.65 734.404C3119.03 734.404 3095.55 730.135 3074.21 721.596C3053.07 713.058 3034.93 701.211 3019.77 686.055C3004.62 671.113 2992.88 653.503 2984.55 633.224C2976.44 612.732 2972.39 590.639 2972.39 566.946V553.818C2972.39 526.709 2976.66 502.161 2985.19 480.175C2993.73 458.188 3005.47 439.404 3020.41 423.822C3035.36 408.239 3052.65 396.285 3072.29 387.961C3092.14 379.422 3113.27 375.153 3135.68 375.153C3160.66 375.153 3182.75 379.422 3201.96 387.961C3221.17 396.285 3237.29 407.919 3250.31 422.861C3263.33 438.017 3273.15 456.054 3279.77 476.973C3286.38 497.892 3289.69 520.732 3289.69 545.493V578.472H3049.55V580.073C3051.9 595.229 3055.53 607.93 3060.44 618.176C3065.35 628.422 3072.07 637.6 3080.61 645.712C3089.15 654.25 3099.18 660.867 3110.71 665.563C3122.45 670.259 3135.26 672.608 3149.13 672.608C3168.13 672.608 3185.85 668.979 3202.28 661.721C3218.72 654.25 3232.27 643.684 3242.95 630.023L3283.93 669.726C3272.4 686.376 3254.69 701.318 3230.78 714.552C3207.08 727.787 3178.37 734.404 3144.65 734.404ZM3135.36 437.269C3124.48 437.269 3114.34 439.297 3104.94 443.353C3095.77 447.195 3087.55 452.745 3080.29 460.003C3073.03 467.474 3066.95 476.439 3062.04 486.899C3057.13 497.358 3053.5 509.205 3051.15 522.439H3214.13V517.316C3214.13 507.284 3212.31 497.358 3208.69 487.539C3205.06 477.506 3199.93 468.755 3193.32 461.284C3186.91 454.026 3178.8 448.263 3168.98 443.993C3159.38 439.511 3148.17 437.269 3135.36 437.269ZM3603.16 634.185C3603.16 628.208 3601.77 622.872 3598.99 618.176C3596.43 613.48 3592.06 608.997 3585.87 604.728C3579.25 600.885 3570.6 597.257 3559.93 593.841C3549.26 590.426 3535.92 587.224 3519.91 584.236C3499.84 580.18 3481.49 575.164 3464.84 569.187C3448.4 563.21 3434.2 555.952 3422.25 547.414C3410.51 539.303 3401.33 529.697 3394.71 518.597C3388.1 507.497 3384.79 494.583 3384.79 479.854C3384.79 465.766 3388.1 452.425 3394.71 439.831C3401.55 427.023 3411.26 415.817 3423.85 406.211C3436.23 396.606 3451.17 389.028 3468.68 383.478C3486.39 377.928 3506.03 375.153 3527.59 375.153C3550.65 375.153 3571.35 378.035 3589.71 383.798C3608.07 389.348 3623.65 397.033 3636.46 406.852C3649.05 416.671 3658.76 428.304 3665.59 441.752C3672.42 455.2 3675.84 469.715 3675.84 485.298H3599.31C3599.31 478.894 3597.93 472.81 3595.15 467.047C3592.59 461.07 3588.75 455.734 3583.63 451.038C3577.65 445.488 3569.96 441.112 3560.57 437.91C3551.18 434.495 3540.19 432.787 3527.59 432.787C3516.07 432.787 3505.93 434.068 3497.17 436.629C3488.64 438.977 3481.59 442.286 3476.04 446.555C3470.49 450.397 3466.33 454.987 3463.55 460.323C3460.78 465.446 3459.39 470.889 3459.39 476.653C3459.39 482.629 3460.57 488.073 3462.91 492.982C3465.26 497.678 3469.42 501.841 3475.4 505.469C3480.95 509.312 3488.64 512.834 3498.46 516.036C3508.49 519.238 3521.08 522.119 3536.24 524.681C3557.37 528.523 3576.69 533.219 3594.19 538.769C3611.69 544.319 3626.64 551.15 3639.02 559.261C3651.4 567.799 3661 577.832 3667.83 589.359C3674.67 600.885 3678.08 614.547 3678.08 630.343C3678.08 645.712 3674.45 659.8 3667.19 672.608C3660.15 685.415 3650.12 696.408 3637.1 705.587C3623.86 714.766 3608.07 721.916 3589.71 727.039C3571.35 732.162 3550.97 734.724 3528.55 734.724C3503.58 734.724 3481.38 731.415 3461.95 724.798C3442.74 718.181 3426.63 709.429 3413.61 698.543C3400.37 687.87 3390.34 675.596 3383.51 661.721C3376.68 647.846 3373.26 633.758 3373.26 619.456H3447.55C3448.19 630.129 3450.96 639.201 3455.87 646.672C3460.99 653.93 3467.4 659.8 3475.08 664.283C3482.55 668.979 3491.09 672.394 3500.7 674.529C3510.3 676.45 3520.01 677.41 3529.83 677.41C3543.07 677.41 3554.59 676.023 3564.41 673.248C3574.45 670.473 3582.45 666.737 3588.43 662.041C3593.34 658.199 3596.97 654.037 3599.31 649.554C3601.88 644.858 3603.16 639.735 3603.16 634.185ZM3924.31 297.027V381.557H4054.62V438.87H3924.31V604.408C3924.31 617.215 3925.8 627.995 3928.79 636.746C3931.99 645.285 3936.37 652.009 3941.92 656.918C3947.47 662.041 3954.08 665.67 3961.77 667.805C3969.45 669.939 3977.88 671.007 3987.06 671.007C3993.68 671.007 4000.51 670.686 4007.55 670.046C4014.6 669.406 4021.43 668.552 4028.05 667.485C4034.45 666.631 4040.43 665.67 4045.98 664.603C4051.74 663.322 4056.54 662.255 4060.38 661.401L4068.71 714.232C4063.16 717.647 4056.44 720.636 4048.54 723.197C4040.85 725.545 4032.53 727.573 4023.56 729.281C4014.6 730.988 4005.21 732.269 3995.39 733.123C3985.78 734.19 3976.18 734.724 3966.57 734.724C3949.07 734.724 3932.95 732.376 3918.22 727.68C3903.71 722.77 3891.22 715.192 3880.76 704.946C3870.3 694.914 3862.08 682 3856.11 666.204C3850.34 650.408 3847.46 631.41 3847.46 609.21V438.87H3763.57V381.557H3847.46V297.027H3924.31ZM4403.95 375.153C4416.33 375.153 4428.28 376.007 4439.81 377.715C4451.55 379.422 4460.73 381.45 4467.34 383.798L4456.46 459.362C4444.72 456.801 4433.08 454.88 4421.56 453.599C4410.24 452.318 4398.93 451.678 4387.62 451.678C4374.81 451.678 4363.28 452.959 4353.04 455.52C4342.79 458.082 4333.72 462.031 4325.82 467.367C4317.28 472.49 4310.02 479.001 4304.05 486.899C4298.07 494.797 4293.05 503.869 4289 514.115V728H4212.47V381.557H4284.2L4287.4 429.585L4287.72 437.59C4301.81 418.165 4318.67 402.903 4338.31 391.803C4358.16 380.703 4380.04 375.153 4403.95 375.153ZM4779.53 728C4777.18 723.731 4775.26 718.608 4773.76 712.631C4772.48 706.441 4771.31 700.037 4770.24 693.42C4764.9 698.97 4758.82 704.306 4751.99 709.429C4745.37 714.339 4737.9 718.608 4729.58 722.237C4721.25 726.079 4712.29 729.067 4702.68 731.202C4693.08 733.336 4682.72 734.404 4671.62 734.404C4653.69 734.404 4637.26 731.842 4622.31 726.719C4607.59 721.383 4594.99 714.125 4584.53 704.946C4573.86 695.981 4565.53 685.202 4559.56 672.608C4553.79 659.8 4550.91 646.032 4550.91 631.303C4550.91 612.305 4554.65 595.549 4562.12 581.034C4569.8 566.305 4580.9 554.138 4595.42 544.532C4608.87 535.567 4625.41 528.736 4645.05 524.04C4664.9 519.344 4687.31 516.996 4712.29 516.996H4768V493.623C4768 484.657 4766.4 476.546 4763.2 469.288C4760.21 462.031 4755.83 455.734 4750.07 450.397C4743.88 445.061 4736.3 441.005 4727.34 438.23C4718.58 435.242 4708.44 433.747 4696.92 433.747C4686.46 433.747 4677.28 435.028 4669.38 437.59C4661.7 440.151 4655.29 443.673 4650.17 448.156C4645.05 452.212 4641.21 457.228 4638.64 463.205C4636.3 468.968 4635.12 475.158 4635.12 481.776H4558.28C4558.49 467.901 4561.8 454.56 4568.2 441.752C4574.61 428.945 4584 417.631 4596.38 407.812C4608.33 397.78 4623.06 389.882 4640.57 384.118C4658.28 378.141 4678.45 375.153 4701.08 375.153C4721.36 375.153 4740.25 377.715 4757.75 382.838C4775.47 387.747 4790.73 395.111 4803.54 404.931C4816.35 414.75 4826.38 427.237 4833.64 442.393C4840.9 457.335 4844.52 474.625 4844.52 494.263V648.273C4844.52 663.856 4845.59 677.944 4847.73 690.538C4850.07 702.919 4853.38 713.592 4857.65 722.557V728H4779.53ZM4686.35 672.928C4696.38 672.928 4705.67 671.647 4714.21 669.085C4722.96 666.524 4730.86 663.215 4737.9 659.16C4744.95 655.104 4751.03 650.515 4756.15 645.392C4761.28 640.269 4765.22 634.932 4768 629.382V565.345H4718.69C4702.04 565.345 4687.63 566.946 4675.47 570.147C4663.3 573.136 4653.59 577.512 4646.33 583.275C4639.92 588.185 4635.12 594.055 4631.92 600.885C4628.93 607.716 4627.44 615.401 4627.44 623.939C4627.44 630.983 4628.72 637.6 4631.28 643.791C4633.84 649.767 4637.58 654.89 4642.49 659.16C4647.4 663.429 4653.48 666.844 4660.74 669.406C4667.99 671.754 4676.53 672.928 4686.35 672.928ZM4945.38 689.577C4945.38 677.624 4949.44 667.591 4957.55 659.48C4965.66 651.155 4976.66 646.992 4990.53 646.992C5004.62 646.992 5015.61 651.155 5023.51 659.48C5031.62 667.591 5035.68 677.624 5035.68 689.577C5035.68 701.531 5031.62 711.564 5023.51 719.675C5015.61 727.787 5004.62 731.842 4990.53 731.842C4976.66 731.842 4965.66 727.787 4957.55 719.675C4949.44 711.564 4945.38 701.531 4945.38 689.577ZM5359.07 620.737H5212.74L5181.04 728H5100.99L5252.76 261.807H5320.96L5470.17 728H5390.44L5359.07 620.737ZM5232.27 554.778H5340.18L5286.7 370.35L5232.27 554.778ZM5538.05 261.807H5812.77V325.524H5713.19V664.603H5812.77V728H5538.05V664.603H5635.39V325.524H5538.05V261.807Z"/>
</mask>
<path d="M1632.08 620.737H1485.75L1454.06 728H1374.01L1525.78 261.807H1593.98L1743.19 728H1663.46L1632.08 620.737ZM1505.29 554.778H1613.19L1559.72 370.35L1505.29 554.778ZM2040.96 375.153C2053.34 375.153 2065.29 376.007 2076.82 377.715C2088.56 379.422 2097.74 381.45 2104.36 383.798L2093.47 459.362C2081.73 456.801 2070.1 454.88 2058.57 453.599C2047.26 452.318 2035.94 451.678 2024.63 451.678C2011.82 451.678 2000.3 452.959 1990.05 455.52C1979.8 458.082 1970.73 462.031 1962.83 467.367C1954.3 472.49 1947.04 479.001 1941.06 486.899C1935.09 494.797 1930.07 503.869 1926.01 514.115V728H1849.49V381.557H1921.21L1924.41 429.585L1924.73 437.59C1938.82 418.165 1955.68 402.903 1975.32 391.803C1995.17 380.703 2017.05 375.153 2040.96 375.153ZM2346.1 672.928C2355.71 672.928 2364.88 671.54 2373.64 668.765C2382.6 665.777 2390.5 661.614 2397.33 656.278C2403.95 650.941 2409.18 644.644 2413.02 637.387C2417.07 630.129 2419.1 622.125 2419.1 613.373H2491.14C2491.36 630.236 2487.52 646.139 2479.62 661.081C2471.93 675.809 2461.47 688.51 2448.24 699.183C2434.79 710.283 2419.32 719.035 2401.81 725.438C2384.52 731.629 2366.27 734.724 2347.06 734.724C2320.38 734.724 2297 730.135 2276.94 720.956C2257.09 711.564 2240.54 698.97 2227.31 683.174C2213.86 667.378 2203.72 649.02 2196.89 628.101C2190.06 606.969 2186.65 584.449 2186.65 560.542V549.335C2186.65 525.641 2189.95 503.228 2196.57 482.096C2203.4 460.963 2213.54 442.499 2226.99 426.703C2240.44 410.907 2257.09 398.42 2276.94 389.241C2297 379.849 2320.27 375.153 2346.74 375.153C2367.66 375.153 2386.98 378.355 2404.69 384.759C2422.62 391.162 2437.99 400.128 2450.8 411.654C2463.61 423.181 2473.53 436.949 2480.58 452.959C2487.84 468.968 2491.36 486.578 2491.14 505.79H2419.1C2419.1 496.398 2417.29 487.539 2413.66 479.214C2410.24 470.889 2405.33 463.632 2398.93 457.441C2392.31 451.251 2384.42 446.341 2375.24 442.713C2366.27 439.084 2356.56 437.269 2346.1 437.269C2330.09 437.269 2316.75 440.578 2306.08 447.195C2295.62 453.599 2287.29 462.031 2281.1 472.49C2274.48 482.95 2269.79 494.903 2267.01 508.351C2264.45 521.799 2263.17 535.46 2263.17 549.335V560.542C2263.17 574.63 2264.45 588.505 2267.01 602.166C2269.79 615.614 2274.38 627.461 2280.78 637.707C2286.97 648.38 2295.4 656.918 2306.08 663.322C2316.75 669.726 2330.09 672.928 2346.1 672.928ZM2665.65 430.866C2670.13 424.035 2675.15 417.738 2680.7 411.975C2686.25 406.211 2692.12 401.195 2698.31 396.926C2707.91 389.882 2718.48 384.545 2730 380.916C2741.74 377.074 2754.13 375.153 2767.15 375.153C2785.29 375.153 2801.83 377.821 2816.78 383.158C2831.93 388.494 2844.85 396.819 2855.52 408.132C2866.19 419.446 2874.41 433.961 2880.17 451.678C2886.15 469.182 2889.14 490.207 2889.14 514.755V728H2812.61V514.115C2812.61 501.307 2811.01 490.1 2807.81 480.495C2804.82 470.889 2800.34 463.098 2794.36 457.121C2788.17 450.717 2780.59 446.021 2771.63 443.033C2762.88 439.831 2752.74 438.23 2741.21 438.23C2732.25 438.23 2723.71 439.297 2715.6 441.432C2707.7 443.567 2700.44 446.662 2693.82 450.717C2688.27 453.919 2683.04 457.762 2678.13 462.244C2673.44 466.727 2669.28 471.743 2665.65 477.293V728H2589.12V236.192H2665.65V430.866ZM3144.65 734.404C3119.03 734.404 3095.55 730.135 3074.21 721.596C3053.07 713.058 3034.93 701.211 3019.77 686.055C3004.62 671.113 2992.88 653.503 2984.55 633.224C2976.44 612.732 2972.39 590.639 2972.39 566.946V553.818C2972.39 526.709 2976.66 502.161 2985.19 480.175C2993.73 458.188 3005.47 439.404 3020.41 423.822C3035.36 408.239 3052.65 396.285 3072.29 387.961C3092.14 379.422 3113.27 375.153 3135.68 375.153C3160.66 375.153 3182.75 379.422 3201.96 387.961C3221.17 396.285 3237.29 407.919 3250.31 422.861C3263.33 438.017 3273.15 456.054 3279.77 476.973C3286.38 497.892 3289.69 520.732 3289.69 545.493V578.472H3049.55V580.073C3051.9 595.229 3055.53 607.93 3060.44 618.176C3065.35 628.422 3072.07 637.6 3080.61 645.712C3089.15 654.25 3099.18 660.867 3110.71 665.563C3122.45 670.259 3135.26 672.608 3149.13 672.608C3168.13 672.608 3185.85 668.979 3202.28 661.721C3218.72 654.25 3232.27 643.684 3242.95 630.023L3283.93 669.726C3272.4 686.376 3254.69 701.318 3230.78 714.552C3207.08 727.787 3178.37 734.404 3144.65 734.404ZM3135.36 437.269C3124.48 437.269 3114.34 439.297 3104.94 443.353C3095.77 447.195 3087.55 452.745 3080.29 460.003C3073.03 467.474 3066.95 476.439 3062.04 486.899C3057.13 497.358 3053.5 509.205 3051.15 522.439H3214.13V517.316C3214.13 507.284 3212.31 497.358 3208.69 487.539C3205.06 477.506 3199.93 468.755 3193.32 461.284C3186.91 454.026 3178.8 448.263 3168.98 443.993C3159.38 439.511 3148.17 437.269 3135.36 437.269ZM3603.16 634.185C3603.16 628.208 3601.77 622.872 3598.99 618.176C3596.43 613.48 3592.06 608.997 3585.87 604.728C3579.25 600.885 3570.6 597.257 3559.93 593.841C3549.26 590.426 3535.92 587.224 3519.91 584.236C3499.84 580.18 3481.49 575.164 3464.84 569.187C3448.4 563.21 3434.2 555.952 3422.25 547.414C3410.51 539.303 3401.33 529.697 3394.71 518.597C3388.1 507.497 3384.79 494.583 3384.79 479.854C3384.79 465.766 3388.1 452.425 3394.71 439.831C3401.55 427.023 3411.26 415.817 3423.85 406.211C3436.23 396.606 3451.17 389.028 3468.68 383.478C3486.39 377.928 3506.03 375.153 3527.59 375.153C3550.65 375.153 3571.35 378.035 3589.71 383.798C3608.07 389.348 3623.65 397.033 3636.46 406.852C3649.05 416.671 3658.76 428.304 3665.59 441.752C3672.42 455.2 3675.84 469.715 3675.84 485.298H3599.31C3599.31 478.894 3597.93 472.81 3595.15 467.047C3592.59 461.07 3588.75 455.734 3583.63 451.038C3577.65 445.488 3569.96 441.112 3560.57 437.91C3551.18 434.495 3540.19 432.787 3527.59 432.787C3516.07 432.787 3505.93 434.068 3497.17 436.629C3488.64 438.977 3481.59 442.286 3476.04 446.555C3470.49 450.397 3466.33 454.987 3463.55 460.323C3460.78 465.446 3459.39 470.889 3459.39 476.653C3459.39 482.629 3460.57 488.073 3462.91 492.982C3465.26 497.678 3469.42 501.841 3475.4 505.469C3480.95 509.312 3488.64 512.834 3498.46 516.036C3508.49 519.238 3521.08 522.119 3536.24 524.681C3557.37 528.523 3576.69 533.219 3594.19 538.769C3611.69 544.319 3626.64 551.15 3639.02 559.261C3651.4 567.799 3661 577.832 3667.83 589.359C3674.67 600.885 3678.08 614.547 3678.08 630.343C3678.08 645.712 3674.45 659.8 3667.19 672.608C3660.15 685.415 3650.12 696.408 3637.1 705.587C3623.86 714.766 3608.07 721.916 3589.71 727.039C3571.35 732.162 3550.97 734.724 3528.55 734.724C3503.58 734.724 3481.38 731.415 3461.95 724.798C3442.74 718.181 3426.63 709.429 3413.61 698.543C3400.37 687.87 3390.34 675.596 3383.51 661.721C3376.68 647.846 3373.26 633.758 3373.26 619.456H3447.55C3448.19 630.129 3450.96 639.201 3455.87 646.672C3460.99 653.93 3467.4 659.8 3475.08 664.283C3482.55 668.979 3491.09 672.394 3500.7 674.529C3510.3 676.45 3520.01 677.41 3529.83 677.41C3543.07 677.41 3554.59 676.023 3564.41 673.248C3574.45 670.473 3582.45 666.737 3588.43 662.041C3593.34 658.199 3596.97 654.037 3599.31 649.554C3601.88 644.858 3603.16 639.735 3603.16 634.185ZM3924.31 297.027V381.557H4054.62V438.87H3924.31V604.408C3924.31 617.215 3925.8 627.995 3928.79 636.746C3931.99 645.285 3936.37 652.009 3941.92 656.918C3947.47 662.041 3954.08 665.67 3961.77 667.805C3969.45 669.939 3977.88 671.007 3987.06 671.007C3993.68 671.007 4000.51 670.686 4007.55 670.046C4014.6 669.406 4021.43 668.552 4028.05 667.485C4034.45 666.631 4040.43 665.67 4045.98 664.603C4051.74 663.322 4056.54 662.255 4060.38 661.401L4068.71 714.232C4063.16 717.647 4056.44 720.636 4048.54 723.197C4040.85 725.545 4032.53 727.573 4023.56 729.281C4014.6 730.988 4005.21 732.269 3995.39 733.123C3985.78 734.19 3976.18 734.724 3966.57 734.724C3949.07 734.724 3932.95 732.376 3918.22 727.68C3903.71 722.77 3891.22 715.192 3880.76 704.946C3870.3 694.914 3862.08 682 3856.11 666.204C3850.34 650.408 3847.46 631.41 3847.46 609.21V438.87H3763.57V381.557H3847.46V297.027H3924.31ZM4403.95 375.153C4416.33 375.153 4428.28 376.007 4439.81 377.715C4451.55 379.422 4460.73 381.45 4467.34 383.798L4456.46 459.362C4444.72 456.801 4433.08 454.88 4421.56 453.599C4410.24 452.318 4398.93 451.678 4387.62 451.678C4374.81 451.678 4363.28 452.959 4353.04 455.52C4342.79 458.082 4333.72 462.031 4325.82 467.367C4317.28 472.49 4310.02 479.001 4304.05 486.899C4298.07 494.797 4293.05 503.869 4289 514.115V728H4212.47V381.557H4284.2L4287.4 429.585L4287.72 437.59C4301.81 418.165 4318.67 402.903 4338.31 391.803C4358.16 380.703 4380.04 375.153 4403.95 375.153ZM4779.53 728C4777.18 723.731 4775.26 718.608 4773.76 712.631C4772.48 706.441 4771.31 700.037 4770.24 693.42C4764.9 698.97 4758.82 704.306 4751.99 709.429C4745.37 714.339 4737.9 718.608 4729.58 722.237C4721.25 726.079 4712.29 729.067 4702.68 731.202C4693.08 733.336 4682.72 734.404 4671.62 734.404C4653.69 734.404 4637.26 731.842 4622.31 726.719C4607.59 721.383 4594.99 714.125 4584.53 704.946C4573.86 695.981 4565.53 685.202 4559.56 672.608C4553.79 659.8 4550.91 646.032 4550.91 631.303C4550.91 612.305 4554.65 595.549 4562.12 581.034C4569.8 566.305 4580.9 554.138 4595.42 544.532C4608.87 535.567 4625.41 528.736 4645.05 524.04C4664.9 519.344 4687.31 516.996 4712.29 516.996H4768V493.623C4768 484.657 4766.4 476.546 4763.2 469.288C4760.21 462.031 4755.83 455.734 4750.07 450.397C4743.88 445.061 4736.3 441.005 4727.34 438.23C4718.58 435.242 4708.44 433.747 4696.92 433.747C4686.46 433.747 4677.28 435.028 4669.38 437.59C4661.7 440.151 4655.29 443.673 4650.17 448.156C4645.05 452.212 4641.21 457.228 4638.64 463.205C4636.3 468.968 4635.12 475.158 4635.12 481.776H4558.28C4558.49 467.901 4561.8 454.56 4568.2 441.752C4574.61 428.945 4584 417.631 4596.38 407.812C4608.33 397.78 4623.06 389.882 4640.57 384.118C4658.28 378.141 4678.45 375.153 4701.08 375.153C4721.36 375.153 4740.25 377.715 4757.75 382.838C4775.47 387.747 4790.73 395.111 4803.54 404.931C4816.35 414.75 4826.38 427.237 4833.64 442.393C4840.9 457.335 4844.52 474.625 4844.52 494.263V648.273C4844.52 663.856 4845.59 677.944 4847.73 690.538C4850.07 702.919 4853.38 713.592 4857.65 722.557V728H4779.53ZM4686.35 672.928C4696.38 672.928 4705.67 671.647 4714.21 669.085C4722.96 666.524 4730.86 663.215 4737.9 659.16C4744.95 655.104 4751.03 650.515 4756.15 645.392C4761.28 640.269 4765.22 634.932 4768 629.382V565.345H4718.69C4702.04 565.345 4687.63 566.946 4675.47 570.147C4663.3 573.136 4653.59 577.512 4646.33 583.275C4639.92 588.185 4635.12 594.055 4631.92 600.885C4628.93 607.716 4627.44 615.401 4627.44 623.939C4627.44 630.983 4628.72 637.6 4631.28 643.791C4633.84 649.767 4637.58 654.89 4642.49 659.16C4647.4 663.429 4653.48 666.844 4660.74 669.406C4667.99 671.754 4676.53 672.928 4686.35 672.928ZM4945.38 689.577C4945.38 677.624 4949.44 667.591 4957.55 659.48C4965.66 651.155 4976.66 646.992 4990.53 646.992C5004.62 646.992 5015.61 651.155 5023.51 659.48C5031.62 667.591 5035.68 677.624 5035.68 689.577C5035.68 701.531 5031.62 711.564 5023.51 719.675C5015.61 727.787 5004.62 731.842 4990.53 731.842C4976.66 731.842 4965.66 727.787 4957.55 719.675C4949.44 711.564 4945.38 701.531 4945.38 689.577ZM5359.07 620.737H5212.74L5181.04 728H5100.99L5252.76 261.807H5320.96L5470.17 728H5390.44L5359.07 620.737ZM5232.27 554.778H5340.18L5286.7 370.35L5232.27 554.778ZM5538.05 261.807H5812.77V325.524H5713.19V664.603H5812.77V728H5538.05V664.603H5635.39V325.524H5538.05V261.807Z" fill="black"/>
<path d="M1632.08 620.737L1641.68 617.929L1639.57 610.737H1632.08V620.737ZM1485.75 620.737V610.737H1478.28L1476.16 617.903L1485.75 620.737ZM1454.06 728V738H1461.53L1463.65 730.834L1454.06 728ZM1374.01 728L1364.5 724.904L1360.24 738H1374.01V728ZM1525.78 261.807V251.807H1518.52L1516.27 258.711L1525.78 261.807ZM1593.98 261.807L1603.5 258.758L1601.28 251.807H1593.98V261.807ZM1743.19 728V738H1756.89L1752.71 724.952L1743.19 728ZM1663.46 728L1653.86 730.808L1655.97 738H1663.46V728ZM1505.29 554.778L1495.7 551.948L1491.91 564.778H1505.29V554.778ZM1613.19 554.778V564.778H1626.5L1622.79 551.994L1613.19 554.778ZM1559.72 370.35L1569.32 367.566L1559.8 334.734L1550.13 367.52L1559.72 370.35ZM1632.08 620.737V610.737H1485.75V620.737V630.737H1632.08V620.737ZM1485.75 620.737L1476.16 617.903L1444.47 725.166L1454.06 728L1463.65 730.834L1495.34 623.571L1485.75 620.737ZM1454.06 728V718H1374.01V728V738H1454.06V728ZM1374.01 728L1383.52 731.096L1535.29 264.902L1525.78 261.807L1516.27 258.711L1364.5 724.904L1374.01 728ZM1525.78 261.807V271.807H1593.98V261.807V251.807H1525.78V261.807ZM1593.98 261.807L1584.45 264.855L1733.66 731.048L1743.19 728L1752.71 724.952L1603.5 258.758L1593.98 261.807ZM1743.19 728V718H1663.46V728V738H1743.19V728ZM1663.46 728L1673.06 725.192L1641.68 617.929L1632.08 620.737L1622.48 623.545L1653.86 730.808L1663.46 728ZM1505.29 554.778V564.778H1613.19V554.778V544.778H1505.29V554.778ZM1613.19 554.778L1622.79 551.994L1569.32 367.566L1559.72 370.35L1550.11 373.135L1603.59 557.563L1613.19 554.778ZM1559.72 370.35L1550.13 367.52L1495.7 551.948L1505.29 554.778L1514.88 557.609L1569.31 373.181L1559.72 370.35ZM2076.82 377.715L2075.36 387.607L2075.37 387.609L2075.38 387.61L2076.82 377.715ZM2104.36 383.798L2114.26 385.224L2115.42 377.114L2107.7 374.374L2104.36 383.798ZM2093.47 459.362L2091.34 469.133L2101.84 471.423L2103.37 460.788L2093.47 459.362ZM2058.57 453.599L2057.45 463.536L2057.46 463.537L2057.47 463.538L2058.57 453.599ZM1962.83 467.367L1967.98 475.942L1968.21 475.804L1968.43 475.653L1962.83 467.367ZM1926.01 514.115L1916.72 510.434L1916.01 512.207V514.115H1926.01ZM1926.01 728V738H1936.01V728H1926.01ZM1849.49 728H1839.49V738H1849.49V728ZM1849.49 381.557V371.557H1839.49V381.557H1849.49ZM1921.21 381.557L1931.19 380.892L1930.57 371.557H1921.21V381.557ZM1924.41 429.585L1934.4 429.185L1934.4 429.052L1934.39 428.92L1924.41 429.585ZM1924.73 437.59L1914.74 437.989L1915.89 466.81L1932.83 443.461L1924.73 437.59ZM1975.32 391.803L1970.44 383.075L1970.42 383.086L1970.4 383.097L1975.32 391.803ZM2040.96 375.153V385.153C2052.88 385.153 2064.34 385.975 2075.36 387.607L2076.82 377.715L2078.29 367.823C2066.25 366.039 2053.8 365.153 2040.96 365.153V375.153ZM2076.82 377.715L2075.38 387.61C2086.85 389.279 2095.29 391.192 2101.01 393.222L2104.36 383.798L2107.7 374.374C2100.19 371.708 2090.27 369.566 2078.26 367.819L2076.82 377.715ZM2104.36 383.798L2094.46 382.372L2083.57 457.936L2093.47 459.362L2103.37 460.788L2114.26 385.224L2104.36 383.798ZM2093.47 459.362L2095.6 449.592C2083.54 446.959 2071.56 444.981 2059.68 443.66L2058.57 453.599L2057.47 463.538C2068.64 464.779 2079.93 466.642 2091.34 469.133L2093.47 459.362ZM2058.57 453.599L2059.7 443.663C2048.01 442.34 2036.32 441.678 2024.63 441.678V451.678V461.678C2035.57 461.678 2046.5 462.297 2057.45 463.536L2058.57 453.599ZM2024.63 451.678V441.678C2011.17 441.678 1998.81 443.022 1987.63 445.819L1990.05 455.52L1992.48 465.222C2001.78 462.895 2012.47 461.678 2024.63 461.678V451.678ZM1990.05 455.52L1987.63 445.819C1976.37 448.633 1966.2 453.025 1957.24 459.081L1962.83 467.367L1968.43 475.653C1975.27 471.037 1983.24 467.531 1992.48 465.222L1990.05 455.52ZM1962.83 467.367L1957.69 458.792C1948.06 464.57 1939.84 471.941 1933.09 480.864L1941.06 486.899L1949.04 492.933C1954.24 486.061 1960.53 480.411 1967.98 475.942L1962.83 467.367ZM1941.06 486.899L1933.09 480.864C1926.51 489.559 1921.07 499.44 1916.72 510.434L1926.01 514.115L1935.31 517.795C1939.07 508.297 1943.66 500.034 1949.04 492.933L1941.06 486.899ZM1926.01 514.115H1916.01V728H1926.01H1936.01V514.115H1926.01ZM1926.01 728V718H1849.49V728V738H1926.01V728ZM1849.49 728H1859.49V381.557H1849.49H1839.49V728H1849.49ZM1849.49 381.557V391.557H1921.21V381.557V371.557H1849.49V381.557ZM1921.21 381.557L1911.23 382.222L1914.43 430.25L1924.41 429.585L1934.39 428.92L1931.19 380.892L1921.21 381.557ZM1924.41 429.585L1914.42 429.985L1914.74 437.989L1924.73 437.59L1934.72 437.19L1934.4 429.185L1924.41 429.585ZM1924.73 437.59L1932.83 443.461C1946.13 425.122 1961.93 410.858 1980.24 400.508L1975.32 391.803L1970.4 383.097C1949.44 394.948 1931.51 411.208 1916.64 431.719L1924.73 437.59ZM1975.32 391.803L1980.2 400.531C1998.49 390.308 2018.67 385.153 2040.96 385.153V375.153V365.153C2015.44 365.153 1991.86 371.098 1970.44 383.075L1975.32 391.803ZM2373.64 668.765L2376.66 678.298L2376.73 678.275L2376.8 678.252L2373.64 668.765ZM2397.33 656.278L2403.49 664.158L2403.55 664.111L2403.61 664.062L2397.33 656.278ZM2413.02 637.387L2404.29 632.509L2404.23 632.608L2404.18 632.708L2413.02 637.387ZM2419.1 613.373V603.373H2409.1V613.373H2419.1ZM2491.14 613.373L2501.14 613.246L2501.02 603.373H2491.14V613.373ZM2479.62 661.081L2470.78 656.408L2470.76 656.431L2470.75 656.455L2479.62 661.081ZM2448.24 699.183L2441.96 691.399L2441.92 691.435L2441.87 691.471L2448.24 699.183ZM2401.81 725.438L2405.18 734.853L2405.22 734.842L2405.25 734.83L2401.81 725.438ZM2276.94 720.956L2272.66 729.995L2272.72 730.023L2272.78 730.05L2276.94 720.956ZM2227.31 683.174L2234.98 676.752L2234.95 676.721L2234.92 676.691L2227.31 683.174ZM2196.89 628.101L2187.38 631.177L2187.38 631.191L2187.39 631.205L2196.89 628.101ZM2196.57 482.096L2187.06 479.02L2187.04 479.064L2187.03 479.108L2196.57 482.096ZM2276.94 389.241L2281.14 398.318L2281.16 398.308L2281.18 398.298L2276.94 389.241ZM2404.69 384.759L2401.29 394.163L2401.31 394.17L2401.33 394.176L2404.69 384.759ZM2480.58 452.959L2471.43 456.986L2471.45 457.037L2471.47 457.088L2480.58 452.959ZM2491.14 505.79V515.79H2501.03L2501.14 505.901L2491.14 505.79ZM2419.1 505.79H2409.1V515.79H2419.1V505.79ZM2413.66 479.214L2404.41 483.01L2404.45 483.11L2404.49 483.21L2413.66 479.214ZM2398.93 457.441L2405.88 450.251L2405.82 450.195L2405.76 450.139L2398.93 457.441ZM2375.24 442.713L2371.48 451.982L2371.52 451.997L2371.56 452.012L2375.24 442.713ZM2306.08 447.195L2311.3 455.724L2311.32 455.709L2311.35 455.694L2306.08 447.195ZM2281.1 472.49L2289.55 477.837L2289.63 477.711L2289.71 477.583L2281.1 472.49ZM2267.01 508.351L2257.22 506.33L2257.2 506.405L2257.19 506.48L2267.01 508.351ZM2267.01 602.166L2257.18 604.009L2257.2 604.098L2257.22 604.187L2267.01 602.166ZM2280.78 637.707L2289.43 632.69L2289.35 632.547L2289.26 632.407L2280.78 637.707ZM2306.08 663.322L2300.93 671.897L2306.08 663.322ZM2346.1 672.928V682.928C2356.68 682.928 2366.88 681.397 2376.66 678.298L2373.64 668.765L2370.61 659.233C2362.88 661.684 2354.73 662.928 2346.1 662.928V672.928ZM2373.64 668.765L2376.8 678.252C2386.75 674.935 2395.68 670.258 2403.49 664.158L2397.33 656.278L2391.17 648.398C2385.32 652.971 2378.45 656.618 2370.47 659.278L2373.64 668.765ZM2397.33 656.278L2403.61 664.062C2411.24 657.905 2417.36 650.564 2421.86 642.066L2413.02 637.387L2404.18 632.708C2401 638.725 2396.65 643.978 2391.05 648.494L2397.33 656.278ZM2413.02 637.387L2421.75 642.265C2426.68 633.437 2429.1 623.739 2429.1 613.373H2419.1H2409.1C2409.1 620.51 2407.47 626.821 2404.29 632.509L2413.02 637.387ZM2419.1 613.373V623.373H2491.14V613.373V603.373H2419.1V613.373ZM2491.14 613.373L2481.15 613.499C2481.34 628.687 2477.9 642.94 2470.78 656.408L2479.62 661.081L2488.46 665.754C2497.14 649.337 2501.38 631.785 2501.14 613.246L2491.14 613.373ZM2479.62 661.081L2470.75 656.455C2463.72 669.935 2454.15 681.569 2441.96 691.399L2448.24 699.183L2454.52 706.967C2468.8 695.451 2480.15 681.684 2488.48 665.706L2479.62 661.081ZM2448.24 699.183L2441.87 691.471C2429.36 701.801 2414.89 710.006 2398.38 716.047L2401.81 725.438L2405.25 734.83C2423.74 728.063 2440.22 718.765 2454.6 706.895L2448.24 699.183ZM2401.81 725.438L2398.44 716.024C2382.28 721.809 2365.18 724.724 2347.06 724.724V734.724V744.724C2367.37 744.724 2386.76 741.448 2405.18 734.853L2401.81 725.438ZM2347.06 734.724V724.724C2321.52 724.724 2299.61 720.332 2281.1 711.862L2276.94 720.956L2272.78 730.05C2294.39 739.937 2319.24 744.724 2347.06 744.724V734.724ZM2276.94 720.956L2281.22 711.917C2262.58 703.101 2247.22 691.369 2234.98 676.752L2227.31 683.174L2219.64 689.596C2233.87 706.57 2251.59 720.027 2272.66 729.995L2276.94 720.956ZM2227.31 683.174L2234.92 676.691C2222.37 661.947 2212.85 644.754 2206.4 624.997L2196.89 628.101L2187.39 631.205C2194.6 653.287 2205.35 672.809 2219.7 689.656L2227.31 683.174ZM2196.89 628.101L2206.41 625.026C2199.92 604.96 2196.65 583.485 2196.65 560.542H2186.65H2176.65C2176.65 585.414 2180.2 608.978 2187.38 631.177L2196.89 628.101ZM2186.65 560.542H2196.65V549.335H2186.65H2176.65V560.542H2186.65ZM2186.65 549.335H2196.65C2196.65 526.584 2199.82 505.184 2206.11 485.084L2196.57 482.096L2187.03 479.108C2180.09 501.273 2176.65 524.699 2176.65 549.335H2186.65ZM2196.57 482.096L2206.09 485.171C2212.54 465.199 2222.07 447.913 2234.6 433.186L2226.99 426.703L2219.38 420.221C2205.02 437.086 2194.26 456.728 2187.06 479.02L2196.57 482.096ZM2226.99 426.703L2234.6 433.186C2247.06 418.551 2262.52 406.923 2281.14 398.318L2276.94 389.241L2272.74 380.165C2251.65 389.917 2233.81 403.264 2219.38 420.221L2226.99 426.703ZM2276.94 389.241L2281.18 398.298C2299.68 389.636 2321.45 385.153 2346.74 385.153V375.153V365.153C2319.09 365.153 2294.32 370.062 2272.7 380.184L2276.94 389.241ZM2346.74 375.153V385.153C2366.63 385.153 2384.78 388.195 2401.29 394.163L2404.69 384.759L2408.09 375.354C2389.17 368.515 2368.69 365.153 2346.74 365.153V375.153ZM2404.69 384.759L2401.33 394.176C2418.16 400.188 2432.37 408.52 2444.11 419.087L2450.8 411.654L2457.49 404.222C2443.62 391.736 2427.09 382.137 2408.06 375.341L2404.69 384.759ZM2450.8 411.654L2444.11 419.087C2455.85 429.652 2464.94 442.253 2471.43 456.986L2480.58 452.959L2489.73 448.931C2482.13 431.645 2471.37 416.711 2457.49 404.222L2450.8 411.654ZM2480.58 452.959L2471.47 457.088C2478.07 471.646 2481.34 487.791 2481.15 505.679L2491.14 505.79L2501.14 505.901C2501.37 485.366 2497.6 466.29 2489.69 448.83L2480.58 452.959ZM2491.14 505.79V495.79H2419.1V505.79V515.79H2491.14V505.79ZM2419.1 505.79H2429.1C2429.1 495.071 2427.02 484.847 2422.83 475.218L2413.66 479.214L2404.49 483.21C2407.55 490.231 2409.1 497.724 2409.1 505.79H2419.1ZM2413.66 479.214L2422.91 475.419C2418.98 465.829 2413.29 457.412 2405.88 450.251L2398.93 457.441L2391.98 464.631C2397.38 469.851 2401.51 475.95 2404.41 483.01L2413.66 479.214ZM2398.93 457.441L2405.76 450.139C2398.15 443.017 2389.15 437.462 2378.91 433.413L2375.24 442.713L2371.56 452.012C2379.68 455.221 2386.48 459.485 2392.1 464.744L2398.93 457.441ZM2375.24 442.713L2378.99 433.443C2368.74 429.294 2357.74 427.27 2346.1 427.27V437.27V447.27C2355.38 447.27 2363.81 448.874 2371.48 451.982L2375.24 442.713ZM2346.1 437.27V427.27C2328.73 427.27 2313.44 430.862 2300.81 438.696L2306.08 447.195L2311.35 455.694C2320.06 450.294 2331.45 447.27 2346.1 447.27V437.27ZM2306.08 447.195L2300.85 438.667C2289.02 445.914 2279.52 455.52 2272.5 467.397L2281.1 472.49L2289.71 477.583C2295.06 468.541 2302.22 461.284 2311.3 455.724L2306.08 447.195ZM2281.1 472.49L2272.65 467.144C2265.32 478.727 2260.21 491.831 2257.22 506.33L2267.01 508.351L2276.81 510.372C2279.36 497.976 2283.65 487.172 2289.55 477.837L2281.1 472.49ZM2267.01 508.351L2257.19 506.48C2254.51 520.553 2253.17 534.841 2253.17 549.335H2263.17H2273.17C2273.17 536.08 2274.39 523.045 2276.84 510.222L2267.01 508.351ZM2263.17 549.335H2253.17V560.542H2263.17H2273.17V549.335H2263.17ZM2263.17 560.542H2253.17C2253.17 575.24 2254.51 589.732 2257.18 604.009L2267.01 602.166L2276.84 600.323C2274.4 587.278 2273.17 574.02 2273.17 560.542H2263.17ZM2267.01 602.166L2257.22 604.187C2260.2 618.64 2265.19 631.627 2272.3 643.007L2280.78 637.707L2289.26 632.407C2283.57 623.295 2279.37 612.588 2276.81 600.145L2267.01 602.166ZM2280.78 637.707L2272.13 642.724C2279.18 654.874 2288.82 664.631 2300.93 671.897L2306.08 663.322L2311.22 654.747C2301.99 649.206 2294.77 641.886 2289.43 632.69L2280.78 637.707ZM2306.08 663.322L2300.93 671.897C2313.54 679.464 2328.79 682.928 2346.1 682.928V672.928V662.928C2331.39 662.928 2319.95 659.987 2311.22 654.747L2306.08 663.322ZM2665.65 430.866H2655.65V464.33L2674.01 436.352L2665.65 430.866ZM2698.31 396.926L2703.98 405.158L2704.1 405.076L2704.22 404.99L2698.31 396.926ZM2730 380.916L2733.01 390.455L2733.06 390.438L2733.11 390.42L2730 380.916ZM2816.78 383.158L2813.41 392.575L2813.43 392.583L2813.45 392.59L2816.78 383.158ZM2855.52 408.132L2862.79 401.27L2855.52 408.132ZM2880.17 451.678L2870.66 454.771L2870.69 454.841L2870.71 454.909L2880.17 451.678ZM2889.14 728V738H2899.14V728H2889.14ZM2812.61 728H2802.61V738H2812.61V728ZM2807.81 480.495L2798.26 483.466L2798.29 483.562L2798.32 483.657L2807.81 480.495ZM2794.36 457.121L2787.17 464.071L2787.23 464.132L2787.29 464.192L2794.36 457.121ZM2771.63 443.033L2768.19 452.424L2768.33 452.474L2768.47 452.52L2771.63 443.033ZM2715.6 441.432L2713.05 431.761L2713.02 431.77L2712.99 431.778L2715.6 441.432ZM2693.82 450.717L2698.82 459.379L2698.94 459.313L2699.05 459.243L2693.82 450.717ZM2678.13 462.244L2671.39 454.859L2671.31 454.934L2671.23 455.011L2678.13 462.244ZM2665.65 477.293L2657.28 471.82L2655.65 474.314V477.293H2665.65ZM2665.65 728V738H2675.65V728H2665.65ZM2589.12 728H2579.12V738H2589.12V728ZM2589.12 236.192V226.192H2579.12V236.192H2589.12ZM2665.65 236.192H2675.65V226.192H2665.65V236.192ZM2665.65 430.866L2674.01 436.352C2678.16 430.029 2682.79 424.219 2687.9 418.911L2680.7 411.975L2673.49 405.038C2667.5 411.257 2662.1 418.041 2657.29 425.379L2665.65 430.866ZM2680.7 411.975L2687.9 418.911C2693.01 413.599 2698.38 409.024 2703.98 405.158L2698.31 396.926L2692.63 388.694C2685.85 393.366 2679.48 398.824 2673.49 405.038L2680.7 411.975ZM2698.31 396.926L2704.22 404.99C2712.93 398.603 2722.51 393.76 2733.01 390.455L2730 380.916L2727 371.378C2714.45 375.331 2702.89 381.161 2692.39 388.862L2698.31 396.926ZM2730 380.916L2733.11 390.42C2743.8 386.924 2755.12 385.153 2767.15 385.153V375.153V365.153C2753.13 365.153 2739.69 367.224 2726.89 371.412L2730 380.916ZM2767.15 375.153V385.153C2784.31 385.153 2799.69 387.675 2813.41 392.575L2816.78 383.158L2820.14 373.74C2803.97 367.967 2786.27 365.153 2767.15 365.153V375.153ZM2816.78 383.158L2813.45 392.59C2827.16 397.415 2838.7 404.88 2848.24 414.995L2855.52 408.132L2862.79 401.27C2850.99 388.758 2836.7 379.573 2820.1 373.725L2816.78 383.158ZM2855.52 408.132L2848.24 414.995C2857.72 425.041 2865.27 438.186 2870.66 454.771L2880.17 451.678L2889.68 448.585C2883.55 429.736 2874.66 413.851 2862.79 401.27L2855.52 408.132ZM2880.17 451.678L2870.71 454.909C2876.24 471.095 2879.14 490.969 2879.14 514.755H2889.14H2899.14C2899.14 489.445 2896.06 467.268 2889.64 448.447L2880.17 451.678ZM2889.14 514.755H2879.14V728H2889.14H2899.14V514.755H2889.14ZM2889.14 728V718H2812.61V728V738H2889.14V728ZM2812.61 728H2822.61V514.115H2812.61H2802.61V728H2812.61ZM2812.61 514.115H2822.61C2822.61 500.504 2820.92 488.187 2817.3 477.333L2807.81 480.495L2798.32 483.657C2801.11 492.014 2802.61 502.111 2802.61 514.115H2812.61ZM2807.81 480.495L2817.36 477.524C2813.98 466.664 2808.76 457.372 2801.43 450.05L2794.36 457.121L2787.29 464.192C2791.92 468.824 2795.66 475.114 2798.26 483.466L2807.81 480.495ZM2794.36 457.121L2801.55 450.171C2794.17 442.539 2785.19 437.012 2774.79 433.546L2771.63 443.033L2768.47 452.52C2776 455.031 2782.17 458.896 2787.17 464.071L2794.36 457.121ZM2771.63 443.033L2775.06 433.642C2764.99 429.954 2753.64 428.23 2741.21 428.23V438.23V448.23C2751.83 448.23 2760.77 449.708 2768.19 452.424L2771.63 443.033ZM2741.21 438.23V428.23C2731.45 428.23 2722.05 429.394 2713.05 431.761L2715.6 441.432L2718.14 451.103C2725.37 449.201 2733.05 448.23 2741.21 448.23V438.23ZM2715.6 441.432L2712.99 431.778C2704.22 434.148 2696.07 437.61 2688.6 442.191L2693.82 450.717L2699.05 459.243C2704.81 455.713 2711.18 452.985 2718.21 451.086L2715.6 441.432ZM2693.82 450.717L2688.83 442.056C2682.63 445.632 2676.81 449.907 2671.39 454.859L2678.13 462.244L2684.88 469.629C2689.27 465.616 2693.92 462.206 2698.82 459.379L2693.82 450.717ZM2678.13 462.244L2671.23 455.011C2665.97 460.033 2661.32 465.643 2657.28 471.82L2665.65 477.293L2674.02 482.765C2677.24 477.843 2680.91 473.42 2685.04 469.478L2678.13 462.244ZM2665.65 477.293H2655.65V728H2665.65H2675.65V477.293H2665.65ZM2665.65 728V718H2589.12V728V738H2665.65V728ZM2589.12 728H2599.12V236.192H2589.12H2579.12V728H2589.12ZM2589.12 236.192V246.192H2665.65V236.192V226.192H2589.12V236.192ZM2665.65 236.192H2655.65V430.866H2665.65H2675.65V236.192H2665.65ZM3074.21 721.596L3070.46 730.868L3070.48 730.875L3070.49 730.881L3074.21 721.596ZM3019.77 686.055L3026.85 678.984L3026.82 678.959L3026.8 678.934L3019.77 686.055ZM2984.55 633.224L2975.26 636.905L2975.28 636.964L2975.3 637.022L2984.55 633.224ZM2985.19 480.175L2975.87 476.555L2985.19 480.175ZM3020.41 423.822L3013.2 416.9L3020.41 423.822ZM3072.29 387.961L3076.19 397.167L3076.21 397.157L3076.24 397.147L3072.29 387.961ZM3201.96 387.961L3197.9 397.099L3197.94 397.118L3197.99 397.136L3201.96 387.961ZM3250.31 422.861L3257.89 416.344L3257.87 416.318L3257.85 416.291L3250.31 422.861ZM3279.77 476.973L3270.23 479.989L3279.77 476.973ZM3289.69 578.472V588.472H3299.69V578.472H3289.69ZM3049.55 578.472V568.472H3039.55V578.472H3049.55ZM3049.55 580.073H3039.55V580.843L3039.67 581.604L3049.55 580.073ZM3060.44 618.176L3069.46 613.854L3060.44 618.176ZM3080.61 645.712L3087.68 638.641L3087.59 638.55L3087.5 638.462L3080.61 645.712ZM3110.71 665.563L3106.93 674.824L3106.96 674.836L3106.99 674.848L3110.71 665.563ZM3202.28 661.721L3206.32 670.869L3206.37 670.847L3206.42 670.825L3202.28 661.721ZM3242.95 630.023L3249.9 622.84L3241.91 615.1L3235.07 623.866L3242.95 630.023ZM3283.93 669.726L3292.15 675.418L3296.98 668.445L3290.89 662.543L3283.93 669.726ZM3230.78 714.552L3225.94 705.803L3225.92 705.812L3225.9 705.822L3230.78 714.552ZM3104.94 443.353L3108.81 452.577L3108.86 452.556L3108.91 452.534L3104.94 443.353ZM3080.29 460.003L3073.22 452.932L3073.17 452.983L3073.12 453.035L3080.29 460.003ZM3062.04 486.899L3071.09 491.148L3062.04 486.899ZM3051.15 522.439L3041.31 520.693L3039.22 532.439H3051.15V522.439ZM3214.13 522.439V532.439H3224.13V522.439H3214.13ZM3208.69 487.539L3199.28 490.94L3199.29 490.973L3199.31 491.005L3208.69 487.539ZM3193.32 461.284L3185.82 467.9L3185.82 467.907L3185.83 467.914L3193.32 461.284ZM3168.98 443.993L3164.75 453.055L3164.87 453.111L3164.99 453.164L3168.98 443.993ZM3144.65 734.404V724.404C3120.16 724.404 3097.96 720.326 3077.92 712.311L3074.21 721.596L3070.49 730.881C3093.15 739.943 3117.91 744.404 3144.65 744.404V734.404ZM3074.21 721.596L3077.95 712.324C3057.98 704.257 3040.99 693.131 3026.85 678.984L3019.77 686.055L3012.7 693.126C3028.87 709.291 3048.16 721.859 3070.46 730.868L3074.21 721.596ZM3019.77 686.055L3026.8 678.934C3012.63 664.967 3001.63 648.497 2993.8 629.427L2984.55 633.224L2975.3 637.022C2984.12 658.509 2996.61 677.26 3012.75 693.176L3019.77 686.055ZM2984.55 633.224L2993.85 629.544C2986.24 610.309 2982.39 589.475 2982.39 566.946H2972.39H2962.39C2962.39 591.804 2966.65 615.156 2975.26 636.905L2984.55 633.224ZM2972.39 566.946H2982.39V553.818H2972.39H2962.39V566.946H2972.39ZM2972.39 553.818H2982.39C2982.39 527.764 2986.49 504.468 2994.52 483.795L2985.19 480.175L2975.87 476.555C2966.82 499.854 2962.39 525.653 2962.39 553.818H2972.39ZM2985.19 480.175L2994.52 483.795C3002.62 462.922 3013.68 445.29 3027.63 430.743L3020.41 423.822L3013.2 416.9C2997.26 433.519 2984.84 453.454 2975.87 476.555L2985.19 480.175ZM3020.41 423.822L3027.63 430.743C3041.65 416.127 3057.81 404.957 3076.19 397.167L3072.29 387.961L3068.38 378.754C3047.48 387.614 3029.07 400.351 3013.2 416.9L3020.41 423.822ZM3072.29 387.961L3076.24 397.147C3094.79 389.165 3114.58 385.153 3135.68 385.153V375.153V365.153C3111.96 365.153 3089.48 369.679 3068.33 378.774L3072.29 387.961ZM3135.68 375.153V385.153C3159.52 385.153 3180.18 389.225 3197.9 397.099L3201.96 387.961L3206.02 378.822C3185.32 369.619 3161.8 365.153 3135.68 365.153V375.153ZM3201.96 387.961L3197.99 397.136C3215.91 404.903 3230.78 415.675 3242.77 429.431L3250.31 422.861L3257.85 416.291C3243.79 400.163 3226.44 387.668 3205.94 378.785L3201.96 387.961ZM3250.31 422.861L3242.72 429.378C3254.78 443.413 3263.98 460.229 3270.23 479.989L3279.77 476.973L3289.3 473.957C3282.32 451.878 3271.88 432.62 3257.89 416.344L3250.31 422.861ZM3279.77 476.973L3270.23 479.989C3276.5 499.816 3279.69 521.625 3279.69 545.493H3289.69H3299.69C3299.69 519.838 3296.26 495.968 3289.3 473.957L3279.77 476.973ZM3289.69 545.493H3279.69V578.472H3289.69H3299.69V545.493H3289.69ZM3289.69 578.472V568.472H3049.55V578.472V588.472H3289.69V578.472ZM3049.55 578.472H3039.55V580.073H3049.55H3059.55V578.472H3049.55ZM3049.55 580.073L3039.67 581.604C3042.12 597.413 3045.97 611.121 3051.42 622.497L3060.44 618.176L3069.46 613.854C3065.09 604.738 3061.68 593.045 3059.43 578.542L3049.55 580.073ZM3060.44 618.176L3051.42 622.497C3056.88 633.881 3064.33 644.043 3073.72 652.962L3080.61 645.712L3087.5 638.462C3079.81 631.158 3073.82 622.963 3069.46 613.854L3060.44 618.176ZM3080.61 645.712L3073.54 652.783C3083.05 662.293 3094.21 669.641 3106.93 674.824L3110.71 665.563L3114.48 656.302C3104.15 652.093 3095.25 646.207 3087.68 638.641L3080.61 645.712ZM3110.71 665.563L3106.99 674.848C3120.03 680.061 3134.11 682.608 3149.13 682.608V672.608V662.608C3136.4 662.608 3124.87 660.458 3114.42 656.279L3110.71 665.563ZM3149.13 672.608V682.608C3169.44 682.608 3188.54 678.72 3206.32 670.869L3202.28 661.721L3198.24 652.573C3183.15 659.237 3166.82 662.608 3149.13 662.608V672.608ZM3202.28 661.721L3206.42 670.825C3224.26 662.716 3239.12 651.163 3250.83 636.179L3242.95 630.023L3235.07 623.866C3225.43 636.205 3213.18 645.784 3198.14 652.617L3202.28 661.721ZM3242.95 630.023L3235.99 637.205L3276.97 676.908L3283.93 669.726L3290.89 662.543L3249.9 622.84L3242.95 630.023ZM3283.93 669.726L3275.71 664.034C3265.31 679.056 3248.94 693.066 3225.94 705.803L3230.78 714.552L3235.62 723.301C3260.43 709.569 3279.5 693.695 3292.15 675.418L3283.93 669.726ZM3230.78 714.552L3225.9 705.822C3204.02 718.045 3177.08 724.404 3144.65 724.404V734.404V744.404C3179.67 744.404 3210.15 737.528 3235.65 723.283L3230.78 714.552ZM3135.36 437.27V427.27C3123.2 427.27 3111.7 429.542 3100.98 434.172L3104.94 443.353L3108.91 452.534C3116.97 449.053 3125.75 447.27 3135.36 447.27V437.27ZM3104.94 443.353L3101.08 434.129C3090.67 438.489 3081.37 444.784 3073.22 452.932L3080.29 460.003L3087.36 467.074C3093.73 460.706 3100.86 455.902 3108.81 452.577L3104.94 443.353ZM3080.29 460.003L3073.12 453.035C3065.01 461.384 3058.32 471.295 3052.99 482.65L3062.04 486.899L3071.09 491.148C3075.58 481.583 3081.06 473.564 3087.46 466.971L3080.29 460.003ZM3062.04 486.899L3052.99 482.65C3047.65 494.022 3043.78 506.73 3041.31 520.693L3051.15 522.439L3061 524.186C3063.22 511.68 3066.61 500.695 3071.09 491.148L3062.04 486.899ZM3051.15 522.439V532.439H3214.13V522.439V512.439H3051.15V522.439ZM3214.13 522.439H3224.13V517.316H3214.13H3204.13V522.439H3214.13ZM3214.13 517.316H3224.13C3224.13 506.05 3222.09 494.952 3218.07 484.072L3208.69 487.539L3199.31 491.005C3202.54 499.764 3204.13 508.518 3204.13 517.316H3214.13ZM3208.69 487.539L3218.09 484.138C3214.06 473 3208.31 463.134 3200.8 454.653L3193.32 461.284L3185.83 467.914C3191.55 474.376 3196.05 482.013 3199.28 490.94L3208.69 487.539ZM3193.32 461.284L3200.81 454.667C3193.34 446.199 3183.99 439.613 3172.97 434.823L3168.98 443.993L3164.99 453.164C3173.61 456.912 3180.48 461.853 3185.82 467.9L3193.32 461.284ZM3168.98 443.993L3173.21 434.932C3162.03 429.716 3149.33 427.27 3135.36 427.27V437.27V447.27C3147.01 447.27 3156.72 449.306 3164.75 453.055L3168.98 443.993ZM3598.99 618.176L3590.22 622.964L3590.3 623.115L3590.39 623.263L3598.99 618.176ZM3585.87 604.728L3591.54 596.496L3591.22 596.275L3590.89 596.08L3585.87 604.728ZM3519.91 584.236L3517.93 594.037L3518 594.052L3518.07 594.066L3519.91 584.236ZM3464.84 569.187L3461.42 578.585L3461.44 578.592L3461.46 578.599L3464.84 569.187ZM3422.25 547.414L3428.06 539.277L3428 539.231L3427.93 539.187L3422.25 547.414ZM3394.71 439.831L3385.89 435.125L3385.88 435.152L3385.86 435.18L3394.71 439.831ZM3423.85 406.211L3429.92 414.163L3429.95 414.137L3429.98 414.112L3423.85 406.211ZM3468.68 383.478L3465.69 373.935L3465.67 373.94L3465.66 373.946L3468.68 383.478ZM3589.71 383.798L3586.71 393.339L3586.76 393.355L3586.81 393.37L3589.71 383.798ZM3636.46 406.852L3642.6 398.965L3642.57 398.94L3642.54 398.916L3636.46 406.852ZM3675.84 485.298V495.298H3685.84V485.298H3675.84ZM3599.31 485.298H3589.31V495.298H3599.31V485.298ZM3595.15 467.047L3585.96 470.986L3586.05 471.188L3586.14 471.385L3595.15 467.047ZM3583.63 451.038L3576.82 458.366L3576.84 458.387L3576.87 458.409L3583.63 451.038ZM3560.57 437.91L3557.15 447.308L3557.25 447.342L3557.34 447.375L3560.57 437.91ZM3497.17 436.629L3499.83 446.271L3499.91 446.249L3499.98 446.227L3497.17 436.629ZM3476.04 446.555L3481.73 454.777L3481.94 454.634L3482.14 454.481L3476.04 446.555ZM3463.55 460.323L3472.35 465.086L3472.39 465.012L3472.43 464.937L3463.55 460.323ZM3462.91 492.982L3453.89 497.297L3453.93 497.376L3453.97 497.454L3462.91 492.982ZM3475.4 505.469L3481.09 497.248L3480.85 497.077L3480.59 496.922L3475.4 505.469ZM3498.46 516.036L3495.35 525.543L3495.39 525.553L3495.41 525.562L3498.46 516.036ZM3536.24 524.681L3538.03 514.842L3537.97 514.831L3537.9 514.821L3536.24 524.681ZM3639.02 559.261L3644.7 551.029L3644.6 550.961L3644.5 550.896L3639.02 559.261ZM3667.19 672.608L3658.49 667.677L3658.46 667.733L3658.43 667.788L3667.19 672.608ZM3637.1 705.587L3642.8 713.804L3642.83 713.782L3642.86 713.76L3637.1 705.587ZM3589.71 727.039L3587.02 717.407L3589.71 727.039ZM3461.95 724.798L3458.7 734.253L3458.71 734.258L3458.73 734.264L3461.95 724.798ZM3413.61 698.543L3420.02 690.871L3419.95 690.814L3419.88 690.759L3413.61 698.543ZM3383.51 661.721L3374.54 666.138L3383.51 661.721ZM3373.26 619.456V609.456H3363.26V619.456H3373.26ZM3447.55 619.456L3457.53 618.857L3456.96 609.456H3447.55V619.456ZM3455.87 646.672L3447.51 652.164L3447.6 652.303L3447.7 652.439L3455.87 646.672ZM3475.08 664.283L3480.4 655.816L3480.26 655.728L3480.12 655.645L3475.08 664.283ZM3500.7 674.529L3498.53 684.291L3498.63 684.314L3498.74 684.334L3500.7 674.529ZM3564.41 673.248L3561.75 663.61L3561.72 663.617L3561.69 663.625L3564.41 673.248ZM3588.43 662.041L3582.26 654.166L3582.26 654.172L3582.25 654.178L3588.43 662.041ZM3599.31 649.554L3590.54 644.766L3590.5 644.839L3590.46 644.914L3599.31 649.554ZM3603.16 634.185H3613.16C3613.16 626.595 3611.37 619.47 3607.6 613.088L3598.99 618.176L3590.39 623.263C3592.16 626.273 3593.16 629.821 3593.16 634.185H3603.16ZM3598.99 618.176L3607.77 613.387C3604.22 606.874 3598.53 601.315 3591.54 596.496L3585.87 604.728L3580.19 612.96C3585.58 616.679 3588.65 620.085 3590.22 622.964L3598.99 618.176ZM3585.87 604.728L3590.89 596.08C3583.43 591.75 3574.05 587.861 3562.98 584.317L3559.93 593.841L3556.88 603.366C3567.16 606.652 3575.07 610.021 3580.85 613.376L3585.87 604.728ZM3559.93 593.841L3562.98 584.317C3551.77 580.732 3538 577.439 3521.74 574.406L3519.91 584.236L3518.07 594.066C3533.84 597.009 3546.74 600.12 3556.88 603.366L3559.93 593.841ZM3519.91 584.236L3521.89 574.434C3502.23 570.46 3484.34 565.565 3468.21 559.775L3464.84 569.187L3461.46 578.599C3478.63 584.762 3497.46 589.9 3517.93 594.037L3519.91 584.236ZM3464.84 569.187L3468.25 559.789C3452.51 554.065 3439.15 547.199 3428.06 539.277L3422.25 547.414L3416.44 555.551C3429.25 564.705 3444.29 572.355 3461.42 578.585L3464.84 569.187ZM3422.25 547.414L3427.93 539.187C3417.25 531.805 3409.11 523.221 3403.3 513.477L3394.71 518.597L3386.12 523.718C3393.55 536.173 3403.77 546.8 3416.57 555.641L3422.25 547.414ZM3394.71 518.597L3403.3 513.477C3397.73 504.132 3394.79 493.037 3394.79 479.854H3384.79H3374.79C3374.79 496.129 3378.46 510.863 3386.12 523.718L3394.71 518.597ZM3384.79 479.854H3394.79C3394.79 467.403 3397.7 455.656 3403.57 444.482L3394.71 439.831L3385.86 435.18C3378.5 449.194 3374.79 464.129 3374.79 479.854H3384.79ZM3394.71 439.831L3403.54 444.537C3409.63 433.109 3418.36 422.977 3429.92 414.163L3423.85 406.211L3417.79 398.26C3404.16 408.656 3393.46 420.938 3385.89 435.125L3394.71 439.831ZM3423.85 406.211L3429.98 414.112C3441.29 405.342 3455.13 398.264 3471.7 393.01L3468.68 383.478L3465.66 373.946C3447.22 379.792 3431.18 387.87 3417.72 398.31L3423.85 406.211ZM3468.68 383.478L3471.67 393.021C3488.28 387.818 3506.89 385.153 3527.59 385.153V375.153V365.153C3505.18 365.153 3484.51 368.038 3465.69 373.935L3468.68 383.478ZM3527.59 375.153V385.153C3549.82 385.153 3569.5 387.933 3586.71 393.339L3589.71 383.798L3592.7 374.257C3573.21 368.136 3551.47 365.153 3527.59 365.153V375.153ZM3589.71 383.798L3586.81 393.37C3604.23 398.636 3618.68 405.826 3630.37 414.788L3636.46 406.852L3642.54 398.916C3628.62 388.24 3611.9 380.06 3592.6 374.226L3589.71 383.798ZM3636.46 406.852L3630.31 414.738C3641.81 423.709 3650.55 434.218 3656.68 446.281L3665.59 441.752L3674.51 437.223C3666.97 422.39 3656.29 409.633 3642.6 398.965L3636.46 406.852ZM3665.59 441.752L3656.68 446.281C3662.77 458.278 3665.84 471.235 3665.84 485.298H3675.84H3685.84C3685.84 468.195 3682.08 452.122 3674.51 437.223L3665.59 441.752ZM3675.84 485.298V475.298H3599.31V485.298V495.298H3675.84V485.298ZM3599.31 485.298H3609.31C3609.31 477.394 3607.59 469.827 3604.16 462.709L3595.15 467.047L3586.14 471.385C3588.26 475.794 3589.31 480.394 3589.31 485.298H3599.31ZM3595.15 467.047L3604.34 463.108C3601.19 455.739 3596.48 449.254 3590.38 443.666L3583.63 451.038L3576.87 458.409C3581.02 462.214 3584 466.401 3585.96 470.986L3595.15 467.047ZM3583.63 451.038L3590.43 443.71C3583.23 437.02 3574.24 432.004 3563.8 428.445L3560.57 437.91L3557.34 447.375C3565.69 450.22 3572.07 453.955 3576.82 458.366L3583.63 451.038ZM3560.57 437.91L3563.99 428.512C3553.26 424.61 3541.06 422.787 3527.59 422.787V432.787V442.787C3539.31 442.787 3549.1 444.379 3557.15 447.308L3560.57 437.91ZM3527.59 432.787V422.787C3515.35 422.787 3504.23 424.144 3494.37 427.032L3497.17 436.629L3499.98 446.227C3507.62 443.992 3516.78 442.787 3527.59 442.787V432.787ZM3497.17 436.629L3494.52 426.987C3485.05 429.591 3476.75 433.391 3469.95 438.629L3476.04 446.555L3482.14 454.481C3486.43 451.18 3492.22 448.363 3499.83 446.271L3497.17 436.629ZM3476.04 446.555L3470.35 438.333C3463.63 442.987 3458.3 448.761 3454.68 455.71L3463.55 460.323L3472.43 464.937C3474.36 461.213 3477.36 457.808 3481.73 454.777L3476.04 446.555ZM3463.55 460.323L3454.76 455.56C3451.2 462.129 3449.39 469.207 3449.39 476.653H3459.39H3469.39C3469.39 472.571 3470.36 468.763 3472.35 465.086L3463.55 460.323ZM3459.39 476.653H3449.39C3449.39 483.974 3450.84 490.912 3453.89 497.297L3462.91 492.982L3471.94 488.668C3470.29 485.233 3469.39 481.285 3469.39 476.653H3459.39ZM3462.91 492.982L3453.97 497.454C3457.4 504.308 3463.15 509.727 3470.21 514.017L3475.4 505.469L3480.59 496.922C3475.7 493.954 3473.13 491.048 3471.86 488.51L3462.91 492.982ZM3475.4 505.469L3469.71 513.691C3476.36 518.296 3485.05 522.182 3495.35 525.543L3498.46 516.036L3501.56 506.528C3492.22 503.486 3485.54 500.328 3481.09 497.248L3475.4 505.469ZM3498.46 516.036L3495.41 525.562C3506.05 528.956 3519.14 531.933 3534.57 534.541L3536.24 524.681L3537.9 514.821C3523.02 512.305 3510.93 509.519 3501.5 506.509L3498.46 516.036ZM3536.24 524.681L3534.45 534.519C3555.23 538.298 3574.13 542.899 3591.17 548.301L3594.19 538.769L3597.21 529.237C3579.25 523.539 3559.51 518.748 3538.03 514.842L3536.24 524.681ZM3594.19 538.769L3591.17 548.301C3608 553.639 3622.08 560.117 3633.54 567.626L3639.02 559.261L3644.5 550.896C3631.2 542.183 3615.39 534.999 3597.21 529.237L3594.19 538.769ZM3639.02 559.261L3633.34 567.493C3644.68 575.312 3653.22 584.318 3659.23 594.457L3667.83 589.359L3676.44 584.261C3668.78 571.346 3658.12 560.287 3644.7 551.029L3639.02 559.261ZM3667.83 589.359L3659.23 594.457C3665 604.184 3668.08 616.017 3668.08 630.343H3678.08H3688.08C3688.08 613.077 3684.33 597.587 3676.44 584.261L3667.83 589.359ZM3678.08 630.343H3668.08C3668.08 644.063 3664.86 656.441 3658.49 667.677L3667.19 672.608L3675.89 677.538C3684.04 663.159 3688.08 647.361 3688.08 630.343H3678.08ZM3667.19 672.608L3658.43 667.788C3652.18 679.148 3643.23 689.03 3631.33 697.413L3637.1 705.587L3642.86 713.76C3657.01 703.786 3668.12 691.682 3675.96 677.427L3667.19 672.608ZM3637.1 705.587L3631.4 697.37C3619.23 705.807 3604.49 712.531 3587.02 717.407L3589.71 727.039L3592.4 736.671C3611.64 731.302 3628.49 723.724 3642.8 713.804L3637.1 705.587ZM3589.71 727.039L3587.02 717.407C3569.68 722.248 3550.21 724.724 3528.55 724.724V734.724V744.724C3551.72 744.724 3573.03 742.077 3592.4 736.671L3589.71 727.039ZM3528.55 734.724V724.724C3504.45 724.724 3483.37 721.529 3465.18 715.332L3461.95 724.798L3458.73 734.264C3479.39 741.302 3502.71 744.724 3528.55 744.724V734.724ZM3461.95 724.798L3465.21 715.343C3446.93 709.047 3431.94 700.838 3420.02 690.871L3413.61 698.543L3407.19 706.215C3421.31 718.02 3438.56 727.315 3458.7 734.253L3461.95 724.798ZM3413.61 698.543L3419.88 690.759C3407.67 680.907 3398.61 669.749 3392.48 657.304L3383.51 661.721L3374.54 666.138C3382.07 681.443 3393.07 694.833 3407.33 706.327L3413.61 698.543ZM3383.51 661.721L3392.48 657.304C3386.27 644.69 3383.26 632.104 3383.26 619.456H3373.26H3363.26C3363.26 635.412 3367.09 651.003 3374.54 666.138L3383.51 661.721ZM3373.26 619.456V629.456H3447.55V619.456V609.456H3373.26V619.456ZM3447.55 619.456L3437.56 620.055C3438.29 632.131 3441.47 642.97 3447.51 652.164L3455.87 646.672L3464.23 641.181C3460.45 635.433 3458.08 628.128 3457.53 618.857L3447.55 619.456ZM3455.87 646.672L3447.7 652.439C3453.65 660.869 3461.12 667.717 3470.04 672.92L3475.08 664.283L3480.12 655.645C3473.67 651.883 3468.34 646.991 3464.04 640.905L3455.87 646.672ZM3475.08 664.283L3469.76 672.749C3478.3 678.12 3487.93 681.936 3498.53 684.291L3500.7 674.529L3502.87 664.767C3494.25 662.852 3486.8 659.837 3480.4 655.816L3475.08 664.283ZM3500.7 674.529L3498.74 684.334C3508.99 686.385 3519.36 687.41 3529.83 687.41V677.41V667.41C3520.67 667.41 3511.62 666.515 3502.66 664.723L3500.7 674.529ZM3529.83 677.41V687.41C3543.73 687.41 3556.21 685.957 3567.13 682.871L3564.41 673.248L3561.69 663.625C3552.98 666.088 3542.41 667.41 3529.83 667.41V677.41ZM3564.41 673.248L3567.08 682.886C3577.95 679.88 3587.28 675.661 3594.61 669.904L3588.43 662.041L3582.25 654.178C3577.62 657.813 3570.95 661.066 3561.75 663.61L3564.41 673.248ZM3588.43 662.041L3594.59 669.916C3600.37 665.397 3605.03 660.19 3608.17 654.194L3599.31 649.554L3590.46 644.914C3588.9 647.883 3586.31 651.001 3582.26 654.166L3588.43 662.041ZM3599.31 649.554L3608.09 654.343C3611.49 648.121 3613.16 641.343 3613.16 634.185H3603.16H3593.16C3593.16 638.127 3592.27 641.594 3590.54 644.766L3599.31 649.554ZM3924.31 297.027H3934.31V287.027H3924.31V297.027ZM3924.31 381.557H3914.31V391.557H3924.31V381.557ZM4054.62 381.557H4064.62V371.557H4054.62V381.557ZM4054.62 438.87V448.87H4064.62V438.87H4054.62ZM3924.31 438.87V428.87H3914.31V438.87H3924.31ZM3928.79 636.746L3919.32 639.978L3919.37 640.119L3919.42 640.258L3928.79 636.746ZM3941.92 656.918L3948.7 649.57L3948.62 649.498L3948.54 649.428L3941.92 656.918ZM4028.05 667.484L4026.72 657.572L4026.59 657.59L4026.45 657.612L4028.05 667.484ZM4045.98 664.603L4047.86 674.423L4048.01 674.396L4048.15 674.365L4045.98 664.603ZM4060.38 661.401L4070.26 659.844L4068.61 649.33L4058.22 651.639L4060.38 661.401ZM4068.71 714.232L4073.95 722.749L4079.62 719.257L4078.59 712.675L4068.71 714.232ZM4048.54 723.197L4051.46 732.761L4051.54 732.736L4051.62 732.709L4048.54 723.197ZM4023.56 729.281L4025.43 739.104L4023.56 729.281ZM3995.39 733.123L3994.52 723.161L3994.4 723.171L3994.28 723.184L3995.39 733.123ZM3918.22 727.68L3915.02 737.153L3915.1 737.181L3915.18 737.207L3918.22 727.68ZM3880.76 704.946L3887.76 697.803L3887.72 697.766L3887.68 697.73L3880.76 704.946ZM3856.1 666.204L3846.71 669.631L3846.73 669.687L3846.75 669.743L3856.1 666.204ZM3847.46 438.87H3857.46V428.87H3847.46V438.87ZM3763.57 438.87H3753.57V448.87H3763.57V438.87ZM3763.57 381.557V371.557H3753.57V381.557H3763.57ZM3847.46 381.557V391.557H3857.46V381.557H3847.46ZM3847.46 297.027V287.027H3837.46V297.027H3847.46ZM3924.31 297.027H3914.31V381.557H3924.31H3934.31V297.027H3924.31ZM3924.31 381.557V391.557H4054.62V381.557V371.557H3924.31V381.557ZM4054.62 381.557H4044.62V438.87H4054.62H4064.62V381.557H4054.62ZM4054.62 438.87V428.87H3924.31V438.87V448.87H4054.62V438.87ZM3924.31 438.87H3914.31V604.408H3924.31H3934.31V438.87H3924.31ZM3924.31 604.408H3914.31C3914.31 617.923 3915.87 629.871 3919.32 639.978L3928.79 636.746L3938.25 633.515C3935.73 626.119 3934.31 616.507 3934.31 604.408H3924.31ZM3928.79 636.746L3919.42 640.258C3923.07 649.978 3928.26 658.194 3935.29 664.408L3941.92 656.918L3948.54 649.428C3944.47 645.824 3940.91 640.592 3938.15 633.235L3928.79 636.746ZM3941.92 656.918L3935.13 664.266C3941.92 670.528 3949.96 674.904 3959.09 677.44L3961.77 667.805L3964.44 658.169C3958.2 656.436 3953.02 653.555 3948.7 649.57L3941.92 656.918ZM3961.77 667.805L3959.09 677.44C3967.77 679.85 3977.11 681.007 3987.06 681.007V671.007V661.007C3978.65 661.007 3971.14 660.029 3964.44 658.169L3961.77 667.805ZM3987.06 671.007V681.007C3994 681.007 4001.13 680.671 4008.46 680.005L4007.55 670.046L4006.65 660.087C3999.89 660.702 3993.36 661.007 3987.06 661.007V671.007ZM4007.55 670.046L4008.46 680.005C4015.72 679.345 4022.78 678.463 4029.64 677.357L4028.05 667.484L4026.45 657.612C4020.08 658.641 4013.48 659.466 4006.65 660.087L4007.55 670.046ZM4028.05 667.484L4029.37 677.397C4035.93 676.521 4042.1 675.531 4047.86 674.423L4045.98 664.603L4044.09 654.783C4038.75 655.809 4032.96 656.74 4026.72 657.572L4028.05 667.484ZM4045.98 664.603L4048.15 674.365C4048.98 674.179 4047.58 674.49 4048.42 674.305C4048.66 674.25 4048.44 674.3 4048.68 674.245C4049.18 674.136 4048.72 674.236 4049.22 674.127C4049.84 673.988 4049.65 674.031 4050.26 673.894C4050.34 673.878 4050.7 673.796 4050.78 673.78C4051.16 673.696 4050.91 673.751 4051.29 673.667C4051.3 673.664 4051.31 673.662 4051.32 673.66C4051.33 673.657 4051.34 673.655 4051.35 673.653C4051.41 673.64 4051.35 673.652 4051.41 673.639C4051.49 673.622 4051.46 673.627 4051.54 673.611C4051.77 673.559 4051.56 673.606 4051.79 673.555C4052.25 673.452 4051.83 673.546 4052.29 673.444C4052.51 673.395 4054.03 673.056 4054.22 673.014C4054.79 672.889 4055.54 672.722 4056.07 672.604C4056.34 672.544 4056.25 672.563 4056.52 672.504C4056.65 672.475 4056.61 672.484 4056.74 672.455C4056.78 672.447 4056.81 672.439 4056.85 672.43C4056.88 672.423 4056.87 672.425 4056.9 672.418C4056.91 672.416 4056.92 672.414 4056.93 672.412C4056.94 672.41 4056.95 672.408 4056.96 672.406C4057.04 672.388 4057.32 672.327 4057.4 672.309C4057.8 672.22 4057.43 672.302 4057.83 672.213C4058.33 672.101 4058.17 672.136 4058.67 672.026C4059.19 671.91 4058.56 672.049 4059.08 671.934C4059.27 671.892 4059.1 671.93 4059.29 671.888C4059.32 671.881 4059.36 671.873 4059.39 671.866C4059.4 671.863 4059.43 671.857 4059.44 671.854C4059.45 671.853 4059.49 671.844 4059.49 671.843C4059.6 671.82 4059.79 671.777 4059.89 671.754C4060.03 671.724 4060.16 671.695 4060.29 671.666C4060.55 671.607 4060.81 671.55 4061.07 671.493C4061.12 671.482 4061.21 671.462 4061.26 671.451C4061.27 671.449 4061.27 671.447 4061.28 671.445C4061.29 671.444 4061.3 671.442 4061.31 671.44C4061.32 671.437 4061.34 671.433 4061.35 671.43C4061.44 671.41 4061.36 671.428 4061.45 671.409C4061.67 671.359 4061.6 671.375 4061.82 671.325C4062.12 671.258 4062.26 671.228 4062.55 671.163L4060.38 661.401L4058.22 651.639C4058.12 651.66 4056.86 651.941 4056.73 651.969C4056.28 652.07 4055.64 652.212 4055.15 652.319C4054.8 652.397 4053.87 652.605 4053.49 652.69C4052.92 652.816 4053.2 652.754 4052.62 652.882C4052.43 652.926 4052.38 652.937 4052.18 652.98C4052.15 652.988 4051.77 653.072 4051.73 653.08C4051.67 653.094 4050.89 653.267 4050.82 653.283C4050.51 653.351 4050.67 653.317 4050.36 653.386C4050.29 653.401 4049.96 653.474 4049.89 653.49C4049.39 653.6 4049.43 653.591 4048.93 653.703C4048.5 653.798 4048.87 653.715 4048.44 653.811C4048.26 653.851 4048.13 653.88 4047.95 653.92C4047.22 654.083 4047.69 653.978 4046.95 654.143C4046.65 654.209 4046.23 654.303 4045.92 654.371C4045.46 654.473 4046.25 654.297 4045.79 654.399C4045.64 654.434 4045.82 654.394 4045.66 654.428C4045.65 654.43 4045.54 654.455 4045.53 654.457C4045.07 654.56 4045.87 654.383 4045.4 654.486C4045.25 654.521 4045.49 654.466 4045.34 654.501C4045.33 654.502 4045.28 654.514 4045.27 654.516C4045.26 654.518 4045.15 654.542 4045.14 654.545C4045.12 654.549 4044.9 654.599 4044.88 654.603C4044.84 654.612 4044.39 654.713 4044.34 654.721C4043.55 654.897 4044.6 654.665 4043.81 654.841L4045.98 664.603ZM4060.38 661.401L4050.51 662.958L4058.83 715.788L4068.71 714.232L4078.59 712.675L4070.26 659.844L4060.38 661.401ZM4068.71 714.232L4063.47 705.715C4058.75 708.619 4052.79 711.305 4045.45 713.685L4048.54 723.197L4051.62 732.709C4060.08 729.966 4067.57 726.675 4073.95 722.749L4068.71 714.232ZM4048.54 723.197L4045.62 713.634C4038.32 715.863 4030.35 717.808 4021.69 719.457L4023.56 729.281L4025.43 739.104C4034.71 737.338 4043.39 735.227 4051.46 732.761L4048.54 723.197ZM4023.56 729.281L4021.69 719.457C4013.08 721.097 4004.03 722.334 3994.52 723.161L3995.39 733.123L3996.25 743.085C4006.38 742.205 4016.11 740.88 4025.43 739.104L4023.56 729.281ZM3995.39 733.123L3994.28 723.184C3985.04 724.211 3975.8 724.724 3966.57 724.724V734.724V744.724C3976.55 744.724 3986.52 744.17 3996.49 743.062L3995.39 733.123ZM3966.57 734.724V724.724C3949.96 724.724 3934.89 722.497 3921.26 718.152L3918.22 727.68L3915.18 737.207C3931.01 742.255 3948.17 744.724 3966.57 744.724V734.724ZM3918.22 727.68L3921.43 718.207C3908.27 713.756 3897.09 706.948 3887.76 697.803L3880.76 704.946L3873.76 712.09C3885.34 723.437 3899.15 731.785 3915.02 737.153L3918.22 727.68ZM3880.76 704.946L3887.68 697.73C3878.46 688.884 3870.99 677.298 3865.46 662.665L3856.1 666.204L3846.75 669.743C3853.17 686.701 3862.14 700.944 3873.84 712.163L3880.76 704.946ZM3856.1 666.204L3865.5 662.776C3860.24 648.367 3857.46 630.594 3857.46 609.21H3847.46H3837.46C3837.46 632.226 3840.44 652.448 3846.71 669.631L3856.1 666.204ZM3847.46 609.21H3857.46V438.87H3847.46H3837.46V609.21H3847.46ZM3847.46 438.87V428.87H3763.57V438.87V448.87H3847.46V438.87ZM3763.57 438.87H3773.57V381.557H3763.57H3753.57V438.87H3763.57ZM3763.57 381.557V391.557H3847.46V381.557V371.557H3763.57V381.557ZM3847.46 381.557H3857.46V297.027H3847.46H3837.46V381.557H3847.46ZM3847.46 297.027V307.027H3924.31V297.027V287.027H3847.46V297.027ZM4439.81 377.715L4438.34 387.607L4438.35 387.609L4438.37 387.61L4439.81 377.715ZM4467.34 383.798L4477.24 385.224L4478.41 377.114L4470.69 374.374L4467.34 383.798ZM4456.46 459.362L4454.33 469.133L4464.82 471.423L4466.35 460.788L4456.46 459.362ZM4421.56 453.599L4420.43 463.536L4420.44 463.537L4420.45 463.538L4421.56 453.599ZM4325.82 467.367L4330.97 475.942L4331.2 475.804L4331.42 475.653L4325.82 467.367ZM4289 514.115L4279.7 510.434L4279 512.207V514.115H4289ZM4289 728V738H4299V728H4289ZM4212.47 728H4202.47V738H4212.47V728ZM4212.47 381.557V371.557H4202.47V381.557H4212.47ZM4284.2 381.557L4294.17 380.892L4293.55 371.557H4284.2V381.557ZM4287.4 429.585L4297.39 429.185L4297.38 429.052L4297.38 428.92L4287.4 429.585ZM4287.72 437.59L4277.73 437.989L4278.88 466.81L4295.81 443.461L4287.72 437.59ZM4338.31 391.803L4333.43 383.075L4333.41 383.086L4333.39 383.097L4338.31 391.803ZM4403.95 375.153V385.153C4415.87 385.153 4427.33 385.975 4438.34 387.607L4439.81 377.715L4441.27 367.823C4429.23 366.039 4416.79 365.153 4403.95 365.153V375.153ZM4439.81 377.715L4438.37 387.61C4449.84 389.279 4458.28 391.192 4464 393.222L4467.34 383.798L4470.69 374.374C4463.17 371.708 4453.26 369.566 4441.25 367.819L4439.81 377.715ZM4467.34 383.798L4457.45 382.372L4446.56 457.936L4456.46 459.362L4466.35 460.788L4477.24 385.224L4467.34 383.798ZM4456.46 459.362L4458.59 449.592C4446.52 446.959 4434.54 444.981 4422.66 443.66L4421.56 453.599L4420.45 463.538C4431.62 464.779 4442.91 466.642 4454.33 469.133L4456.46 459.362ZM4421.56 453.599L4422.68 443.663C4411 442.34 4399.31 441.678 4387.62 441.678V451.678V461.678C4398.55 461.678 4409.49 462.297 4420.43 463.536L4421.56 453.599ZM4387.62 451.678V441.678C4374.16 441.678 4361.8 443.022 4350.61 445.819L4353.04 455.52L4355.46 465.222C4364.77 462.895 4375.46 461.678 4387.62 461.678V451.678ZM4353.04 455.52L4350.61 445.819C4339.35 448.633 4329.19 453.025 4320.22 459.081L4325.82 467.367L4331.42 475.653C4338.25 471.037 4346.23 467.531 4355.46 465.222L4353.04 455.52ZM4325.82 467.367L4320.68 458.792C4311.05 464.57 4302.83 471.941 4296.07 480.864L4304.05 486.899L4312.02 492.933C4317.22 486.061 4323.52 480.411 4330.97 475.942L4325.82 467.367ZM4304.05 486.899L4296.07 480.864C4289.49 489.559 4284.05 499.44 4279.7 510.434L4289 514.115L4298.3 517.795C4302.06 508.297 4306.65 500.034 4312.02 492.933L4304.05 486.899ZM4289 514.115H4279V728H4289H4299V514.115H4289ZM4289 728V718H4212.47V728V738H4289V728ZM4212.47 728H4222.47V381.557H4212.47H4202.47V728H4212.47ZM4212.47 381.557V391.557H4284.2V381.557V371.557H4212.47V381.557ZM4284.2 381.557L4274.22 382.222L4277.42 430.25L4287.4 429.585L4297.38 428.92L4294.17 380.892L4284.2 381.557ZM4287.4 429.585L4277.41 429.985L4277.73 437.989L4287.72 437.59L4297.71 437.19L4297.39 429.185L4287.4 429.585ZM4287.72 437.59L4295.81 443.461C4309.11 425.122 4324.92 410.858 4343.23 400.508L4338.31 391.803L4333.39 383.097C4312.42 394.948 4294.5 411.208 4279.62 431.719L4287.72 437.59ZM4338.31 391.803L4343.19 400.531C4361.47 390.308 4381.66 385.153 4403.95 385.153V375.153V365.153C4378.42 365.153 4354.85 371.098 4333.43 383.075L4338.31 391.803ZM4779.53 728L4770.76 732.819L4773.61 738H4779.53V728ZM4773.76 712.631L4763.97 714.657L4764.01 714.858L4764.06 715.056L4773.76 712.631ZM4770.24 693.42L4780.11 691.827L4776.92 672.043L4763.03 686.489L4770.24 693.42ZM4751.99 709.429L4757.95 717.46L4757.97 717.445L4757.99 717.429L4751.99 709.429ZM4729.58 722.237L4725.58 713.07L4725.48 713.112L4725.39 713.157L4729.58 722.237ZM4622.31 726.719L4618.91 736.121L4618.99 736.151L4619.07 736.179L4622.31 726.719ZM4584.53 704.946L4591.13 697.43L4591.05 697.359L4590.96 697.289L4584.53 704.946ZM4559.56 672.608L4550.44 676.711L4550.48 676.803L4550.52 676.895L4559.56 672.608ZM4562.12 581.034L4553.25 576.408L4553.24 576.433L4553.23 576.457L4562.12 581.034ZM4595.42 544.532L4600.94 552.872L4600.95 552.862L4600.97 552.853L4595.42 544.532ZM4645.05 524.04L4642.75 514.309L4642.73 514.312L4642.72 514.315L4645.05 524.04ZM4768 516.996V526.996H4778V516.996H4768ZM4763.2 469.288L4753.95 473.096L4754 473.211L4754.05 473.325L4763.2 469.288ZM4750.07 450.397L4756.86 443.06L4756.73 442.939L4756.6 442.823L4750.07 450.397ZM4727.34 438.23L4724.1 447.694L4724.24 447.74L4724.38 447.783L4727.34 438.23ZM4669.38 437.59L4666.3 428.077L4666.26 428.09L4666.22 428.103L4669.38 437.59ZM4650.17 448.156L4656.38 455.996L4656.57 455.844L4656.76 455.682L4650.17 448.156ZM4638.64 463.205L4629.45 459.266L4629.42 459.348L4629.38 459.432L4638.64 463.205ZM4635.12 481.776V491.776H4645.12V481.776H4635.12ZM4558.28 481.776L4548.28 481.622L4548.12 491.776H4558.28V481.776ZM4596.38 407.812L4602.59 415.647L4602.7 415.561L4602.81 415.472L4596.38 407.812ZM4640.56 384.118L4643.69 393.617L4643.73 393.605L4643.76 393.594L4640.56 384.118ZM4757.75 382.838L4754.94 392.435L4755.01 392.455L4755.08 392.474L4757.75 382.838ZM4803.54 404.931L4797.46 412.867L4803.54 404.931ZM4833.64 442.393L4824.62 446.712L4824.63 446.737L4824.64 446.762L4833.64 442.393ZM4847.73 690.538L4837.87 692.209L4837.88 692.305L4837.9 692.401L4847.73 690.538ZM4857.65 722.557H4867.65V720.297L4866.68 718.257L4857.65 722.557ZM4857.65 728V738H4867.65V728H4857.65ZM4714.21 669.085L4711.4 659.488L4711.37 659.497L4711.33 659.507L4714.21 669.085ZM4768 629.382L4776.94 633.854L4778 631.743V629.382H4768ZM4768 565.345H4778V555.345H4768V565.345ZM4675.47 570.147L4677.85 579.859L4677.93 579.839L4678.01 579.818L4675.47 570.147ZM4646.33 583.275L4652.41 591.211L4652.48 591.159L4652.55 591.106L4646.33 583.275ZM4631.92 600.885L4622.87 596.641L4622.81 596.758L4622.76 596.877L4631.92 600.885ZM4631.28 643.791L4622.04 647.614L4622.06 647.672L4622.09 647.73L4631.28 643.791ZM4660.74 669.406L4657.41 678.836L4657.53 678.879L4657.66 678.92L4660.74 669.406ZM4779.53 728L4788.29 723.181C4786.45 719.834 4784.8 715.556 4783.46 710.206L4773.76 712.631L4764.06 715.056C4765.71 721.659 4767.91 727.628 4770.76 732.819L4779.53 728ZM4773.76 712.631L4783.56 710.605C4782.31 704.567 4781.16 698.308 4780.11 691.827L4770.24 693.42L4760.37 695.012C4761.46 701.766 4762.66 708.314 4763.97 714.657L4773.76 712.631ZM4770.24 693.42L4763.03 686.489C4758.11 691.611 4752.44 696.595 4745.99 701.429L4751.99 709.429L4757.99 717.429C4765.21 712.017 4771.7 706.328 4777.45 700.351L4770.24 693.42ZM4751.99 709.429L4746.03 701.398C4740.08 705.813 4733.28 709.713 4725.58 713.07L4729.58 722.237L4733.57 731.404C4742.52 727.502 4750.66 722.865 4757.95 717.46L4751.99 709.429ZM4729.58 722.237L4725.39 713.157C4717.75 716.68 4709.47 719.449 4700.51 721.44L4702.68 731.202L4704.85 740.964C4715.1 738.686 4724.75 735.478 4733.77 731.316L4729.58 722.237ZM4702.68 731.202L4700.51 721.44C4691.7 723.398 4682.08 724.404 4671.62 724.404V734.404V744.404C4683.36 744.404 4694.45 743.275 4704.85 740.964L4702.68 731.202ZM4671.62 734.404V724.404C4654.65 724.404 4639.33 721.98 4625.56 717.26L4622.31 726.719L4619.07 736.179C4635.19 741.704 4652.74 744.404 4671.62 744.404V734.404ZM4622.31 726.719L4625.72 717.317C4612.02 712.352 4600.54 705.69 4591.13 697.43L4584.53 704.946L4577.94 712.463C4589.44 722.56 4603.15 730.413 4618.91 736.121L4622.31 726.719ZM4584.53 704.946L4590.96 697.289C4581.39 689.248 4573.95 679.617 4568.59 668.32L4559.56 672.608L4550.52 676.895C4557.12 690.786 4566.33 702.715 4578.1 712.604L4584.53 704.946ZM4559.56 672.608L4568.68 668.504C4563.52 657.049 4560.91 644.688 4560.91 631.303H4550.91H4540.91C4540.91 647.376 4544.07 662.551 4550.44 676.711L4559.56 672.608ZM4550.91 631.303H4560.91C4560.91 613.637 4564.38 598.495 4571.01 585.61L4562.12 581.034L4553.23 576.457C4544.92 592.603 4540.91 610.974 4540.91 631.303H4550.91ZM4562.12 581.034L4570.98 585.659C4577.85 572.505 4587.76 561.589 4600.94 552.872L4595.42 544.532L4589.9 536.193C4574.04 546.687 4561.76 560.106 4553.25 576.408L4562.12 581.034ZM4595.42 544.532L4600.97 552.853C4613.22 544.683 4628.61 538.253 4647.37 533.766L4645.05 524.04L4642.72 514.315C4622.21 519.22 4604.51 526.451 4589.87 536.212L4595.42 544.532ZM4645.05 524.04L4647.35 533.772C4666.3 529.289 4687.92 526.996 4712.29 526.996V516.996V506.996C4686.7 506.996 4663.5 509.4 4642.75 514.309L4645.05 524.04ZM4712.29 516.996V526.996H4768V516.996V506.996H4712.29V516.996ZM4768 516.996H4778V493.623H4768H4758V516.996H4768ZM4768 493.623H4778C4778 483.448 4776.18 473.937 4772.35 465.252L4763.2 469.288L4754.05 473.325C4756.62 479.155 4758 485.866 4758 493.623H4768ZM4763.2 469.288L4772.44 465.481C4768.9 456.882 4763.69 449.38 4756.86 443.06L4750.07 450.397L4743.28 457.735C4747.98 462.087 4751.51 467.18 4753.95 473.096L4763.2 469.288ZM4750.07 450.397L4756.6 442.823C4749.22 436.465 4740.38 431.799 4730.29 428.677L4727.34 438.23L4724.38 447.783C4732.22 450.211 4738.54 453.657 4743.54 457.971L4750.07 450.397ZM4727.34 438.23L4730.57 428.767C4720.56 425.348 4709.28 423.747 4696.92 423.747V433.747V443.747C4707.61 443.747 4716.61 445.136 4724.1 447.694L4727.34 438.23ZM4696.92 433.747V423.747C4685.67 423.747 4675.41 425.121 4666.3 428.077L4669.38 437.59L4672.47 447.102C4679.15 444.935 4687.25 443.747 4696.92 443.747V433.747ZM4669.38 437.59L4666.22 428.103C4657.51 431.006 4649.88 435.124 4643.59 440.63L4650.17 448.156L4656.76 455.682C4660.71 452.223 4665.88 449.296 4672.54 447.077L4669.38 437.59ZM4650.17 448.156L4643.96 440.315C4637.54 445.398 4632.67 451.753 4629.45 459.266L4638.64 463.205L4647.84 467.144C4649.74 462.703 4652.55 459.025 4656.38 455.996L4650.17 448.156ZM4638.64 463.205L4629.38 459.432C4626.52 466.468 4625.12 473.948 4625.12 481.776H4635.12H4645.12C4645.12 476.369 4646.08 471.469 4647.9 466.978L4638.64 463.205ZM4635.12 481.776V471.776H4558.28V481.776V491.776H4635.12V481.776ZM4558.28 481.776L4568.28 481.929C4568.47 469.604 4571.39 457.734 4577.15 446.224L4568.2 441.752L4559.26 437.28C4552.21 451.385 4548.52 466.198 4548.28 481.622L4558.28 481.776ZM4568.2 441.752L4577.15 446.224C4582.83 434.854 4591.24 424.653 4602.59 415.647L4596.38 407.812L4590.17 399.977C4576.76 410.609 4566.38 423.035 4559.26 437.28L4568.2 441.752ZM4596.38 407.812L4602.81 415.472C4613.63 406.39 4627.18 399.053 4643.69 393.617L4640.56 384.118L4637.44 374.62C4618.94 380.71 4603.04 389.169 4589.95 400.152L4596.38 407.812ZM4640.56 384.118L4643.76 393.594C4660.26 388.028 4679.32 385.153 4701.08 385.153V375.153V365.153C4677.59 365.153 4656.31 368.255 4637.37 374.643L4640.56 384.118ZM4701.08 375.153V385.153C4720.51 385.153 4738.45 387.607 4754.94 392.435L4757.75 382.838L4760.56 373.24C4742.05 367.822 4722.2 365.153 4701.08 365.153V375.153ZM4757.75 382.838L4755.08 392.474C4771.73 397.089 4785.8 403.929 4797.46 412.867L4803.54 404.931L4809.62 396.994C4795.67 386.294 4779.21 378.406 4760.42 373.201L4757.75 382.838ZM4803.54 404.931L4797.46 412.867C4808.96 421.688 4818.01 432.915 4824.62 446.712L4833.64 442.393L4842.66 438.073C4834.75 421.558 4823.73 407.811 4809.62 396.994L4803.54 404.931ZM4833.64 442.393L4824.64 446.762C4831.13 460.116 4834.52 475.865 4834.52 494.263H4844.52H4854.52C4854.52 473.385 4850.66 454.554 4842.63 438.023L4833.64 442.393ZM4844.52 494.263H4834.52V648.273H4844.52H4854.52V494.263H4844.52ZM4844.52 648.273H4834.52C4834.52 664.299 4835.62 678.958 4837.87 692.209L4847.73 690.538L4857.59 688.867C4855.56 676.93 4854.52 663.413 4854.52 648.273H4844.52ZM4847.73 690.538L4837.9 692.401C4840.37 705.41 4843.9 716.941 4848.62 726.856L4857.65 722.557L4866.68 718.257C4862.86 710.242 4859.78 700.427 4857.55 688.675L4847.73 690.538ZM4857.65 722.557H4847.65V728H4857.65H4867.65V722.557H4857.65ZM4857.65 728V718H4779.53V728V738H4857.65V728ZM4686.35 672.928V682.928C4697.24 682.928 4707.5 681.537 4717.08 678.664L4714.21 669.085L4711.33 659.507C4703.84 661.756 4695.53 662.928 4686.35 662.928V672.928ZM4714.21 669.085L4717.02 678.683C4726.44 675.925 4735.08 672.322 4742.89 667.826L4737.9 659.16L4732.91 650.493C4726.63 654.109 4719.48 657.123 4711.4 659.488L4714.21 669.085ZM4737.9 659.16L4742.89 667.826C4750.61 663.385 4757.41 658.277 4763.22 652.463L4756.15 645.392L4749.08 638.32C4744.65 642.753 4739.29 646.823 4732.91 650.493L4737.9 659.16ZM4756.15 645.392L4763.22 652.463C4768.98 646.704 4773.62 640.511 4776.94 633.854L4768 629.382L4759.06 624.91C4756.83 629.353 4753.57 633.833 4749.08 638.32L4756.15 645.392ZM4768 629.382H4778V565.345H4768H4758V629.382H4768ZM4768 565.345V555.345H4718.69V565.345V575.345H4768V565.345ZM4718.69 565.345V555.345C4701.44 555.345 4686.14 556.999 4672.92 560.477L4675.47 570.147L4678.01 579.818C4689.13 576.892 4702.64 575.345 4718.69 575.345V565.345ZM4675.47 570.147L4673.08 560.436C4659.98 563.654 4648.82 568.529 4640.11 575.444L4646.33 583.275L4652.55 591.106C4658.35 586.495 4666.62 582.618 4677.85 579.859L4675.47 570.147ZM4646.33 583.275L4640.24 575.339C4632.66 581.154 4626.79 588.259 4622.87 596.641L4631.92 600.885L4640.97 605.13C4643.45 599.85 4647.19 595.216 4652.41 591.211L4646.33 583.275ZM4631.92 600.885L4622.76 596.877C4619.14 605.143 4617.44 614.22 4617.44 623.939H4627.44H4637.44C4637.44 616.581 4638.72 610.29 4641.08 604.894L4631.92 600.885ZM4627.44 623.939H4617.44C4617.44 632.227 4618.95 640.15 4622.04 647.614L4631.28 643.791L4640.52 639.967C4638.49 635.051 4637.44 629.74 4637.44 623.939H4627.44ZM4631.28 643.791L4622.09 647.73C4625.24 655.092 4629.88 661.448 4635.92 666.706L4642.49 659.16L4649.05 651.614C4645.27 648.333 4642.44 644.442 4640.47 639.851L4631.28 643.791ZM4642.49 659.16L4635.92 666.706C4641.94 671.937 4649.18 675.93 4657.41 678.836L4660.74 669.406L4664.07 659.976C4657.78 657.758 4652.85 654.921 4649.05 651.614L4642.49 659.16ZM4660.74 669.406L4657.66 678.92C4666.15 681.667 4675.77 682.928 4686.35 682.928V672.928V662.928C4677.29 662.928 4669.84 661.84 4663.82 659.891L4660.74 669.406ZM4957.55 659.48L4964.62 666.551L4964.67 666.505L4964.71 666.458L4957.55 659.48ZM5023.51 659.48L5016.26 666.362L5016.35 666.458L5016.44 666.551L5023.51 659.48ZM5023.51 719.675L5016.44 712.604L5016.39 712.651L5016.34 712.699L5023.51 719.675ZM4945.38 689.577H4955.38C4955.38 680.152 4958.47 672.701 4964.62 666.551L4957.55 659.48L4950.48 652.409C4940.41 662.482 4935.38 675.096 4935.38 689.577H4945.38ZM4957.55 659.48L4964.71 666.458C4970.58 660.434 4978.79 656.992 4990.53 656.992V646.992V636.992C4974.52 636.992 4960.74 641.876 4950.39 652.501L4957.55 659.48ZM4990.53 646.992V656.992C5002.54 656.992 5010.66 660.466 5016.26 666.362L5023.51 659.48L5030.76 652.597C5020.56 641.844 5006.69 636.992 4990.53 636.992V646.992ZM5023.51 659.48L5016.44 666.551C5022.59 672.701 5025.68 680.152 5025.68 689.577H5035.68H5045.68C5045.68 675.096 5040.65 662.482 5030.58 652.409L5023.51 659.48ZM5035.68 689.577H5025.68C5025.68 699.003 5022.59 706.454 5016.44 712.604L5023.51 719.675L5030.58 726.746C5040.65 716.673 5045.68 704.059 5045.68 689.577H5035.68ZM5023.51 719.675L5016.34 712.699C5010.77 718.427 5002.62 721.842 4990.53 721.842V731.842V741.842C5006.62 741.842 5020.46 737.146 5030.67 726.651L5023.51 719.675ZM4990.53 731.842V721.842C4978.71 721.842 4970.48 718.459 4964.62 712.604L4957.55 719.675L4950.48 726.746C4960.85 737.115 4974.6 741.842 4990.53 741.842V731.842ZM4957.55 719.675L4964.62 712.604C4958.47 706.454 4955.38 699.003 4955.38 689.577H4945.38H4935.38C4935.38 704.059 4940.41 716.673 4950.48 726.746L4957.55 719.675ZM5359.07 620.737L5368.66 617.929L5366.56 610.737H5359.07V620.737ZM5212.74 620.737V610.737H5205.27L5203.15 617.903L5212.74 620.737ZM5181.04 728V738H5188.51L5190.63 730.834L5181.04 728ZM5100.99 728L5091.49 724.904L5087.22 738H5100.99V728ZM5252.76 261.807V251.807H5245.5L5243.26 258.711L5252.76 261.807ZM5320.96 261.807L5330.49 258.758L5328.26 251.807H5320.96V261.807ZM5470.17 728V738H5483.87L5479.7 724.952L5470.17 728ZM5390.44 728L5380.85 730.808L5382.95 738H5390.44V728ZM5232.27 554.778L5222.68 551.948L5218.89 564.778H5232.27V554.778ZM5340.18 554.778V564.778H5353.49L5349.78 551.994L5340.18 554.778ZM5286.7 370.35L5296.31 367.566L5286.79 334.734L5277.11 367.52L5286.7 370.35ZM5359.07 620.737V610.737H5212.74V620.737V630.737H5359.07V620.737ZM5212.74 620.737L5203.15 617.903L5171.45 725.166L5181.04 728L5190.63 730.834L5222.33 623.571L5212.74 620.737ZM5181.04 728V718H5100.99V728V738H5181.04V728ZM5100.99 728L5110.5 731.096L5262.27 264.902L5252.76 261.807L5243.26 258.711L5091.49 724.904L5100.99 728ZM5252.76 261.807V271.807H5320.96V261.807V251.807H5252.76V261.807ZM5320.96 261.807L5311.44 264.855L5460.65 731.048L5470.17 728L5479.7 724.952L5330.49 258.758L5320.96 261.807ZM5470.17 728V718H5390.44V728V738H5470.17V728ZM5390.44 728L5400.04 725.192L5368.66 617.929L5359.07 620.737L5349.47 623.545L5380.85 730.808L5390.44 728ZM5232.27 554.778V564.778H5340.18V554.778V544.778H5232.27V554.778ZM5340.18 554.778L5349.78 551.994L5296.31 367.566L5286.7 370.35L5277.1 373.135L5330.57 557.563L5340.18 554.778ZM5286.7 370.35L5277.11 367.52L5222.68 551.948L5232.27 554.778L5241.86 557.609L5296.29 373.181L5286.7 370.35ZM5538.05 261.807V251.807H5528.05V261.807H5538.05ZM5812.77 261.807H5822.77V251.807H5812.77V261.807ZM5812.77 325.524V335.524H5822.77V325.524H5812.77ZM5713.19 325.524V315.524H5703.19V325.524H5713.19ZM5713.19 664.603H5703.19V674.603H5713.19V664.603ZM5812.77 664.603H5822.77V654.603H5812.77V664.603ZM5812.77 728V738H5822.77V728H5812.77ZM5538.05 728H5528.05V738H5538.05V728ZM5538.05 664.603V654.603H5528.05V664.603H5538.05ZM5635.39 664.603V674.603H5645.39V664.603H5635.39ZM5635.39 325.524H5645.39V315.524H5635.39V325.524ZM5538.05 325.524H5528.05V335.524H5538.05V325.524ZM5538.05 261.807V271.807H5812.77V261.807V251.807H5538.05V261.807ZM5812.77 261.807H5802.77V325.524H5812.77H5822.77V261.807H5812.77ZM5812.77 325.524V315.524H5713.19V325.524V335.524H5812.77V325.524ZM5713.19 325.524H5703.19V664.603H5713.19H5723.19V325.524H5713.19ZM5713.19 664.603V674.603H5812.77V664.603V654.603H5713.19V664.603ZM5812.77 664.603H5802.77V728H5812.77H5822.77V664.603H5812.77ZM5812.77 728V718H5538.05V728V738H5812.77V728ZM5538.05 728H5548.05V664.603H5538.05H5528.05V728H5538.05ZM5538.05 664.603V674.603H5635.39V664.603V654.603H5538.05V664.603ZM5635.39 664.603H5645.39V325.524H5635.39H5625.39V664.603H5635.39ZM5635.39 325.524V315.524H5538.05V325.524V335.524H5635.39V325.524ZM5538.05 325.524H5548.05V261.807H5538.05H5528.05V325.524H5538.05Z" fill="white" mask="url(#path-4-outside-1_315_2031)"/>
</svg>
