<svg width="6204" height="1049" viewBox="0 0 6204 1049" fill="none" xmlns="http://www.w3.org/2000/svg">
<rect x="41.4199" y="41.418" width="993.958" height="952.543" rx="204.92" fill="black"/>
<path fill-rule="evenodd" clip-rule="evenodd" d="M432.291 706.236C469.1 706.236 502.048 683.403 514.973 648.937L606.658 404.444C628.306 346.714 585.631 285.133 523.976 285.133C487.166 285.133 454.218 307.966 441.293 342.432L349.608 586.925C327.96 644.655 370.636 706.236 432.291 706.236Z" fill="white"/>
<ellipse cx="87.7298" cy="81.1501" rx="87.7298" ry="81.1501" transform="matrix(-1 0 0 1 767.637 537.363)" fill="white"/>
<mask id="path-4-outside-1_315_2031" maskUnits="userSpaceOnUse" x="1369" y="233" width="4447" height="505" fill="black">
<rect fill="white" x="1369" y="233" width="4447" height="505"/>
<path d="M1632.08 620.737H1485.75L1454.06 728H1374.01L1525.78 261.807H1593.98L1743.19 728H1663.46L1632.08 620.737ZM1505.29 554.778H1613.19L1559.72 370.35L1505.29 554.778ZM2040.96 375.153C2053.34 375.153 2065.29 376.007 2076.82 377.715C2088.56 379.422 2097.74 381.45 2104.36 383.798L2093.47 459.362C2081.73 456.801 2070.1 454.88 2058.57 453.599C2047.26 452.318 2035.94 451.678 2024.63 451.678C2011.82 451.678 2000.3 452.959 1990.05 455.52C1979.8 458.082 1970.73 462.031 1962.83 467.367C1954.3 472.49 1947.04 479.001 1941.06 486.899C1935.09 494.797 1930.07 503.869 1926.01 514.115V728H1849.49V381.557H1921.21L1924.41 429.585L1924.73 437.59C1938.82 418.165 1955.68 402.903 1975.32 391.803C1995.17 380.703 2017.05 375.153 2040.96 375.153ZM2346.1 672.928C2355.71 672.928 2364.88 671.54 2373.64 668.765C2382.6 665.777 2390.5 661.614 2397.33 656.278C2403.95 650.941 2409.18 644.644 2413.02 637.387C2417.07 630.129 2419.1 622.125 2419.1 613.373H2491.14C2491.36 630.236 2487.52 646.139 2479.62 661.081C2471.93 675.809 2461.47 688.51 2448.24 699.183C2434.79 710.283 2419.32 719.035 2401.81 725.438C2384.52 731.629 2366.27 734.724 2347.06 734.724C2320.38 734.724 2297 730.135 2276.94 720.956C2257.09 711.564 2240.54 698.97 2227.31 683.174C2213.86 667.378 2203.72 649.02 2196.89 628.101C2190.06 606.969 2186.65 584.449 2186.65 560.542V549.335C2186.65 525.641 2189.95 503.228 2196.57 482.096C2203.4 460.963 2213.54 442.499 2226.99 426.703C2240.44 410.907 2257.09 398.42 2276.94 389.241C2297 379.849 2320.27 375.153 2346.74 375.153C2367.66 375.153 2386.98 378.355 2404.69 384.759C2422.62 391.162 2437.99 400.128 2450.8 411.654C2463.61 423.181 2473.53 436.949 2480.58 452.959C2487.84 468.968 2491.36 486.578 2491.14 505.79H2419.1C2419.1 496.398 2417.29 487.539 2413.66 479.214C2410.24 470.889 2405.33 463.632 2398.93 457.441C2392.31 451.251 2384.42 446.341 2375.24 442.713C2366.27 439.084 2356.56 437.269 2346.1 437.269C2330.09 437.269 2316.75 440.578 2306.08 447.195C2295.62 453.599 2287.29 462.031 2281.1 472.49C2274.48 482.95 2269.79 494.903 2267.01 508.351C2264.45 521.799 2263.17 535.46 2263.17 549.335V560.542C2263.17 574.63 2264.45 588.505 2267.01 602.166C2269.79 615.614 2274.38 627.461 2280.78 637.707C2286.97 648.38 2295.4 656.918 2306.08 663.322C2316.75 669.726 2330.09 672.928 2346.1 672.928ZM2665.65 430.866C2670.13 424.035 2675.15 417.738 2680.7 411.975C2686.25 406.211 2692.12 401.195 2698.31 396.926C2707.91 389.882 2718.48 384.545 2730 380.916C2741.74 377.074 2754.13 375.153 2767.15 375.153C2785.29 375.153 2801.83 377.821 2816.78 383.158C2831.93 388.494 2844.85 396.819 2855.52 408.132C2866.19 419.446 2874.41 433.961 2880.17 451.678C2886.15 469.182 2889.14 490.207 2889.14 514.755V728H2812.61V514.115C2812.61 501.307 2811.01 490.1 2807.81 480.495C2804.82 470.889 2800.34 463.098 2794.36 457.121C2788.17 450.717 2780.59 446.021 2771.63 443.033C2762.88 439.831 2752.74 438.23 2741.21 438.23C2732.25 438.23 2723.71 439.297 2715.6 441.432C2707.7 443.567 2700.44 446.662 2693.82 450.717C2688.27 453.919 2683.04 457.762 2678.13 462.244C2673.44 466.727 2669.28 471.743 2665.65 477.293V728H2589.12V236.192H2665.65V430.866ZM3144.65 734.404C3119.03 734.404 3095.55 730.135 3074.21 721.596C3053.07 713.058 3034.93 701.211 3019.77 686.055C3004.62 671.113 2992.88 653.503 2984.55 633.224C2976.44 612.732 2972.39 590.639 2972.39 566.946V553.818C2972.39 526.709 2976.66 502.161 2985.19 480.175C2993.73 458.188 3005.47 439.404 3020.41 423.822C3035.36 408.239 3052.65 396.285 3072.29 387.961C3092.14 379.422 3113.27 375.153 3135.68 375.153C3160.66 375.153 3182.75 379.422 3201.96 387.961C3221.17 396.285 3237.29 407.919 3250.31 422.861C3263.33 438.017 3273.15 456.054 3279.77 476.973C3286.38 497.892 3289.69 520.732 3289.69 545.493V578.472H3049.55V580.073C3051.9 595.229 3055.53 607.93 3060.44 618.176C3065.35 628.422 3072.07 637.6 3080.61 645.712C3089.15 654.25 3099.18 660.867 3110.71 665.563C3122.45 670.259 3135.26 672.608 3149.13 672.608C3168.13 672.608 3185.85 668.979 3202.28 661.721C3218.72 654.25 3232.27 643.684 3242.95 630.023L3283.93 669.726C3272.4 686.376 3254.69 701.318 3230.78 714.552C3207.08 727.787 3178.37 734.404 3144.65 734.404ZM3135.36 437.269C3124.48 437.269 3114.34 439.297 3104.94 443.353C3095.77 447.195 3087.55 452.745 3080.29 460.003C3073.03 467.474 3066.95 476.439 3062.04 486.899C3057.13 497.358 3053.5 509.205 3051.15 522.439H3214.13V517.316C3214.13 507.284 3212.31 497.358 3208.69 487.539C3205.06 477.506 3199.93 468.755 3193.32 461.284C3186.91 454.026 3178.8 448.263 3168.98 443.993C3159.38 439.511 3148.17 437.269 3135.36 437.269ZM3603.16 634.185C3603.16 628.208 3601.77 622.872 3598.99 618.176C3596.43 613.48 3592.06 608.997 3585.87 604.728C3579.25 600.885 3570.6 597.257 3559.93 593.841C3549.26 590.426 3535.92 587.224 3519.91 584.236C3499.84 580.18 3481.49 575.164 3464.84 569.187C3448.4 563.21 3434.2 555.952 3422.25 547.414C3410.51 539.303 3401.33 529.697 3394.71 518.597C3388.1 507.497 3384.79 494.583 3384.79 479.854C3384.79 465.766 3388.1 452.425 3394.71 439.831C3401.55 427.023 3411.26 415.817 3423.85 406.211C3436.23 396.606 3451.17 389.028 3468.68 383.478C3486.39 377.928 3506.03 375.153 3527.59 375.153C3550.65 375.153 3571.35 378.035 3589.71 383.798C3608.07 389.348 3623.65 397.033 3636.46 406.852C3649.05 416.671 3658.76 428.304 3665.59 441.752C3672.42 455.2 3675.84 469.715 3675.84 485.298H3599.31C3599.31 478.894 3597.93 472.81 3595.15 467.047C3592.59 461.07 3588.75 455.734 3583.63 451.038C3577.65 445.488 3569.96 441.112 3560.57 437.91C3551.18 434.495 3540.19 432.787 3527.59 432.787C3516.07 432.787 3505.93 434.068 3497.17 436.629C3488.64 438.977 3481.59 442.286 3476.04 446.555C3470.49 450.397 3466.33 454.987 3463.55 460.323C3460.78 465.446 3459.39 470.889 3459.39 476.653C3459.39 482.629 3460.57 488.073 3462.91 492.982C3465.26 497.678 3469.42 501.841 3475.4 505.469C3480.95 509.312 3488.64 512.834 3498.46 516.036C3508.49 519.238 3521.08 522.119 3536.24 524.681C3557.37 528.523 3576.69 533.219 3594.19 538.769C3611.69 544.319 3626.64 551.15 3639.02 559.261C3651.4 567.799 3661 577.832 3667.83 589.359C3674.67 600.885 3678.08 614.547 3678.08 630.343C3678.08 645.712 3674.45 659.8 3667.19 672.608C3660.15 685.415 3650.12 696.408 3637.1 705.587C3623.86 714.766 3608.07 721.916 3589.71 727.039C3571.35 732.162 3550.97 734.724 3528.55 734.724C3503.58 734.724 3481.38 731.415 3461.95 724.798C3442.74 718.181 3426.63 709.429 3413.61 698.543C3400.37 687.87 3390.34 675.596 3383.51 661.721C3376.68 647.846 3373.26 633.758 3373.26 619.456H3447.55C3448.19 630.129 3450.96 639.201 3455.87 646.672C3460.99 653.93 3467.4 659.8 3475.08 664.283C3482.55 668.979 3491.09 672.394 3500.7 674.529C3510.3 676.45 3520.01 677.41 3529.83 677.41C3543.07 677.41 3554.59 676.023 3564.41 673.248C3574.45 670.473 3582.45 666.737 3588.43 662.041C3593.34 658.199 3596.97 654.037 3599.31 649.554C3601.88 644.858 3603.16 639.735 3603.16 634.185ZM3924.31 297.027V381.557H4054.62V438.87H3924.31V604.408C3924.31 617.215 3925.8 627.995 3928.79 636.746C3931.99 645.285 3936.37 652.009 3941.92 656.918C3947.47 662.041 3954.08 665.67 3961.77 667.805C3969.45 669.939 3977.88 671.007 3987.06 671.007C3993.68 671.007 4000.51 670.686 4007.55 670.046C4014.6 669.406 4021.43 668.552 4028.05 667.485C4034.45 666.631 4040.43 665.67 4045.98 664.603C4051.74 663.322 4056.54 662.255 4060.38 661.401L4068.71 714.232C4063.16 717.647 4056.44 720.636 4048.54 723.197C4040.85 725.545 4032.53 727.573 4023.56 729.281C4014.6 730.988 4005.21 732.269 3995.39 733.123C3985.78 734.19 3976.18 734.724 3966.57 734.724C3949.07 734.724 3932.95 732.376 3918.22 727.68C3903.71 722.77 3891.22 715.192 3880.76 704.946C3870.3 694.914 3862.08 682 3856.11 666.204C3850.34 650.408 3847.46 631.41 3847.46 609.21V438.87H3763.57V381.557H3847.46V297.027H3924.31ZM4403.95 375.153C4416.33 375.153 4428.28 376.007 4439.81 377.715C4451.55 379.422 4460.73 381.45 4467.34 383.798L4456.46 459.362C4444.72 456.801 4433.08 454.88 4421.56 453.599C4410.24 452.318 4398.93 451.678 4387.62 451.678C4374.81 451.678 4363.28 452.959 4353.04 455.52C4342.79 458.082 4333.72 462.031 4325.82 467.367C4317.28 472.49 4310.02 479.001 4304.05 486.899C4298.07 494.797 4293.05 503.869 4289 514.115V728H4212.47V381.557H4284.2L4287.4 429.585L4287.72 437.59C4301.81 418.165 4318.67 402.903 4338.31 391.803C4358.16 380.703 4380.04 375.153 4403.95 375.153ZM4779.53 728C4777.18 723.731 4775.26 718.608 4773.76 712.631C4772.48 706.441 4771.31 700.037 4770.24 693.42C4764.9 698.97 4758.82 704.306 4751.99 709.429C4745.37 714.339 4737.9 718.608 4729.58 722.237C4721.25 726.079 4712.29 729.067 4702.68 731.202C4693.08 733.336 4682.72 734.404 4671.62 734.404C4653.69 734.404 4637.26 731.842 4622.31 726.719C4607.59 721.383 4594.99 714.125 4584.53 704.946C4573.86 695.981 4565.53 685.202 4559.56 672.608C4553.79 659.8 4550.91 646.032 4550.91 631.303C4550.91 612.305 4554.65 595.549 4562.12 581.034C4569.8 566.305 4580.9 554.138 4595.42 544.532C4608.87 535.567 4625.41 528.736 4645.05 524.04C4664.9 519.344 4687.31 516.996 4712.29 516.996H4768V493.623C4768 484.657 4766.4 476.546 4763.2 469.288C4760.21 462.031 4755.83 455.734 4750.07 450.397C4743.88 445.061 4736.3 441.005 4727.34 438.23C4718.58 435.242 4708.44 433.747 4696.92 433.747C4686.46 433.747 4677.28 435.028 4669.38 437.59C4661.7 440.151 4655.29 443.673 4650.17 448.156C4645.05 452.212 4641.21 457.228 4638.64 463.205C4636.3 468.968 4635.12 475.158 4635.12 481.776H4558.28C4558.49 467.901 4561.8 454.56 4568.2 441.752C4574.61 428.945 4584 417.631 4596.38 407.812C4608.33 397.78 4623.06 389.882 4640.57 384.118C4658.28 378.141 4678.45 375.153 4701.08 375.153C4721.36 375.153 4740.25 377.715 4757.75 382.838C4775.47 387.747 4790.73 395.111 4803.54 404.931C4816.35 414.75 4826.38 427.237 4833.64 442.393C4840.9 457.335 4844.52 474.625 4844.52 494.263V648.273C4844.52 663.856 4845.59 677.944 4847.73 690.538C4850.07 702.919 4853.38 713.592 4857.65 722.557V728H4779.53ZM4686.35 672.928C4696.38 672.928 4705.67 671.647 4714.21 669.085C4722.96 666.524 4730.86 663.215 4737.9 659.16C4744.95 655.104 4751.03 650.515 4756.15 645.392C4761.28 640.269 4765.22 634.932 4768 629.382V565.345H4718.69C4702.04 565.345 4687.63 566.946 4675.47 570.147C4663.3 573.136 4653.59 577.512 4646.33 583.275C4639.92 588.185 4635.12 594.055 4631.92 600.885C4628.93 607.716 4627.44 615.401 4627.44 623.939C4627.44 630.983 4628.72 637.6 4631.28 643.791C4633.84 649.767 4637.58 654.89 4642.49 659.16C4647.4 663.429 4653.48 666.844 4660.74 669.406C4667.99 671.754 4676.53 672.928 4686.35 672.928ZM4945.38 689.577C4945.38 677.624 4949.44 667.591 4957.55 659.48C4965.66 651.155 4976.66 646.992 4990.53 646.992C5004.62 646.992 5015.61 651.155 5023.51 659.48C5031.62 667.591 5035.68 677.624 5035.68 689.577C5035.68 701.531 5031.62 711.564 5023.51 719.675C5015.61 727.787 5004.62 731.842 4990.53 731.842C4976.66 731.842 4965.66 727.787 4957.55 719.675C4949.44 711.564 4945.38 701.531 4945.38 689.577ZM5359.07 620.737H5212.74L5181.04 728H5100.99L5252.76 261.807H5320.96L5470.17 728H5390.44L5359.07 620.737ZM5232.27 554.778H5340.18L5286.7 370.35L5232.27 554.778ZM5538.05 261.807H5812.77V325.524H5713.19V664.603H5812.77V728H5538.05V664.603H5635.39V325.524H5538.05V261.807Z"/>
</mask>
<path d="M1632.08 620.737H1485.75L1454.06 728H1374.01L1525.78 261.807H1593.98L1743.19 728H1663.46L1632.08 620.737ZM1505.29 554.778H1613.19L1559.72 370.35L1505.29 554.778ZM2040.96 375.153C2053.34 375.153 2065.29 376.007 2076.82 377.715C2088.56 379.422 2097.74 381.45 2104.36 383.798L2093.47 459.362C2081.73 456.801 2070.1 454.88 2058.57 453.599C2047.26 452.318 2035.94 451.678 2024.63 451.678C2011.82 451.678 2000.3 452.959 1990.05 455.52C1979.8 458.082 1970.73 462.031 1962.83 467.367C1954.3 472.49 1947.04 479.001 1941.06 486.899C1935.09 494.797 1930.07 503.869 1926.01 514.115V728H1849.49V381.557H1921.21L1924.41 429.585L1924.73 437.59C1938.82 418.165 1955.68 402.903 1975.32 391.803C1995.17 380.703 2017.05 375.153 2040.96 375.153ZM2346.1 672.928C2355.71 672.928 2364.88 671.54 2373.64 668.765C2382.6 665.777 2390.5 661.614 2397.33 656.278C2403.95 650.941 2409.18 644.644 2413.02 637.387C2417.07 630.129 2419.1 622.125 2419.1 613.373H2491.14C2491.36 630.236 2487.52 646.139 2479.62 661.081C2471.93 675.809 2461.47 688.51 2448.24 699.183C2434.79 710.283 2419.32 719.035 2401.81 725.438C2384.52 731.629 2366.27 734.724 2347.06 734.724C2320.38 734.724 2297 730.135 2276.94 720.956C2257.09 711.564 2240.54 698.97 2227.31 683.174C2213.86 667.378 2203.72 649.02 2196.89 628.101C2190.06 606.969 2186.65 584.449 2186.65 560.542V549.335C2186.65 525.641 2189.95 503.228 2196.57 482.096C2203.4 460.963 2213.54 442.499 2226.99 426.703C2240.44 410.907 2257.09 398.42 2276.94 389.241C2297 379.849 2320.27 375.153 2346.74 375.153C2367.66 375.153 2386.98 378.355 2404.69 384.759C2422.62 391.162 2437.99 400.128 2450.8 411.654C2463.61 423.181 2473.53 436.949 2480.58 452.959C2487.84 468.968 2491.36 486.578 2491.14 505.79H2419.1C2419.1 496.398 2417.29 487.539 2413.66 479.214C2410.24 470.889 2405.33 463.632 2398.93 457.441C2392.31 451.251 2384.42 446.341 2375.24 442.713C2366.27 439.084 2356.56 437.269 2346.1 437.269C2330.09 437.269 2316.75 440.578 2306.08 447.195C2295.62 453.599 2287.29 462.031 2281.1 472.49C2274.48 482.95 2269.79 494.903 2267.01 508.351C2264.45 521.799 2263.17 535.46 2263.17 549.335V560.542C2263.17 574.63 2264.45 588.505 2267.01 602.166C2269.79 615.614 2274.38 627.461 2280.78 637.707C2286.97 648.38 2295.4 656.918 2306.08 663.322C2316.75 669.726 2330.09 672.928 2346.1 672.928ZM2665.65 430.866C2670.13 424.035 2675.15 417.738 2680.7 411.975C2686.25 406.211 2692.12 401.195 2698.31 396.926C2707.91 389.882 2718.48 384.545 2730 380.916C2741.74 377.074 2754.13 375.153 2767.15 375.153C2785.29 375.153 2801.83 377.821 2816.78 383.158C2831.93 388.494 2844.85 396.819 2855.52 408.132C2866.19 419.446 2874.41 433.961 2880.17 451.678C2886.15 469.182 2889.14 490.207 2889.14 514.755V728H2812.61V514.115C2812.61 501.307 2811.01 490.1 2807.81 480.495C2804.82 470.889 2800.34 463.098 2794.36 457.121C2788.17 450.717 2780.59 446.021 2771.63 443.033C2762.88 439.831 2752.74 438.23 2741.21 438.23C2732.25 438.23 2723.71 439.297 2715.6 441.432C2707.7 443.567 2700.44 446.662 2693.82 450.717C2688.27 453.919 2683.04 457.762 2678.13 462.244C2673.44 466.727 2669.28 471.743 2665.65 477.293V728H2589.12V236.192H2665.65V430.866ZM3144.65 734.404C3119.03 734.404 3095.55 730.135 3074.21 721.596C3053.07 713.058 3034.93 701.211 3019.77 686.055C3004.62 671.113 2992.88 653.503 2984.55 633.224C2976.44 612.732 2972.39 590.639 2972.39 566.946V553.818C2972.39 526.709 2976.66 502.161 2985.19 480.175C2993.73 458.188 3005.47 439.404 3020.41 423.822C3035.36 408.239 3052.65 396.285 3072.29 387.961C3092.14 379.422 3113.27 375.153 3135.68 375.153C3160.66 375.153 3182.75 379.422 3201.96 387.961C3221.17 396.285 3237.29 407.919 3250.31 422.861C3263.33 438.017 3273.15 456.054 3279.77 476.973C3286.38 497.892 3289.69 520.732 3289.69 545.493V578.472H3049.55V580.073C3051.9 595.229 3055.53 607.93 3060.44 618.176C3065.35 628.422 3072.07 637.6 3080.61 645.712C3089.15 654.25 3099.18 660.867 3110.71 665.563C3122.45 670.259 3135.26 672.608 3149.13 672.608C3168.13 672.608 3185.85 668.979 3202.28 661.721C3218.72 654.25 3232.27 643.684 3242.95 630.023L3283.93 669.726C3272.4 686.376 3254.69 701.318 3230.78 714.552C3207.08 727.787 3178.37 734.404 3144.65 734.404ZM3135.36 437.269C3124.48 437.269 3114.34 439.297 3104.94 443.353C3095.77 447.195 3087.55 452.745 3080.29 460.003C3073.03 467.474 3066.95 476.439 3062.04 486.899C3057.13 497.358 3053.5 509.205 3051.15 522.439H3214.13V517.316C3214.13 507.284 3212.31 497.358 3208.69 487.539C3205.06 477.506 3199.93 468.755 3193.32 461.284C3186.91 454.026 3178.8 448.263 3168.98 443.993C3159.38 439.511 3148.17 437.269 3135.36 437.269ZM3603.16 634.185C3603.16 628.208 3601.77 622.872 3598.99 618.176C3596.43 613.48 3592.06 608.997 3585.87 604.728C3579.25 600.885 3570.6 597.257 3559.93 593.841C3549.26 590.426 3535.92 587.224 3519.91 584.236C3499.84 580.18 3481.49 575.164 3464.84 569.187C3448.4 563.21 3434.2 555.952 3422.25 547.414C3410.51 539.303 3401.33 529.697 3394.71 518.597C3388.1 507.497 3384.79 494.583 3384.79 479.854C3384.79 465.766 3388.1 452.425 3394.71 439.831C3401.55 427.023 3411.26 415.817 3423.85 406.211C3436.23 396.606 3451.17 389.028 3468.68 383.478C3486.39 377.928 3506.03 375.153 3527.59 375.153C3550.65 375.153 3571.35 378.035 3589.71 383.798C3608.07 389.348 3623.65 397.033 3636.46 406.852C3649.05 416.671 3658.76 428.304 3665.59 441.752C3672.42 455.2 3675.84 469.715 3675.84 485.298H3599.31C3599.31 478.894 3597.93 472.81 3595.15 467.047C3592.59 461.07 3588.75 455.734 3583.63 451.038C3577.65 445.488 3569.96 441.112 3560.57 437.91C3551.18 434.495 3540.19 432.787 3527.59 432.787C3516.07 432.787 3505.93 434.068 3497.17 436.629C3488.64 438.977 3481.59 442.286 3476.04 446.555C3470.49 450.397 3466.33 454.987 3463.55 460.323C3460.78 465.446 3459.39 470.889 3459.39 476.653C3459.39 482.629 3460.57 488.073 3462.91 492.982C3465.26 497.678 3469.42 501.841 3475.4 505.469C3480.95 509.312 3488.64 512.834 3498.46 516.036C3508.49 519.238 3521.08 522.119 3536.24 524.681C3557.37 528.523 3576.69 533.219 3594.19 538.769C3611.69 544.319 3626.64 551.15 3639.02 559.261C3651.4 567.799 3661 577.832 3667.83 589.359C3674.67 600.885 3678.08 614.547 3678.08 630.343C3678.08 645.712 3674.45 659.8 3667.19 672.608C3660.15 685.415 3650.12 696.408 3637.1 705.587C3623.86 714.766 3608.07 721.916 3589.71 727.039C3571.35 732.162 3550.97 734.724 3528.55 734.724C3503.58 734.724 3481.38 731.415 3461.95 724.798C3442.74 718.181 3426.63 709.429 3413.61 698.543C3400.37 687.87 3390.34 675.596 3383.51 661.721C3376.68 647.846 3373.26 633.758 3373.26 619.456H3447.55C3448.19 630.129 3450.96 639.201 3455.87 646.672C3460.99 653.93 3467.4 659.8 3475.08 664.283C3482.55 668.979 3491.09 672.394 3500.7 674.529C3510.3 676.45 3520.01 677.41 3529.83 677.41C3543.07 677.41 3554.59 676.023 3564.41 673.248C3574.45 670.473 3582.45 666.737 3588.43 662.041C3593.34 658.199 3596.97 654.037 3599.31 649.554C3601.88 644.858 3603.16 639.735 3603.16 634.185ZM3924.31 297.027V381.557H4054.62V438.87H3924.31V604.408C3924.31 617.215 3925.8 627.995 3928.79 636.746C3931.99 645.285 3936.37 652.009 3941.92 656.918C3947.47 662.041 3954.08 665.67 3961.77 667.805C3969.45 669.939 3977.88 671.007 3987.06 671.007C3993.68 671.007 4000.51 670.686 4007.55 670.046C4014.6 669.406 4021.43 668.552 4028.05 667.485C4034.45 666.631 4040.43 665.67 4045.98 664.603C4051.74 663.322 4056.54 662.255 4060.38 661.401L4068.71 714.232C4063.16 717.647 4056.44 720.636 4048.54 723.197C4040.85 725.545 4032.53 727.573 4023.56 729.281C4014.6 730.988 4005.21 732.269 3995.39 733.123C3985.78 734.19 3976.18 734.724 3966.57 734.724C3949.07 734.724 3932.95 732.376 3918.22 727.68C3903.71 722.77 3891.22 715.192 3880.76 704.946C3870.3 694.914 3862.08 682 3856.11 666.204C3850.34 650.408 3847.46 631.41 3847.46 609.21V438.87H3763.57V381.557H3847.46V297.027H3924.31ZM4403.95 375.153C4416.33 375.153 4428.28 376.007 4439.81 377.715C4451.55 379.422 4460.73 381.45 4467.34 383.798L4456.46 459.362C4444.72 456.801 4433.08 454.88 4421.56 453.599C4410.24 452.318 4398.93 451.678 4387.62 451.678C4374.81 451.678 4363.28 452.959 4353.04 455.52C4342.79 458.082 4333.72 462.031 4325.82 467.367C4317.28 472.49 4310.02 479.001 4304.05 486.899C4298.07 494.797 4293.05 503.869 4289 514.115V728H4212.47V381.557H4284.2L4287.4 429.585L4287.72 437.59C4301.81 418.165 4318.67 402.903 4338.31 391.803C4358.16 380.703 4380.04 375.153 4403.95 375.153ZM4779.53 728C4777.18 723.731 4775.26 718.608 4773.76 712.631C4772.48 706.441 4771.31 700.037 4770.24 693.42C4764.9 698.97 4758.82 704.306 4751.99 709.429C4745.37 714.339 4737.9 718.608 4729.58 722.237C4721.25 726.079 4712.29 729.067 4702.68 731.202C4693.08 733.336 4682.72 734.404 4671.62 734.404C4653.69 734.404 4637.26 731.842 4622.31 726.719C4607.59 721.383 4594.99 714.125 4584.53 704.946C4573.86 695.981 4565.53 685.202 4559.56 672.608C4553.79 659.8 4550.91 646.032 4550.91 631.303C4550.91 612.305 4554.65 595.549 4562.12 581.034C4569.8 566.305 4580.9 554.138 4595.42 544.532C4608.87 535.567 4625.41 528.736 4645.05 524.04C4664.9 519.344 4687.31 516.996 4712.29 516.996H4768V493.623C4768 484.657 4766.4 476.546 4763.2 469.288C4760.21 462.031 4755.83 455.734 4750.07 450.397C4743.88 445.061 4736.3 441.005 4727.34 438.23C4718.58 435.242 4708.44 433.747 4696.92 433.747C4686.46 433.747 4677.28 435.028 4669.38 437.59C4661.7 440.151 4655.29 443.673 4650.17 448.156C4645.05 452.212 4641.21 457.228 4638.64 463.205C4636.3 468.968 4635.12 475.158 4635.12 481.776H4558.28C4558.49 467.901 4561.8 454.56 4568.2 441.752C4574.61 428.945 4584 417.631 4596.38 407.812C4608.33 397.78 4623.06 389.882 4640.57 384.118C4658.28 378.141 4678.45 375.153 4701.08 375.153C4721.36 375.153 4740.25 377.715 4757.75 382.838C4775.47 387.747 4790.73 395.111 4803.54 404.931C4816.35 414.75 4826.38 427.237 4833.64 442.393C4840.9 457.335 4844.52 474.625 4844.52 494.263V648.273C4844.52 663.856 4845.59 677.944 4847.73 690.538C4850.07 702.919 4853.38 713.592 4857.65 722.557V728H4779.53ZM4686.35 672.928C4696.38 672.928 4705.67 671.647 4714.21 669.085C4722.96 666.524 4730.86 663.215 4737.9 659.16C4744.95 655.104 4751.03 650.515 4756.15 645.392C4761.28 640.269 4765.22 634.932 4768 629.382V565.345H4718.69C4702.04 565.345 4687.63 566.946 4675.47 570.147C4663.3 573.136 4653.59 577.512 4646.33 583.275C4639.92 588.185 4635.12 594.055 4631.92 600.885C4628.93 607.716 4627.44 615.401 4627.44 623.939C4627.44 630.983 4628.72 637.6 4631.28 643.791C4633.84 649.767 4637.58 654.89 4642.49 659.16C4647.4 663.429 4653.48 666.844 4660.74 669.406C4667.99 671.754 4676.53 672.928 4686.35 672.928ZM4945.38 689.577C4945.38 677.624 4949.44 667.591 4957.55 659.48C4965.66 651.155 4976.66 646.992 4990.53 646.992C5004.62 646.992 5015.61 651.155 5023.51 659.48C5031.62 667.591 5035.68 677.624 5035.68 689.577C5035.68 701.531 5031.62 711.564 5023.51 719.675C5015.61 727.787 5004.62 731.842 4990.53 731.842C4976.66 731.842 4965.66 727.787 4957.55 719.675C4949.44 711.564 4945.38 701.531 4945.38 689.577ZM5359.07 620.737H5212.74L5181.04 728H5100.99L5252.76 261.807H5320.96L5470.17 728H5390.44L5359.07 620.737ZM5232.27 554.778H5340.18L5286.7 370.35L5232.27 554.778ZM5538.05 261.807H5812.77V325.524H5713.19V664.603H5812.77V728H5538.05V664.603H5635.39V325.524H5538.05V261.807Z" fill="black"/>
<path d="M1632.08 620.737L1634.96 619.895L1634.33 617.737H1632.08V620.737ZM1485.75 620.737V617.737H1483.51L1482.88 619.887L1485.75 620.737ZM1454.06 728V731H1456.3L1456.93 728.85L1454.06 728ZM1374.01 728L1371.16 727.071L1369.88 731H1374.01V728ZM1525.78 261.807V258.807H1523.6L1522.93 260.878L1525.78 261.807ZM1593.98 261.807L1596.84 260.892L1596.17 258.807H1593.98V261.807ZM1743.19 728V731H1747.3L1746.04 727.086L1743.19 728ZM1663.46 728L1660.58 728.842L1661.21 731H1663.46V728ZM1505.29 554.778L1502.41 553.929L1501.27 557.778H1505.29V554.778ZM1613.19 554.778V557.778H1617.18L1616.07 553.943L1613.19 554.778ZM1559.72 370.35L1562.6 369.515L1559.74 359.665L1556.84 369.501L1559.72 370.35ZM1632.08 620.737V617.737H1485.75V620.737V623.737H1632.08V620.737ZM1485.75 620.737L1482.88 619.887L1451.18 727.15L1454.06 728L1456.93 728.85L1488.63 621.587L1485.75 620.737ZM1454.06 728V725H1374.01V728V731H1454.06V728ZM1374.01 728L1376.86 728.929L1528.63 262.735L1525.78 261.807L1522.93 260.878L1371.16 727.071L1374.01 728ZM1525.78 261.807V264.807H1593.98V261.807V258.807H1525.78V261.807ZM1593.98 261.807L1591.12 262.721L1740.33 728.914L1743.19 728L1746.04 727.086L1596.84 260.892L1593.98 261.807ZM1743.19 728V725H1663.46V728V731H1743.19V728ZM1663.46 728L1666.34 727.158L1634.96 619.895L1632.08 620.737L1629.2 621.579L1660.58 728.842L1663.46 728ZM1505.29 554.778V557.778H1613.19V554.778V551.778H1505.29V554.778ZM1613.19 554.778L1616.07 553.943L1562.6 369.515L1559.72 370.35L1556.84 371.186L1610.31 555.614L1613.19 554.778ZM1559.72 370.35L1556.84 369.501L1502.41 553.929L1505.29 554.778L1508.16 555.628L1562.6 371.199L1559.72 370.35ZM2076.82 377.715L2076.38 380.682L2076.39 380.683L2076.82 377.715ZM2104.36 383.798L2107.33 384.226L2107.68 381.793L2105.36 380.971L2104.36 383.798ZM2093.47 459.362L2092.83 462.293L2095.98 462.981L2096.44 459.79L2093.47 459.362ZM2058.57 453.599L2058.23 456.58L2058.24 456.581L2058.57 453.599ZM1962.83 467.367L1964.38 469.94L1964.45 469.898L1964.51 469.853L1962.83 467.367ZM1926.01 514.115L1923.22 513.01L1923.01 513.542V514.115H1926.01ZM1926.01 728V731H1929.01V728H1926.01ZM1849.49 728H1846.49V731H1849.49V728ZM1849.49 381.557V378.557H1846.49V381.557H1849.49ZM1921.21 381.557L1924.2 381.357L1924.02 378.557H1921.21V381.557ZM1924.41 429.585L1927.41 429.465L1927.41 429.425L1927.41 429.385L1924.41 429.585ZM1924.73 437.59L1921.73 437.71L1922.08 446.356L1927.16 439.351L1924.73 437.59ZM1975.32 391.803L1973.86 389.184L1973.85 389.191L1975.32 391.803ZM2040.96 375.153V378.153C2053.2 378.153 2065.01 378.997 2076.38 380.682L2076.82 377.715L2077.26 374.747C2065.58 373.016 2053.48 372.153 2040.96 372.153V375.153ZM2076.82 377.715L2076.39 380.683C2088.05 382.379 2097.01 384.373 2103.35 386.625L2104.36 383.798L2105.36 380.971C2098.47 378.527 2089.07 376.465 2077.25 374.746L2076.82 377.715ZM2104.36 383.798L2101.39 383.37L2090.5 458.935L2093.47 459.362L2096.44 459.79L2107.33 384.226L2104.36 383.798ZM2093.47 459.362L2094.11 456.431C2082.27 453.848 2070.54 451.91 2058.9 450.617L2058.57 453.599L2058.24 456.581C2069.66 457.85 2081.19 459.753 2092.83 462.293L2093.47 459.362ZM2058.57 453.599L2058.91 450.618C2047.48 449.325 2036.06 448.678 2024.63 448.678V451.678V454.678C2035.83 454.678 2047.03 455.312 2058.23 456.58L2058.57 453.599ZM2024.63 451.678V448.678C2011.63 448.678 1999.85 449.978 1989.32 452.61L1990.05 455.52L1990.78 458.431C2000.74 455.94 2012.02 454.678 2024.63 454.678V451.678ZM1990.05 455.52L1989.32 452.61C1978.77 455.247 1969.37 459.329 1961.16 464.881L1962.83 467.367L1964.51 469.853C1972.09 464.733 1980.84 460.916 1990.78 458.431L1990.05 455.52ZM1962.83 467.367L1961.29 464.795C1952.43 470.114 1944.88 476.883 1938.67 485.088L1941.06 486.899L1943.45 488.709C1949.2 481.119 1956.17 474.866 1964.38 469.94L1962.83 467.367ZM1941.06 486.899L1938.67 485.088C1932.51 493.225 1927.37 502.54 1923.22 513.01L1926.01 514.115L1928.8 515.219C1932.77 505.197 1937.66 496.368 1943.45 488.709L1941.06 486.899ZM1926.01 514.115H1923.01V728H1926.01H1929.01V514.115H1926.01ZM1926.01 728V725H1849.49V728V731H1926.01V728ZM1849.49 728H1852.49V381.557H1849.49H1846.49V728H1849.49ZM1849.49 381.557V384.557H1921.21V381.557V378.557H1849.49V381.557ZM1921.21 381.557L1918.22 381.756L1921.42 429.785L1924.41 429.585L1927.41 429.385L1924.2 381.357L1921.21 381.557ZM1924.41 429.585L1921.41 429.705L1921.73 437.71L1924.73 437.59L1927.73 437.47L1927.41 429.465L1924.41 429.585ZM1924.73 437.59L1927.16 439.351C1941.01 420.252 1957.56 405.289 1976.8 394.415L1975.32 391.803L1973.85 389.191C1953.81 400.516 1936.63 416.078 1922.3 435.828L1924.73 437.59ZM1975.32 391.803L1976.79 394.421C1996.17 383.585 2017.54 378.153 2040.96 378.153V375.153V372.153C2016.57 372.153 1994.18 377.821 1973.86 389.184L1975.32 391.803ZM2373.64 668.765L2374.54 671.625L2374.56 671.618L2374.58 671.611L2373.64 668.765ZM2397.33 656.278L2399.18 658.642L2399.19 658.628L2399.21 658.613L2397.33 656.278ZM2413.02 637.387L2410.4 635.923L2410.38 635.953L2410.37 635.983L2413.02 637.387ZM2419.1 613.373V610.373H2416.1V613.373H2419.1ZM2491.14 613.373L2494.14 613.335L2494.11 610.373H2491.14V613.373ZM2479.62 661.081L2476.97 659.679L2476.96 659.686L2476.96 659.693L2479.62 661.081ZM2448.24 699.183L2446.36 696.848L2446.34 696.859L2446.33 696.869L2448.24 699.183ZM2401.81 725.438L2402.82 728.263L2402.83 728.259L2402.84 728.256L2401.81 725.438ZM2276.94 720.956L2275.66 723.668L2275.67 723.676L2275.69 723.684L2276.94 720.956ZM2227.31 683.174L2229.61 681.247L2229.6 681.238L2229.59 681.229L2227.31 683.174ZM2196.89 628.101L2194.04 629.024L2194.04 629.033L2196.89 628.101ZM2196.57 482.096L2193.72 481.173L2193.71 481.186L2193.71 481.199L2196.57 482.096ZM2276.94 389.241L2278.2 391.964L2278.21 391.958L2276.94 389.241ZM2404.69 384.759L2403.67 387.58L2403.68 387.584L2404.69 384.759ZM2480.58 452.959L2477.83 454.167L2477.84 454.182L2477.85 454.197L2480.58 452.959ZM2491.14 505.79V508.79H2494.11L2494.14 505.823L2491.14 505.79ZM2419.1 505.79H2416.1V508.79H2419.1V505.79ZM2413.66 479.214L2410.88 480.353L2410.9 480.383L2410.91 480.413L2413.66 479.214ZM2398.93 457.441L2401.02 455.284L2401 455.267L2400.98 455.251L2398.93 457.441ZM2375.24 442.713L2374.11 445.494L2374.12 445.498L2374.13 445.503L2375.24 442.713ZM2306.08 447.195L2307.64 449.754L2307.65 449.749L2307.66 449.745L2306.08 447.195ZM2281.1 472.49L2283.64 474.094L2283.66 474.056L2283.68 474.018L2281.1 472.49ZM2267.01 508.351L2264.08 507.745L2264.07 507.767L2264.07 507.79L2267.01 508.351ZM2267.01 602.166L2264.06 602.719L2264.07 602.746L2264.08 602.772L2267.01 602.166ZM2280.78 637.707L2283.38 636.202L2283.35 636.159L2283.33 636.117L2280.78 637.707ZM2306.08 663.322L2304.53 665.895L2306.08 663.322ZM2346.1 672.928V675.928C2356 675.928 2365.48 674.497 2374.54 671.625L2373.64 668.765L2372.73 665.906C2364.28 668.583 2355.41 669.928 2346.1 669.928V672.928ZM2373.64 668.765L2374.58 671.611C2383.84 668.524 2392.05 664.207 2399.18 658.642L2397.33 656.278L2395.48 653.914C2388.94 659.021 2381.36 663.029 2372.69 665.919L2373.64 668.765ZM2397.33 656.278L2399.21 658.613C2406.14 653.031 2411.63 646.42 2415.67 638.791L2413.02 637.387L2410.37 635.983C2406.72 642.869 2401.76 648.852 2395.45 653.943L2397.33 656.278ZM2413.02 637.387L2415.64 638.85C2419.96 631.122 2422.1 622.609 2422.1 613.373H2419.1H2416.1C2416.1 621.64 2414.19 629.137 2410.4 635.923L2413.02 637.387ZM2419.1 613.373V616.373H2491.14V613.373V610.373H2419.1V613.373ZM2491.14 613.373L2488.14 613.411C2488.35 629.771 2484.63 645.179 2476.97 659.679L2479.62 661.081L2482.27 662.483C2490.4 647.098 2494.36 630.701 2494.14 613.335L2491.14 613.373ZM2479.62 661.081L2476.96 659.693C2469.47 674.047 2459.28 686.428 2446.36 696.848L2448.24 699.183L2450.12 701.518C2463.67 690.593 2474.4 677.572 2482.28 662.468L2479.62 661.081ZM2448.24 699.183L2446.33 696.869C2433.16 707.738 2417.99 716.326 2400.78 722.621L2401.81 725.438L2402.84 728.256C2420.64 721.743 2436.42 712.828 2450.15 701.497L2448.24 699.183ZM2401.81 725.438L2400.8 722.614C2383.85 728.683 2365.94 731.724 2347.06 731.724V734.724V737.724C2366.6 737.724 2385.19 734.575 2402.82 728.263L2401.81 725.438ZM2347.06 734.724V731.724C2320.72 731.724 2297.79 727.194 2278.19 718.228L2276.94 720.956L2275.69 723.684C2296.22 733.075 2320.04 737.724 2347.06 737.724V734.724ZM2276.94 720.956L2278.22 718.244C2258.74 709.025 2242.55 696.689 2229.61 681.247L2227.31 683.174L2225.01 685.1C2238.54 701.25 2255.44 714.103 2275.66 723.668L2276.94 720.956ZM2227.31 683.174L2229.59 681.229C2216.41 665.748 2206.46 647.74 2199.74 627.17L2196.89 628.101L2194.04 629.033C2200.98 650.3 2211.31 669.007 2225.03 685.118L2227.31 683.174ZM2196.89 628.101L2199.75 627.179C2193.02 606.366 2189.65 584.16 2189.65 560.542H2186.65H2183.65C2183.65 584.738 2187.1 607.572 2194.04 629.024L2196.89 628.101ZM2186.65 560.542H2189.65V549.335H2186.65H2183.65V560.542H2186.65ZM2186.65 549.335H2189.65C2189.65 525.924 2192.91 503.815 2199.43 482.992L2196.57 482.096L2193.71 481.199C2186.99 502.641 2183.65 525.359 2183.65 549.335H2186.65ZM2196.57 482.096L2199.43 483.018C2206.14 462.234 2216.1 444.123 2229.27 428.648L2226.99 426.703L2224.71 424.759C2210.98 440.875 2200.66 459.693 2193.72 481.173L2196.57 482.096ZM2226.99 426.703L2229.27 428.648C2242.43 413.201 2258.72 400.971 2278.2 391.964L2276.94 389.241L2275.68 386.518C2255.46 395.869 2238.45 408.614 2224.71 424.759L2226.99 426.703ZM2276.94 389.241L2278.21 391.958C2297.81 382.785 2320.63 378.153 2346.74 378.153V375.153V372.153C2319.92 372.153 2296.2 376.913 2275.67 386.524L2276.94 389.241ZM2346.74 375.153V378.153C2367.35 378.153 2386.32 381.307 2403.67 387.58L2404.69 384.759L2405.71 381.937C2387.64 375.403 2367.97 372.153 2346.74 372.153V375.153ZM2404.69 384.759L2403.68 387.584C2421.29 393.87 2436.31 402.645 2448.79 413.884L2450.8 411.654L2452.81 409.425C2439.68 397.61 2423.96 388.455 2405.7 381.933L2404.69 384.759ZM2450.8 411.654L2448.79 413.884C2461.28 425.122 2470.96 438.541 2477.83 454.167L2480.58 452.959L2483.32 451.75C2476.11 435.358 2465.94 421.24 2452.81 409.425L2450.8 411.654ZM2480.58 452.959L2477.85 454.197C2484.91 469.771 2488.35 486.942 2488.14 505.756L2491.14 505.79L2494.14 505.823C2494.36 486.215 2490.77 468.165 2483.31 451.72L2480.58 452.959ZM2491.14 505.79V502.79H2419.1V505.79V508.79H2491.14V505.79ZM2419.1 505.79H2422.1C2422.1 495.999 2420.21 486.731 2416.41 478.015L2413.66 479.214L2410.91 480.413C2414.37 488.347 2416.1 496.796 2416.1 505.79H2419.1ZM2413.66 479.214L2416.43 478.075C2412.86 469.371 2407.72 461.766 2401.02 455.284L2398.93 457.441L2396.85 459.598C2402.95 465.497 2407.62 472.407 2410.88 480.353L2413.66 479.214ZM2398.93 457.441L2400.98 455.251C2394.06 448.781 2385.84 443.678 2376.34 439.923L2375.24 442.713L2374.13 445.503C2382.99 449.005 2390.56 453.721 2396.88 459.632L2398.93 457.441ZM2375.24 442.713L2376.36 439.932C2367.01 436.147 2356.91 434.27 2346.1 434.27V437.27V440.27C2356.2 440.27 2365.53 442.021 2374.11 445.494L2375.24 442.713ZM2346.1 437.27V434.27C2329.68 434.27 2315.76 437.663 2304.5 444.646L2306.08 447.195L2307.66 449.745C2317.74 443.493 2330.5 440.27 2346.1 440.27V437.27ZM2306.08 447.195L2304.51 444.637C2293.64 451.294 2284.96 460.078 2278.52 470.962L2281.1 472.49L2283.68 474.018C2289.62 463.984 2297.6 455.904 2307.64 449.754L2306.08 447.195ZM2281.1 472.49L2278.57 470.886C2271.74 481.683 2266.92 493.982 2264.08 507.745L2267.01 508.351L2269.95 508.957C2272.66 495.825 2277.23 484.216 2283.64 474.094L2281.1 472.49ZM2267.01 508.351L2264.07 507.79C2261.47 521.425 2260.17 535.275 2260.17 549.335H2263.17H2266.17C2266.17 535.646 2267.43 522.173 2269.96 508.913L2267.01 508.351ZM2263.17 549.335H2260.17V560.542H2263.17H2266.17V549.335H2263.17ZM2263.17 560.542H2260.17C2260.17 574.813 2261.47 588.873 2264.06 602.719L2267.01 602.166L2269.96 601.613C2267.43 588.137 2266.17 574.447 2266.17 560.542H2263.17ZM2267.01 602.166L2264.08 602.772C2266.91 616.522 2271.62 628.711 2278.24 639.297L2280.78 637.707L2283.33 636.117C2277.13 626.211 2272.66 614.706 2269.95 601.56L2267.01 602.166ZM2280.78 637.707L2278.19 639.212C2284.63 650.328 2293.43 659.232 2304.53 665.895L2306.08 663.322L2307.62 660.75C2297.38 654.605 2289.31 646.432 2283.38 636.202L2280.78 637.707ZM2306.08 663.322L2304.53 665.895C2315.79 672.647 2329.7 675.928 2346.1 675.928V672.928V669.928C2330.48 669.928 2317.71 666.804 2307.62 660.75L2306.08 663.322ZM2665.65 430.866H2662.65V440.905L2668.16 432.512L2665.65 430.866ZM2698.31 396.926L2700.01 399.395L2700.05 399.371L2700.08 399.345L2698.31 396.926ZM2730 380.916L2730.91 383.778L2730.92 383.773L2730.94 383.768L2730 380.916ZM2816.78 383.158L2815.77 385.983L2815.78 385.987L2816.78 383.158ZM2855.52 408.132L2857.7 406.074L2855.52 408.132ZM2880.17 451.678L2877.32 452.606L2877.33 452.627L2877.33 452.647L2880.17 451.678ZM2889.14 728V731H2892.14V728H2889.14ZM2812.61 728H2809.61V731H2812.61V728ZM2807.81 480.495L2804.95 481.386L2804.95 481.415L2804.96 481.444L2807.81 480.495ZM2794.36 457.121L2792.21 459.206L2792.22 459.224L2792.24 459.242L2794.36 457.121ZM2771.63 443.033L2770.6 445.85L2770.64 445.865L2770.68 445.879L2771.63 443.033ZM2715.6 441.432L2714.83 438.531L2714.82 438.533L2714.81 438.536L2715.6 441.432ZM2693.82 450.717L2695.32 453.316L2695.36 453.296L2695.39 453.275L2693.82 450.717ZM2678.13 462.244L2676.11 460.029L2676.09 460.051L2676.06 460.074L2678.13 462.244ZM2665.65 477.293L2663.14 475.651L2662.65 476.399V477.293H2665.65ZM2665.65 728V731H2668.65V728H2665.65ZM2589.12 728H2586.12V731H2589.12V728ZM2589.12 236.192V233.192H2586.12V236.192H2589.12ZM2665.65 236.192H2668.65V233.192H2665.65V236.192ZM2665.65 430.866L2668.16 432.512C2672.54 425.833 2677.44 419.682 2682.86 414.056L2680.7 411.975L2678.53 409.894C2672.85 415.794 2667.72 422.237 2663.14 429.22L2665.65 430.866ZM2680.7 411.975L2682.86 414.056C2688.28 408.428 2693.99 403.544 2700.01 399.395L2698.31 396.926L2696.6 394.456C2690.24 398.846 2684.22 403.995 2678.53 409.894L2680.7 411.975ZM2698.31 396.926L2700.08 399.345C2709.42 392.498 2719.69 387.31 2730.91 383.778L2730 380.916L2729.1 378.055C2717.27 381.781 2706.41 387.265 2696.53 394.507L2698.31 396.926ZM2730 380.916L2730.94 383.768C2742.36 380.029 2754.43 378.153 2767.15 378.153V375.153V372.153C2753.83 372.153 2741.13 374.119 2729.07 378.065L2730 380.916ZM2767.15 375.153V378.153C2785 378.153 2801.19 380.777 2815.77 385.983L2816.78 383.158L2817.78 380.333C2802.48 374.865 2785.59 372.153 2767.15 372.153V375.153ZM2816.78 383.158L2815.78 385.987C2830.5 391.171 2843 399.237 2853.34 410.191L2855.52 408.132L2857.7 406.074C2846.69 394.401 2833.36 385.818 2817.77 380.328L2816.78 383.158ZM2855.52 408.132L2853.34 410.191C2863.65 421.124 2871.67 435.228 2877.32 452.606L2880.17 451.678L2883.03 450.75C2877.15 432.693 2868.73 417.767 2857.7 406.074L2855.52 408.132ZM2880.17 451.678L2877.33 452.647C2883.18 469.756 2886.14 490.436 2886.14 514.755H2889.14H2892.14C2892.14 489.979 2889.12 468.607 2883.01 450.709L2880.17 451.678ZM2889.14 514.755H2886.14V728H2889.14H2892.14V514.755H2889.14ZM2889.14 728V725H2812.61V728V731H2889.14V728ZM2812.61 728H2815.61V514.115H2812.61H2809.61V728H2812.61ZM2812.61 514.115H2815.61C2815.61 501.066 2813.98 489.526 2810.66 479.546L2807.81 480.495L2804.96 481.444C2808.04 490.675 2809.61 501.548 2809.61 514.115H2812.61ZM2807.81 480.495L2810.67 479.604C2807.57 469.622 2802.86 461.38 2796.48 455L2794.36 457.121L2792.24 459.242C2797.81 464.816 2802.07 472.157 2804.95 481.386L2807.81 480.495ZM2794.36 457.121L2796.52 455.036C2789.97 448.264 2781.97 443.318 2772.58 440.187L2771.63 443.033L2770.68 445.879C2779.22 448.724 2786.37 453.171 2792.21 459.206L2794.36 457.121ZM2771.63 443.033L2772.66 440.216C2763.51 436.868 2753.01 435.23 2741.21 435.23V438.23V441.23C2752.47 441.23 2762.24 442.794 2770.6 445.85L2771.63 443.033ZM2741.21 438.23V435.23C2732.01 435.23 2723.21 436.326 2714.83 438.531L2715.6 441.432L2716.36 444.333C2724.21 442.268 2732.49 441.23 2741.21 441.23V438.23ZM2715.6 441.432L2714.81 438.536C2706.65 440.741 2699.13 443.946 2692.26 448.16L2693.82 450.717L2695.39 453.275C2701.75 449.377 2708.74 446.392 2716.38 444.328L2715.6 441.432ZM2693.82 450.717L2692.32 448.119C2686.58 451.433 2681.18 455.405 2676.11 460.029L2678.13 462.244L2680.16 464.46C2684.91 460.118 2689.97 456.405 2695.32 453.316L2693.82 450.717ZM2678.13 462.244L2676.06 460.074C2671.2 464.719 2666.89 469.913 2663.14 475.651L2665.65 477.293L2668.16 478.935C2671.66 473.573 2675.68 468.735 2680.21 464.414L2678.13 462.244ZM2665.65 477.293H2662.65V728H2665.65H2668.65V477.293H2665.65ZM2665.65 728V725H2589.12V728V731H2665.65V728ZM2589.12 728H2592.12V236.192H2589.12H2586.12V728H2589.12ZM2589.12 236.192V239.192H2665.65V236.192V233.192H2589.12V236.192ZM2665.65 236.192H2662.65V430.866H2665.65H2668.65V236.192H2665.65ZM3074.21 721.596L3073.08 724.378L3073.09 724.382L3074.21 721.596ZM3019.77 686.055L3021.9 683.934L3021.89 683.927L3021.88 683.919L3019.77 686.055ZM2984.55 633.224L2981.76 634.329L2981.77 634.346L2981.78 634.364L2984.55 633.224ZM2985.19 480.175L2982.4 479.089L2985.19 480.175ZM3020.41 423.822L3018.25 421.745L3020.41 423.822ZM3072.29 387.961L3073.46 390.723L3073.46 390.72L3073.47 390.716L3072.29 387.961ZM3201.96 387.961L3200.74 390.702L3200.76 390.708L3200.77 390.713L3201.96 387.961ZM3250.31 422.861L3252.59 420.906L3252.58 420.898L3252.57 420.89L3250.31 422.861ZM3279.77 476.973L3276.91 477.878L3279.77 476.973ZM3289.69 578.472V581.472H3292.69V578.472H3289.69ZM3049.55 578.472V575.472H3046.55V578.472H3049.55ZM3049.55 580.073H3046.55V580.304L3046.59 580.533L3049.55 580.073ZM3060.44 618.176L3063.14 616.879L3060.44 618.176ZM3080.61 645.712L3082.73 643.59L3082.7 643.563L3082.68 643.537L3080.61 645.712ZM3110.71 665.563L3109.58 668.342L3109.58 668.345L3109.59 668.349L3110.71 665.563ZM3202.28 661.721L3203.49 664.466L3203.51 664.459L3203.52 664.452L3202.28 661.721ZM3242.95 630.023L3245.03 627.868L3242.64 625.546L3240.58 628.176L3242.95 630.023ZM3283.93 669.726L3286.4 671.433L3287.84 669.341L3286.02 667.571L3283.93 669.726ZM3230.78 714.552L3229.33 711.927L3229.32 711.933L3230.78 714.552ZM3104.94 443.353L3106.1 446.12L3106.12 446.114L3106.13 446.107L3104.94 443.353ZM3080.29 460.003L3078.17 457.882L3078.15 457.897L3078.14 457.912L3080.29 460.003ZM3062.04 486.899L3064.76 488.173L3062.04 486.899ZM3051.15 522.439L3048.2 521.915L3047.57 525.439H3051.15V522.439ZM3214.13 522.439V525.439H3217.13V522.439H3214.13ZM3208.69 487.539L3205.86 488.559L3205.87 488.569L3205.87 488.579L3208.69 487.539ZM3193.32 461.284L3191.07 463.268L3191.07 463.273L3193.32 461.284ZM3168.98 443.993L3167.71 446.712L3167.75 446.729L3167.79 446.745L3168.98 443.993ZM3144.65 734.404V731.404C3119.37 731.404 3096.27 727.192 3075.32 718.811L3074.21 721.596L3073.09 724.382C3094.83 733.077 3118.69 737.404 3144.65 737.404V734.404ZM3074.21 721.596L3075.33 718.815C3054.55 710.418 3036.75 698.787 3021.9 683.934L3019.77 686.055L3017.65 688.177C3033.11 703.635 3051.6 715.698 3073.08 724.378L3074.21 721.596ZM3019.77 686.055L3021.88 683.919C3007.02 669.269 2995.51 652.001 2987.33 632.085L2984.55 633.224L2981.78 634.364C2990.25 655.005 3002.22 672.957 3017.67 688.192L3019.77 686.055ZM2984.55 633.224L2987.34 632.12C2979.38 612.005 2975.39 590.29 2975.39 566.946H2972.39H2969.39C2969.39 590.989 2973.5 613.459 2981.76 634.329L2984.55 633.224ZM2972.39 566.946H2975.39V553.818H2972.39H2969.39V566.946H2972.39ZM2972.39 553.818H2975.39C2975.39 527.025 2979.61 502.853 2987.99 481.261L2985.19 480.175L2982.4 479.089C2973.71 501.469 2969.39 526.392 2969.39 553.818H2972.39ZM2985.19 480.175L2987.99 481.261C2996.4 459.609 3007.94 441.17 3022.58 425.898L3020.41 423.822L3018.25 421.745C3003.01 437.638 2991.07 456.768 2982.4 479.089L2985.19 480.175ZM3020.41 423.822L3022.58 425.898C3037.24 410.605 3054.2 398.887 3073.46 390.723L3072.29 387.961L3071.11 385.199C3051.1 393.684 3033.47 405.873 3018.25 421.745L3020.41 423.822ZM3072.29 387.961L3073.47 390.716C3092.93 382.345 3113.66 378.153 3135.68 378.153V375.153V372.153C3112.88 372.153 3091.34 376.499 3071.1 385.205L3072.29 387.961ZM3135.68 375.153V378.153C3160.32 378.153 3181.98 382.363 3200.74 390.702L3201.96 387.961L3203.18 385.219C3183.52 376.481 3161 372.153 3135.68 372.153V375.153ZM3201.96 387.961L3200.77 390.713C3219.59 398.871 3235.34 410.246 3248.05 424.832L3250.31 422.861L3252.57 420.89C3239.24 405.592 3222.75 393.7 3203.15 385.208L3201.96 387.961ZM3250.31 422.861L3248.03 424.816C3260.77 439.636 3270.4 457.306 3276.91 477.878L3279.77 476.973L3282.63 476.068C3275.9 454.801 3265.89 436.398 3252.59 420.906L3250.31 422.861ZM3279.77 476.973L3276.91 477.878C3283.42 498.469 3286.69 521 3286.69 545.493H3289.69H3292.69C3292.69 520.464 3289.35 497.315 3282.63 476.068L3279.77 476.973ZM3289.69 545.493H3286.69V578.472H3289.69H3292.69V545.493H3289.69ZM3289.69 578.472V575.472H3049.55V578.472V581.472H3289.69V578.472ZM3049.55 578.472H3046.55V580.073H3049.55H3052.55V578.472H3049.55ZM3049.55 580.073L3046.59 580.533C3048.97 595.884 3052.66 608.887 3057.73 619.472L3060.44 618.176L3063.14 616.879C3058.4 606.972 3054.83 594.574 3052.52 579.614L3049.55 580.073ZM3060.44 618.176L3057.73 619.472C3062.81 630.059 3069.75 639.533 3078.54 647.887L3080.61 645.712L3082.68 643.537C3074.39 635.667 3067.89 626.784 3063.14 616.879L3060.44 618.176ZM3080.61 645.712L3078.49 647.833C3087.32 656.663 3097.69 663.499 3109.58 668.342L3110.71 665.563L3111.84 662.785C3100.67 658.235 3090.98 651.837 3082.73 643.59L3080.61 645.712ZM3110.71 665.563L3109.59 668.349C3121.72 673.2 3134.91 675.608 3149.13 675.608V672.608V669.608C3135.6 669.608 3123.17 667.319 3111.82 662.778L3110.71 665.563ZM3149.13 672.608V675.608C3168.52 675.608 3186.65 671.901 3203.49 664.466L3202.28 661.721L3201.07 658.977C3185.04 666.056 3167.74 669.608 3149.13 669.608V672.608ZM3202.28 661.721L3203.52 664.452C3220.38 656.79 3234.33 645.928 3245.31 631.869L3242.95 630.023L3240.58 628.176C3230.22 641.44 3217.06 651.71 3201.04 658.99L3202.28 661.721ZM3242.95 630.023L3240.86 632.177L3281.84 671.881L3283.93 669.726L3286.02 667.571L3245.03 627.868L3242.95 630.023ZM3283.93 669.726L3281.46 668.018C3270.27 684.18 3252.96 698.842 3229.33 711.927L3230.78 714.552L3232.23 717.177C3256.41 703.793 3274.53 688.572 3286.4 671.433L3283.93 669.726ZM3230.78 714.552L3229.32 711.933C3206.16 724.864 3177.98 731.404 3144.65 731.404V734.404V737.404C3178.76 737.404 3208 730.709 3232.24 717.171L3230.78 714.552ZM3135.36 437.27V434.27C3124.09 434.27 3113.55 436.371 3103.76 440.599L3104.94 443.353L3106.13 446.107C3115.13 442.224 3124.86 440.27 3135.36 440.27V437.27ZM3104.94 443.353L3103.79 440.586C3094.24 444.583 3085.69 450.357 3078.17 457.882L3080.29 460.003L3082.41 462.124C3089.4 455.134 3097.3 449.807 3106.1 446.12L3104.94 443.353ZM3080.29 460.003L3078.14 457.912C3070.62 465.647 3064.36 474.896 3059.32 485.624L3062.04 486.899L3064.76 488.173C3069.54 477.982 3075.44 469.301 3082.44 462.093L3080.29 460.003ZM3062.04 486.899L3059.32 485.624C3054.29 496.357 3050.59 508.463 3048.2 521.915L3051.15 522.439L3054.11 522.964C3056.42 509.947 3059.97 498.359 3064.76 488.173L3062.04 486.899ZM3051.15 522.439V525.439H3214.13V522.439V519.439H3051.15V522.439ZM3214.13 522.439H3217.13V517.316H3214.13H3211.13V522.439H3214.13ZM3214.13 517.316H3217.13C3217.13 506.914 3215.25 496.636 3211.5 486.499L3208.69 487.539L3205.87 488.579C3209.38 498.08 3211.13 507.654 3211.13 517.316H3214.13ZM3208.69 487.539L3211.51 486.519C3207.76 476.154 3202.45 467.068 3195.56 459.294L3193.32 461.284L3191.07 463.273C3197.42 470.441 3202.36 478.858 3205.86 488.559L3208.69 487.539ZM3193.32 461.284L3195.57 459.299C3188.84 451.678 3180.36 445.668 3170.18 441.242L3168.98 443.993L3167.79 446.745C3177.25 450.857 3184.98 456.374 3191.07 463.268L3193.32 461.284ZM3168.98 443.993L3170.25 441.275C3160.17 436.572 3148.52 434.27 3135.36 434.27V437.27V440.27C3147.82 440.27 3158.58 442.449 3167.71 446.712L3168.98 443.993ZM3598.99 618.176L3596.36 619.612L3596.39 619.657L3596.41 619.702L3598.99 618.176ZM3585.87 604.728L3587.57 602.258L3587.47 602.192L3587.37 602.133L3585.87 604.728ZM3519.91 584.236L3519.31 587.176L3519.34 587.181L3519.36 587.185L3519.91 584.236ZM3464.84 569.187L3463.81 572.006L3463.82 572.01L3464.84 569.187ZM3422.25 547.414L3423.99 544.973L3423.98 544.959L3423.96 544.946L3422.25 547.414ZM3394.71 439.831L3392.07 438.419L3392.06 438.427L3392.06 438.436L3394.71 439.831ZM3423.85 406.211L3425.67 408.597L3425.68 408.589L3425.69 408.582L3423.85 406.211ZM3468.68 383.478L3467.78 380.615L3467.77 380.618L3468.68 383.478ZM3589.71 383.798L3588.81 386.66L3588.83 386.665L3588.84 386.67L3589.71 383.798ZM3636.46 406.852L3638.3 404.486L3638.29 404.478L3638.28 404.471L3636.46 406.852ZM3675.84 485.298V488.298H3678.84V485.298H3675.84ZM3599.31 485.298H3596.31V488.298H3599.31V485.298ZM3595.15 467.047L3592.39 468.229L3592.42 468.289L3592.45 468.348L3595.15 467.047ZM3583.63 451.038L3581.58 453.236L3581.59 453.243L3581.6 453.249L3583.63 451.038ZM3560.57 437.91L3559.55 440.729L3559.57 440.74L3559.6 440.749L3560.57 437.91ZM3497.17 436.629L3497.97 439.522L3497.99 439.515L3498.02 439.508L3497.17 436.629ZM3476.04 446.555L3477.75 449.022L3477.81 448.979L3477.87 448.933L3476.04 446.555ZM3463.55 460.323L3466.19 461.752L3466.2 461.73L3466.22 461.707L3463.55 460.323ZM3462.91 492.982L3460.21 494.277L3460.22 494.3L3460.23 494.324L3462.91 492.982ZM3475.4 505.469L3477.11 503.003L3477.04 502.952L3476.96 502.905L3475.4 505.469ZM3498.46 516.036L3497.53 518.888L3497.53 518.891L3497.54 518.894L3498.46 516.036ZM3536.24 524.681L3536.77 521.729L3536.76 521.726L3536.74 521.723L3536.24 524.681ZM3639.02 559.261L3640.72 556.791L3640.69 556.771L3640.66 556.752L3639.02 559.261ZM3667.19 672.608L3664.58 671.128L3664.57 671.145L3664.57 671.162L3667.19 672.608ZM3637.1 705.587L3638.81 708.052L3638.82 708.045L3638.82 708.039L3637.1 705.587ZM3589.71 727.039L3588.9 724.15L3589.71 727.039ZM3461.95 724.798L3460.98 727.635L3460.99 727.638L3461.95 724.798ZM3413.61 698.543L3415.53 696.241L3415.51 696.224L3415.49 696.207L3413.61 698.543ZM3383.51 661.721L3380.82 663.046L3383.51 661.721ZM3373.26 619.456V616.456H3370.26V619.456H3373.26ZM3447.55 619.456L3450.54 619.277L3450.37 616.456H3447.55V619.456ZM3455.87 646.672L3453.36 648.32L3453.39 648.362L3453.42 648.402L3455.87 646.672ZM3475.08 664.283L3476.68 661.743L3476.64 661.716L3476.59 661.691L3475.08 664.283ZM3500.7 674.529L3500.05 677.457L3500.08 677.464L3500.11 677.47L3500.7 674.529ZM3564.41 673.248L3563.61 670.356L3563.61 670.359L3563.6 670.361L3564.41 673.248ZM3588.43 662.041L3586.58 659.679L3586.57 659.682L3588.43 662.041ZM3599.31 649.554L3596.68 648.117L3596.67 648.14L3596.66 648.162L3599.31 649.554ZM3603.16 634.185H3606.16C3606.16 627.724 3604.65 621.851 3601.58 616.649L3598.99 618.176L3596.41 619.702C3598.89 623.892 3600.16 628.692 3600.16 634.185H3603.16ZM3598.99 618.176L3601.63 616.739C3598.77 611.498 3594 606.692 3587.57 602.258L3585.87 604.728L3584.16 607.197C3590.11 611.301 3594.1 615.461 3596.36 619.612L3598.99 618.176ZM3585.87 604.728L3587.37 602.133C3580.5 598.145 3571.64 594.438 3560.85 590.984L3559.93 593.841L3559.02 596.699C3569.57 600.075 3577.99 603.626 3584.36 607.322L3585.87 604.728ZM3559.93 593.841L3560.85 590.984C3550.01 587.518 3536.54 584.289 3520.46 581.287L3519.91 584.236L3519.36 587.185C3535.29 590.159 3548.5 593.334 3559.02 596.699L3559.93 593.841ZM3519.91 584.236L3520.5 581.295C3500.56 577.264 3482.34 572.284 3465.85 566.363L3464.84 569.187L3463.82 572.01C3480.63 578.043 3499.13 583.096 3519.31 587.176L3519.91 584.236ZM3464.84 569.187L3465.86 566.367C3449.63 560.466 3435.69 553.327 3423.99 544.973L3422.25 547.414L3420.51 549.855C3432.72 558.578 3447.17 565.954 3463.81 572.006L3464.84 569.187ZM3422.25 547.414L3423.96 544.946C3412.53 537.053 3403.67 527.754 3397.29 517.061L3394.71 518.597L3392.14 520.133C3399 531.64 3408.49 541.552 3420.55 549.882L3422.25 547.414ZM3394.71 518.597L3397.29 517.061C3390.99 506.488 3387.79 494.119 3387.79 479.854H3384.79H3381.79C3381.79 495.047 3385.21 508.507 3392.14 520.133L3394.71 518.597ZM3384.79 479.854H3387.79C3387.79 466.257 3390.98 453.394 3397.37 441.226L3394.71 439.831L3392.06 438.436C3385.22 451.456 3381.79 465.275 3381.79 479.854H3384.79ZM3394.71 439.831L3397.36 441.243C3403.97 428.849 3413.39 417.965 3425.67 408.597L3423.85 406.211L3422.03 403.826C3409.13 413.669 3399.12 425.198 3392.07 438.419L3394.71 439.831ZM3423.85 406.211L3425.69 408.582C3437.75 399.226 3452.36 391.799 3469.58 386.338L3468.68 383.478L3467.77 380.618C3449.99 386.257 3434.72 393.985 3422.01 403.841L3423.85 406.211ZM3468.68 383.478L3469.57 386.341C3486.96 380.895 3506.29 378.153 3527.59 378.153V375.153V372.153C3505.78 372.153 3485.83 374.961 3467.78 380.615L3468.68 383.478ZM3527.59 375.153V378.153C3550.4 378.153 3570.79 381.004 3588.81 386.66L3589.71 383.798L3590.61 380.936C3571.91 375.065 3550.89 372.153 3527.59 372.153V375.153ZM3589.71 383.798L3588.84 386.67C3606.92 392.134 3622.16 399.67 3634.63 409.232L3636.46 406.852L3638.28 404.471C3625.14 394.395 3609.22 386.562 3590.58 380.927L3589.71 383.798ZM3636.46 406.852L3634.61 409.218C3646.88 418.782 3656.3 430.078 3662.92 443.111L3665.59 441.752L3668.27 440.394C3661.23 426.53 3651.22 414.559 3638.3 404.486L3636.46 406.852ZM3665.59 441.752L3662.92 443.111C3669.53 456.123 3672.84 470.171 3672.84 485.298H3675.84H3678.84C3678.84 469.259 3675.32 454.277 3668.27 440.394L3665.59 441.752ZM3675.84 485.298V482.298H3599.31V485.298V488.298H3675.84V485.298ZM3599.31 485.298H3602.31C3602.31 478.444 3600.83 471.915 3597.85 465.746L3595.15 467.047L3592.45 468.348C3595.03 473.705 3596.31 479.344 3596.31 485.298H3599.31ZM3595.15 467.047L3597.91 465.865C3595.17 459.471 3591.07 453.79 3585.65 448.826L3583.63 451.038L3581.6 453.249C3586.43 457.678 3590.01 462.669 3592.39 468.229L3595.15 467.047ZM3583.63 451.038L3585.67 448.839C3579.32 442.947 3571.25 438.379 3561.54 435.07L3560.57 437.91L3559.6 440.749C3568.68 443.844 3575.98 448.028 3581.58 453.236L3583.63 451.038ZM3560.57 437.91L3561.6 435.09C3551.8 431.529 3540.45 429.787 3527.59 429.787V432.787V435.787C3539.92 435.787 3550.56 437.46 3559.55 440.729L3560.57 437.91ZM3527.59 432.787V429.787C3515.85 429.787 3505.42 431.09 3496.33 433.75L3497.17 436.629L3498.02 439.508C3506.43 437.045 3516.28 435.787 3527.59 435.787V432.787ZM3497.17 436.629L3496.38 433.737C3487.56 436.161 3480.14 439.617 3474.21 444.177L3476.04 446.555L3477.87 448.933C3483.04 444.954 3489.71 441.793 3497.97 439.522L3497.17 436.629ZM3476.04 446.555L3474.33 444.088C3468.43 448.174 3463.92 453.119 3460.89 458.939L3463.55 460.323L3466.22 461.707C3468.74 456.854 3472.55 452.62 3477.75 449.022L3476.04 446.555ZM3463.55 460.323L3460.92 458.894C3457.91 464.451 3456.39 470.385 3456.39 476.653H3459.39H3462.39C3462.39 471.394 3463.65 466.441 3466.19 461.752L3463.55 460.323ZM3459.39 476.653H3456.39C3456.39 483.033 3457.65 488.924 3460.21 494.277L3462.91 492.982L3465.62 491.688C3463.48 487.221 3462.39 482.226 3462.39 476.653H3459.39ZM3462.91 492.982L3460.23 494.324C3462.9 499.667 3467.54 504.207 3473.84 508.034L3475.4 505.469L3476.96 502.905C3471.31 499.475 3467.62 495.689 3465.6 491.641L3462.91 492.982ZM3475.4 505.469L3473.69 507.936C3479.57 512.007 3487.56 515.638 3497.53 518.888L3498.46 516.036L3499.39 513.184C3489.71 510.029 3482.33 506.617 3477.11 503.003L3475.4 505.469ZM3498.46 516.036L3497.54 518.894C3507.76 522.153 3520.5 525.063 3535.74 527.639L3536.24 524.681L3536.74 521.723C3521.66 519.175 3509.22 516.322 3499.37 513.178L3498.46 516.036ZM3536.24 524.681L3535.7 527.632C3556.73 531.456 3575.92 536.123 3593.28 541.629L3594.19 538.769L3595.1 535.909C3577.46 530.315 3558.01 525.59 3536.77 521.729L3536.24 524.681ZM3594.19 538.769L3593.28 541.629C3610.59 547.115 3625.27 553.84 3637.37 561.77L3639.02 559.261L3640.66 556.752C3628.01 548.46 3612.8 541.523 3595.1 535.909L3594.19 538.769ZM3639.02 559.261L3637.31 561.731C3649.38 570.053 3658.67 579.778 3665.25 590.888L3667.83 589.359L3670.42 587.829C3663.34 575.886 3653.41 565.546 3640.72 556.791L3639.02 559.261ZM3667.83 589.359L3665.25 590.888C3671.76 601.875 3675.08 614.988 3675.08 630.343H3678.08H3681.08C3681.08 614.106 3677.57 599.896 3670.42 587.829L3667.83 589.359ZM3678.08 630.343H3675.08C3675.08 645.217 3671.57 658.792 3664.58 671.128L3667.19 672.608L3669.8 674.087C3677.33 660.808 3681.08 646.206 3681.08 630.343H3678.08ZM3667.19 672.608L3664.57 671.162C3657.76 683.535 3648.05 694.195 3635.37 703.135L3637.1 705.587L3638.82 708.039C3652.18 698.622 3662.54 687.295 3669.82 674.053L3667.19 672.608ZM3637.1 705.587L3635.39 703.122C3622.47 712.078 3606.99 719.101 3588.9 724.15L3589.71 727.039L3590.52 729.929C3609.14 724.732 3625.25 717.453 3638.81 708.052L3637.1 705.587ZM3589.71 727.039L3588.9 724.15C3570.85 729.188 3550.74 731.724 3528.55 731.724V734.724V737.724C3551.19 737.724 3571.85 735.137 3590.52 729.929L3589.71 727.039ZM3528.55 734.724V731.724C3503.84 731.724 3481.98 728.449 3462.92 721.958L3461.95 724.798L3460.99 727.638C3480.78 734.381 3503.32 737.724 3528.55 737.724V734.724ZM3461.95 724.798L3462.93 721.962C3444 715.441 3428.22 706.852 3415.53 696.241L3413.61 698.543L3411.68 700.844C3425.03 712.006 3441.49 720.921 3460.98 727.635L3461.95 724.798ZM3413.61 698.543L3415.49 696.207C3402.56 685.781 3392.82 673.842 3386.2 660.396L3383.51 661.721L3380.82 663.046C3387.86 677.35 3398.18 689.959 3411.72 700.878L3413.61 698.543ZM3383.51 661.721L3386.2 660.396C3379.55 646.899 3376.26 633.262 3376.26 619.456H3373.26H3370.26C3370.26 634.254 3373.8 648.793 3380.82 663.046L3383.51 661.721ZM3373.26 619.456V622.456H3447.55V619.456V616.456H3373.26V619.456ZM3447.55 619.456L3444.55 619.636C3445.22 630.73 3448.11 640.332 3453.36 648.32L3455.87 646.672L3458.38 645.025C3453.81 638.071 3451.16 629.529 3450.54 619.277L3447.55 619.456ZM3455.87 646.672L3453.42 648.402C3458.79 656.012 3465.51 662.175 3473.57 666.874L3475.08 664.283L3476.59 661.691C3469.28 657.425 3463.2 651.848 3458.32 644.942L3455.87 646.672ZM3475.08 664.283L3473.49 666.823C3481.28 671.721 3490.14 675.257 3500.05 677.457L3500.7 674.529L3501.35 671.6C3492.04 669.531 3483.83 666.236 3476.68 661.743L3475.08 664.283ZM3500.7 674.529L3500.11 677.47C3509.91 679.43 3519.82 680.41 3529.83 680.41V677.41V674.41C3520.21 674.41 3510.7 673.469 3501.28 671.587L3500.7 674.529ZM3529.83 677.41V680.41C3543.27 680.41 3555.08 679.003 3565.23 676.135L3564.41 673.248L3563.6 670.361C3554.11 673.042 3542.87 674.41 3529.83 674.41V677.41ZM3564.41 673.248L3565.21 676.139C3575.5 673.295 3583.9 669.415 3590.28 664.4L3588.43 662.041L3586.57 659.682C3581 664.06 3573.4 667.651 3563.61 670.356L3564.41 673.248ZM3588.43 662.041L3590.28 664.404C3595.45 660.359 3599.39 655.883 3601.97 650.946L3599.31 649.554L3596.66 648.162C3594.55 652.19 3591.23 656.04 3586.58 659.679L3588.43 662.041ZM3599.31 649.554L3601.95 650.991C3604.76 645.837 3606.16 640.217 3606.16 634.185H3603.16H3600.16C3600.16 639.253 3598.99 643.879 3596.68 648.117L3599.31 649.554ZM3924.31 297.027H3927.31V294.027H3924.31V297.027ZM3924.31 381.557H3921.31V384.557H3924.31V381.557ZM4054.62 381.557H4057.62V378.557H4054.62V381.557ZM4054.62 438.87V441.87H4057.62V438.87H4054.62ZM3924.31 438.87V435.87H3921.31V438.87H3924.31ZM3928.79 636.746L3925.95 637.716L3925.96 637.758L3925.98 637.8L3928.79 636.746ZM3941.92 656.918L3943.95 654.714L3943.93 654.692L3943.9 654.671L3941.92 656.918ZM4028.05 667.484L4027.65 664.511L4027.61 664.516L4027.57 664.523L4028.05 667.484ZM4045.98 664.603L4046.54 667.549L4046.59 667.541L4046.63 667.531L4045.98 664.603ZM4060.38 661.401L4063.35 660.934L4062.85 657.78L4059.73 658.472L4060.38 661.401ZM4068.71 714.232L4070.28 716.787L4071.98 715.739L4071.67 713.765L4068.71 714.232ZM4048.54 723.197L4049.41 726.066L4049.44 726.059L4049.46 726.051L4048.54 723.197ZM4023.56 729.281L4024.12 732.228L4023.56 729.281ZM3995.39 733.123L3995.13 730.134L3995.09 730.137L3995.06 730.141L3995.39 733.123ZM3918.22 727.68L3917.26 730.522L3917.29 730.53L3917.31 730.538L3918.22 727.68ZM3880.76 704.946L3882.86 702.803L3882.85 702.792L3882.84 702.781L3880.76 704.946ZM3856.1 666.204L3853.29 667.232L3853.29 667.249L3853.3 667.265L3856.1 666.204ZM3847.46 438.87H3850.46V435.87H3847.46V438.87ZM3763.57 438.87H3760.57V441.87H3763.57V438.87ZM3763.57 381.557V378.557H3760.57V381.557H3763.57ZM3847.46 381.557V384.557H3850.46V381.557H3847.46ZM3847.46 297.027V294.027H3844.46V297.027H3847.46ZM3924.31 297.027H3921.31V381.557H3924.31H3927.31V297.027H3924.31ZM3924.31 381.557V384.557H4054.62V381.557V378.557H3924.31V381.557ZM4054.62 381.557H4051.62V438.87H4054.62H4057.62V381.557H4054.62ZM4054.62 438.87V435.87H3924.31V438.87V441.87H4054.62V438.87ZM3924.31 438.87H3921.31V604.408H3924.31H3927.31V438.87H3924.31ZM3924.31 604.408H3921.31C3921.31 617.427 3922.82 628.557 3925.95 637.716L3928.79 636.746L3931.63 635.777C3928.78 627.432 3927.31 617.003 3927.31 604.408H3924.31ZM3928.79 636.746L3925.98 637.8C3929.31 646.693 3933.94 653.864 3939.93 659.165L3941.92 656.918L3943.9 654.671C3938.8 650.153 3934.67 643.877 3931.6 635.693L3928.79 636.746ZM3941.92 656.918L3939.88 659.123C3945.8 664.587 3952.85 668.44 3960.96 670.695L3961.77 667.805L3962.57 664.914C3955.32 662.9 3949.13 659.495 3943.95 654.714L3941.92 656.918ZM3961.77 667.805L3960.96 670.695C3968.95 672.912 3977.65 674.007 3987.06 674.007V671.007V668.007C3978.11 668.007 3969.96 666.966 3962.57 664.914L3961.77 667.805ZM3987.06 671.007V674.007C3993.78 674.007 4000.7 673.682 4007.83 673.034L4007.55 670.046L4007.28 667.058C4000.32 667.691 3993.58 668.007 3987.06 668.007V671.007ZM4007.55 670.046L4007.83 673.034C4014.93 672.387 4021.83 671.525 4028.52 670.446L4028.05 667.484L4027.57 664.523C4021.02 665.578 4014.26 666.424 4007.28 667.058L4007.55 670.046ZM4028.05 667.484L4028.44 670.458C4034.9 669.598 4040.93 668.628 4046.54 667.549L4045.98 664.603L4045.41 661.657C4039.92 662.712 4034 663.664 4027.65 664.511L4028.05 667.484ZM4045.98 664.603L4046.63 667.531C4046.64 667.529 4046.65 667.526 4046.66 667.524C4046.67 667.521 4046.68 667.519 4046.69 667.516C4046.71 667.513 4046.74 667.505 4046.76 667.501C4046.84 667.484 4046.82 667.489 4046.9 667.471C4046.97 667.456 4047.1 667.427 4047.16 667.412C4047.3 667.381 4047.56 667.324 4047.7 667.294C4047.85 667.259 4047.8 667.27 4047.96 667.235C4048.16 667.192 4048.03 667.22 4048.22 667.177C4048.23 667.174 4048.24 667.172 4048.26 667.17C4048.27 667.167 4048.28 667.165 4048.29 667.162C4048.33 667.154 4048.31 667.156 4048.35 667.148C4048.39 667.14 4048.45 667.126 4048.48 667.119C4048.64 667.085 4048.59 667.095 4048.74 667.061C4049.28 666.941 4050.26 666.724 4050.77 666.611C4051.28 666.497 4052.22 666.288 4052.71 666.181C4052.73 666.176 4053.16 666.08 4053.18 666.076C4053.3 666.049 4053.52 666 4053.64 665.973C4053.88 665.92 4054.32 665.822 4054.55 665.77C4054.72 665.733 4055.28 665.608 4055.44 665.573C4055.46 665.569 4055.86 665.479 4055.88 665.476C4056.13 665.419 4056.05 665.437 4056.31 665.38C4056.53 665.331 4056.94 665.24 4057.15 665.193C4057.4 665.138 4057.32 665.155 4057.57 665.101C4057.69 665.074 4057.65 665.082 4057.77 665.055C4057.83 665.042 4057.81 665.046 4057.87 665.032C4057.89 665.03 4057.91 665.024 4057.92 665.021C4057.93 665.019 4057.94 665.017 4057.95 665.016C4057.96 665.014 4057.97 665.012 4057.97 665.01C4058.12 664.977 4058.23 664.953 4058.38 664.92C4058.61 664.868 4058.54 664.884 4058.77 664.832C4058.98 664.787 4059.35 664.704 4059.55 664.66C4059.78 664.609 4059.71 664.625 4059.93 664.575C4060.14 664.529 4060.1 664.538 4060.3 664.492C4060.56 664.434 4060.42 664.467 4060.67 664.41C4060.75 664.392 4060.77 664.388 4060.85 664.37C4061 664.337 4060.89 664.362 4061.04 664.33L4060.38 661.401L4059.73 658.472C4059.64 658.493 4059.65 658.492 4059.55 658.513C4059.47 658.532 4059.55 658.513 4059.46 658.533C4059.44 658.539 4059.44 658.537 4059.42 658.543C4059.39 658.55 4059.4 658.546 4059.37 658.553C4059.26 658.577 4059.11 658.61 4059 658.635C4058.86 658.666 4058.95 658.646 4058.82 658.676C4058.79 658.683 4058.75 658.691 4058.72 658.697C4058.58 658.73 4058.77 658.686 4058.63 658.718C4058.53 658.74 4058.54 658.738 4058.44 658.76C4058.3 658.792 4058.39 658.771 4058.25 658.803C4058.13 658.828 4057.98 658.863 4057.86 658.888C4057.72 658.92 4057.81 658.899 4057.67 658.932C4057.63 658.94 4057.61 658.945 4057.57 658.953C4057.48 658.973 4057.56 658.956 4057.47 658.975C4057.12 659.053 4057.03 659.073 4056.67 659.153C4056.4 659.213 4056.74 659.138 4056.47 659.198C4056.46 659.2 4056.45 659.202 4056.44 659.204C4056.44 659.206 4056.43 659.207 4056.42 659.209C4056.41 659.211 4056.4 659.213 4056.39 659.215C4056.38 659.217 4056.38 659.219 4056.37 659.221C4056.35 659.224 4056.28 659.24 4056.26 659.243C4056.14 659.271 4056.18 659.262 4056.06 659.289C4055.78 659.351 4056.13 659.274 4055.85 659.335C4055.8 659.346 4055.79 659.348 4055.75 659.359C4055.73 659.361 4055.71 659.368 4055.69 659.37C4055.69 659.372 4055.68 659.374 4055.67 659.376C4055.66 659.378 4055.65 659.38 4055.64 659.382C4055.52 659.409 4055.56 659.401 4055.43 659.429C4055.29 659.46 4055.36 659.444 4055.22 659.476C4055.17 659.486 4055.16 659.489 4055.11 659.499C4055.11 659.501 4055.01 659.521 4055.01 659.523C4054.63 659.607 4054.53 659.629 4054.14 659.716C4054.01 659.745 4053.83 659.785 4053.7 659.814C4053.57 659.843 4053.61 659.834 4053.47 659.863C4053.33 659.897 4053.4 659.88 4053.25 659.913C4053.04 659.96 4053.35 659.892 4053.14 659.938C4053.13 659.94 4053.03 659.962 4053.02 659.963C4052.89 659.993 4052.93 659.984 4052.8 660.014C4052.51 660.078 4052.86 660.001 4052.57 660.065C4052.49 660.082 4052.53 660.073 4052.45 660.09C4052.45 660.091 4052.4 660.102 4052.4 660.103C4052.39 660.105 4052.38 660.107 4052.37 660.109C4052.36 660.112 4052.35 660.114 4052.34 660.116C4051.93 660.207 4051.82 660.231 4051.4 660.323C4051.11 660.39 4051.47 660.31 4051.17 660.376C4051.16 660.378 4051.06 660.401 4051.05 660.403C4050.98 660.418 4051.06 660.4 4050.99 660.416C4050.98 660.418 4050.97 660.42 4050.96 660.422C4050.95 660.425 4050.94 660.427 4050.93 660.429C4050.93 660.429 4050.69 660.482 4050.69 660.482C4050.38 660.55 4050.75 660.468 4050.45 660.536C4050.27 660.576 4050.14 660.604 4049.96 660.644C4049.65 660.713 4050.02 660.63 4049.72 660.699C4049.71 660.701 4049.6 660.724 4049.59 660.726C4049.45 660.759 4049.61 660.721 4049.47 660.754C4049.03 660.852 4048.91 660.877 4048.47 660.976C4048.32 661.01 4048.36 660.999 4048.21 661.033C4048.12 661.054 4048.18 661.04 4048.08 661.061C4047.97 661.086 4048.13 661.05 4048.02 661.075C4047.77 661.13 4048.2 661.035 4047.96 661.09C4047.81 661.123 4047.6 661.17 4047.44 661.204C4047.25 661.247 4047.5 661.19 4047.31 661.233C4047.16 661.267 4047.4 661.213 4047.25 661.247C4047.24 661.25 4047.23 661.252 4047.21 661.254C4047.2 661.257 4047.19 661.259 4047.18 661.262C4047.01 661.3 4047.29 661.238 4047.12 661.276C4046.96 661.31 4047.21 661.256 4047.05 661.291C4046.86 661.334 4047.11 661.277 4046.92 661.32C4046.77 661.354 4047.01 661.3 4046.86 661.334C4046.84 661.337 4046.83 661.339 4046.82 661.341C4046.81 661.344 4046.8 661.346 4046.79 661.349C4046.62 661.388 4046.9 661.325 4046.72 661.363C4046.57 661.398 4046.81 661.343 4046.66 661.378C4046.46 661.421 4046.72 661.364 4046.53 661.407C4046.37 661.442 4046.62 661.387 4046.46 661.422C4046.45 661.424 4046.44 661.427 4046.43 661.429C4046.42 661.432 4046.41 661.434 4046.4 661.437C4046.22 661.476 4046.51 661.412 4046.33 661.451C4046.17 661.486 4046.42 661.431 4046.26 661.466C4046.07 661.51 4046.33 661.452 4046.13 661.496C4045.97 661.531 4046.22 661.475 4046.06 661.51C4046.05 661.513 4046.04 661.515 4046.03 661.518C4046.02 661.52 4046.01 661.523 4046 661.525C4045.82 661.565 4046.11 661.5 4045.93 661.54C4045.77 661.575 4046.02 661.52 4045.86 661.555C4045.67 661.599 4045.93 661.541 4045.73 661.585C4045.57 661.62 4045.82 661.564 4045.66 661.599C4045.65 661.602 4045.64 661.604 4045.63 661.607C4045.62 661.609 4045.61 661.612 4045.6 661.614C4045.42 661.654 4045.71 661.589 4045.53 661.629C4045.37 661.665 4045.62 661.609 4045.46 661.644C4045.26 661.689 4045.53 661.63 4045.33 661.674L4045.98 664.603ZM4060.38 661.401L4057.42 661.868L4065.75 714.699L4068.71 714.232L4071.67 713.765L4063.35 660.934L4060.38 661.401ZM4068.71 714.232L4067.14 711.677C4061.84 714.939 4055.34 717.837 4047.61 720.344L4048.54 723.197L4049.46 726.051C4057.53 723.435 4064.48 720.356 4070.28 716.787L4068.71 714.232ZM4048.54 723.197L4047.66 720.328C4040.09 722.641 4031.87 724.644 4023 726.334L4023.56 729.281L4024.12 732.228C4033.18 730.503 4041.61 728.45 4049.41 726.066L4048.54 723.197ZM4023.56 729.281L4023 726.334C4014.14 728.021 4004.85 729.289 3995.13 730.134L3995.39 733.123L3995.65 736.112C4005.56 735.25 4015.05 733.956 4024.12 732.228L4023.56 729.281ZM3995.39 733.123L3995.06 730.141C3985.56 731.196 3976.06 731.724 3966.57 731.724V734.724V737.724C3976.29 737.724 3986 737.184 3995.72 736.105L3995.39 733.123ZM3966.57 734.724V731.724C3949.34 731.724 3933.53 729.412 3919.13 724.822L3918.22 727.68L3917.31 730.538C3932.37 735.34 3948.8 737.724 3966.57 737.724V734.724ZM3918.22 727.68L3919.18 724.838C3905.07 720.066 3892.98 712.719 3882.86 702.803L3880.76 704.946L3878.66 707.09C3889.46 717.666 3902.34 725.475 3917.26 730.522L3918.22 727.68ZM3880.76 704.946L3882.84 702.781C3872.75 693.105 3864.76 680.589 3858.91 665.142L3856.1 666.204L3853.3 667.265C3859.41 683.41 3867.85 696.723 3878.68 707.112L3880.76 704.946ZM3856.1 666.204L3858.92 665.175C3853.31 649.796 3850.46 631.165 3850.46 609.21H3847.46H3844.46C3844.46 631.655 3847.37 651.02 3853.29 667.232L3856.1 666.204ZM3847.46 609.21H3850.46V438.87H3847.46H3844.46V609.21H3847.46ZM3847.46 438.87V435.87H3763.57V438.87V441.87H3847.46V438.87ZM3763.57 438.87H3766.57V381.557H3763.57H3760.57V438.87H3763.57ZM3763.57 381.557V384.557H3847.46V381.557V378.557H3763.57V381.557ZM3847.46 381.557H3850.46V297.027H3847.46H3844.46V381.557H3847.46ZM3847.46 297.027V300.027H3924.31V297.027V294.027H3847.46V297.027ZM4439.81 377.715L4439.37 380.682L4439.38 380.683L4439.81 377.715ZM4467.34 383.798L4470.31 384.226L4470.66 381.793L4468.35 380.971L4467.34 383.798ZM4456.46 459.362L4455.82 462.293L4458.97 462.981L4459.43 459.79L4456.46 459.362ZM4421.56 453.599L4421.22 456.58L4421.23 456.581L4421.56 453.599ZM4325.82 467.367L4327.36 469.94L4327.43 469.898L4327.5 469.853L4325.82 467.367ZM4289 514.115L4286.21 513.01L4286 513.542V514.115H4289ZM4289 728V731H4292V728H4289ZM4212.47 728H4209.47V731H4212.47V728ZM4212.47 381.557V378.557H4209.47V381.557H4212.47ZM4284.2 381.557L4287.19 381.357L4287 378.557H4284.2V381.557ZM4287.4 429.585L4290.4 429.465L4290.39 429.425L4290.39 429.385L4287.4 429.585ZM4287.72 437.59L4284.72 437.71L4285.07 446.356L4290.15 439.351L4287.72 437.59ZM4338.31 391.803L4336.84 389.184L4336.83 389.191L4338.31 391.803ZM4403.95 375.153V378.153C4416.19 378.153 4428 378.997 4439.37 380.682L4439.81 377.715L4440.25 374.747C4428.57 373.016 4416.46 372.153 4403.95 372.153V375.153ZM4439.81 377.715L4439.38 380.683C4451.03 382.379 4459.99 384.373 4466.34 386.625L4467.34 383.798L4468.35 380.971C4461.46 378.527 4452.06 376.465 4440.24 374.746L4439.81 377.715ZM4467.34 383.798L4464.37 383.37L4453.49 458.935L4456.46 459.362L4459.43 459.79L4470.31 384.226L4467.34 383.798ZM4456.46 459.362L4457.1 456.431C4445.26 453.848 4433.52 451.91 4421.89 450.617L4421.56 453.599L4421.23 456.581C4432.64 457.85 4444.18 459.753 4455.82 462.293L4456.46 459.362ZM4421.56 453.599L4421.89 450.618C4410.47 449.325 4399.04 448.678 4387.62 448.678V451.678V454.678C4398.82 454.678 4410.02 455.312 4421.22 456.58L4421.56 453.599ZM4387.62 451.678V448.678C4374.61 448.678 4362.84 449.978 4352.31 452.61L4353.04 455.52L4353.76 458.431C4363.73 455.94 4375 454.678 4387.62 454.678V451.678ZM4353.04 455.52L4352.31 452.61C4341.76 455.247 4332.36 459.329 4324.14 464.881L4325.82 467.367L4327.5 469.853C4335.08 464.733 4343.82 460.916 4353.76 458.431L4353.04 455.52ZM4325.82 467.367L4324.28 464.795C4315.41 470.114 4307.86 476.883 4301.66 485.088L4304.05 486.899L4306.44 488.709C4312.18 481.119 4319.15 474.866 4327.36 469.94L4325.82 467.367ZM4304.05 486.899L4301.66 485.088C4295.5 493.225 4290.35 502.54 4286.21 513.01L4289 514.115L4291.79 515.219C4295.76 505.197 4300.64 496.368 4306.44 488.709L4304.05 486.899ZM4289 514.115H4286V728H4289H4292V514.115H4289ZM4289 728V725H4212.47V728V731H4289V728ZM4212.47 728H4215.47V381.557H4212.47H4209.47V728H4212.47ZM4212.47 381.557V384.557H4284.2V381.557V378.557H4212.47V381.557ZM4284.2 381.557L4281.2 381.756L4284.4 429.785L4287.4 429.585L4290.39 429.385L4287.19 381.357L4284.2 381.557ZM4287.4 429.585L4284.4 429.705L4284.72 437.71L4287.72 437.59L4290.72 437.47L4290.4 429.465L4287.4 429.585ZM4287.72 437.59L4290.15 439.351C4304 420.252 4320.54 405.289 4339.78 394.415L4338.31 391.803L4336.83 389.191C4316.79 400.516 4299.61 416.078 4285.29 435.828L4287.72 437.59ZM4338.31 391.803L4339.77 394.421C4359.15 383.585 4380.52 378.153 4403.95 378.153V375.153V372.153C4379.55 372.153 4357.17 377.821 4336.84 389.184L4338.31 391.803ZM4779.53 728L4776.9 729.446L4777.75 731H4779.53V728ZM4773.76 712.631L4770.83 713.239L4770.84 713.299L4770.85 713.359L4773.76 712.631ZM4770.24 693.42L4773.2 692.942L4772.25 687.007L4768.08 691.34L4770.24 693.42ZM4751.99 709.429L4753.78 711.838L4753.78 711.834L4753.79 711.829L4751.99 709.429ZM4729.58 722.237L4728.38 719.487L4728.35 719.499L4728.32 719.513L4729.58 722.237ZM4622.31 726.719L4621.29 729.54L4621.32 729.549L4621.34 729.557L4622.31 726.719ZM4584.53 704.946L4586.51 702.692L4586.49 702.67L4586.46 702.649L4584.53 704.946ZM4559.56 672.608L4556.82 673.839L4556.83 673.866L4556.85 673.894L4559.56 672.608ZM4562.12 581.034L4559.46 579.646L4559.46 579.654L4559.45 579.661L4562.12 581.034ZM4595.42 544.532L4597.07 547.034L4597.08 547.029L4595.42 544.532ZM4645.05 524.04L4644.36 521.121L4644.35 521.123L4645.05 524.04ZM4768 516.996V519.996H4771V516.996H4768ZM4763.2 469.288L4760.42 470.431L4760.44 470.465L4760.45 470.499L4763.2 469.288ZM4750.07 450.397L4752.11 448.196L4752.07 448.16L4752.03 448.125L4750.07 450.397ZM4727.34 438.23L4726.37 441.069L4726.41 441.083L4726.45 441.096L4727.34 438.23ZM4669.38 437.59L4668.46 434.736L4668.44 434.74L4668.43 434.744L4669.38 437.59ZM4650.17 448.156L4652.03 450.508L4652.09 450.462L4652.15 450.414L4650.17 448.156ZM4638.64 463.205L4635.89 462.023L4635.88 462.048L4635.87 462.073L4638.64 463.205ZM4635.12 481.776V484.776H4638.12V481.776H4635.12ZM4558.28 481.776L4555.28 481.729L4555.23 484.776H4558.28V481.776ZM4596.38 407.812L4598.24 410.163L4598.28 410.137L4598.31 410.11L4596.38 407.812ZM4640.56 384.118L4641.5 386.968L4641.51 386.964L4641.52 386.961L4640.56 384.118ZM4757.75 382.838L4756.91 385.717L4756.93 385.723L4756.95 385.729L4757.75 382.838ZM4803.54 404.931L4801.72 407.311L4803.54 404.931ZM4833.64 442.393L4830.93 443.688L4830.94 443.696L4830.94 443.703L4833.64 442.393ZM4847.73 690.538L4844.77 691.039L4844.77 691.068L4844.78 691.097L4847.73 690.538ZM4857.65 722.557H4860.65V721.879L4860.36 721.267L4857.65 722.557ZM4857.65 728V731H4860.65V728H4857.65ZM4714.21 669.085L4713.37 666.206L4713.36 666.209L4713.35 666.212L4714.21 669.085ZM4768 629.382L4770.68 630.724L4771 630.09V629.382H4768ZM4768 565.345H4771V562.345H4768V565.345ZM4675.47 570.147L4676.18 573.061L4676.21 573.055L4676.23 573.049L4675.47 570.147ZM4646.33 583.275L4648.15 585.656L4648.17 585.64L4648.19 585.624L4646.33 583.275ZM4631.92 600.885L4629.2 599.612L4629.19 599.647L4629.17 599.683L4631.92 600.885ZM4631.28 643.791L4628.51 644.938L4628.51 644.955L4628.52 644.972L4631.28 643.791ZM4660.74 669.406L4659.74 672.235L4659.78 672.248L4659.81 672.26L4660.74 669.406ZM4779.53 728L4782.16 726.554C4779.96 722.562 4778.12 717.692 4776.67 711.903L4773.76 712.631L4770.85 713.359C4772.39 719.523 4774.4 724.9 4776.9 729.446L4779.53 728ZM4773.76 712.631L4776.7 712.023C4775.43 705.879 4774.26 699.518 4773.2 692.942L4770.24 693.42L4767.28 693.897C4768.35 700.556 4769.54 707.003 4770.83 713.239L4773.76 712.631ZM4770.24 693.42L4768.08 691.34C4762.87 696.762 4756.91 701.993 4750.19 707.029L4751.99 709.429L4753.79 711.829C4760.74 706.62 4766.94 701.177 4772.4 695.499L4770.24 693.42ZM4751.99 709.429L4750.2 707.02C4743.79 711.781 4736.52 715.94 4728.38 719.487L4729.58 722.237L4730.78 724.987C4739.29 721.276 4746.96 716.896 4753.78 711.838L4751.99 709.429ZM4729.58 722.237L4728.32 719.513C4720.2 723.259 4711.44 726.182 4702.03 728.273L4702.68 731.202L4703.33 734.13C4713.13 731.953 4722.3 728.899 4730.83 724.961L4729.58 722.237ZM4702.68 731.202L4702.03 728.273C4692.66 730.355 4682.53 731.404 4671.62 731.404V734.404V737.404C4682.91 737.404 4693.49 736.318 4703.33 734.13L4702.68 731.202ZM4671.62 734.404V731.404C4653.98 731.404 4637.88 728.884 4623.29 723.881L4622.31 726.719L4621.34 729.557C4636.64 734.801 4653.41 737.404 4671.62 737.404V734.404ZM4622.31 726.719L4623.34 723.899C4608.92 718.674 4596.66 711.595 4586.51 702.692L4584.53 704.946L4582.55 707.201C4593.33 716.656 4606.26 724.092 4621.29 729.54L4622.31 726.719ZM4584.53 704.946L4586.46 702.649C4576.12 693.961 4568.06 683.526 4562.27 671.321L4559.56 672.608L4556.85 673.894C4563.01 686.877 4571.6 698.001 4582.6 707.244L4584.53 704.946ZM4559.56 672.608L4562.29 671.376C4556.71 658.975 4553.91 645.629 4553.91 631.303H4550.91H4547.91C4547.91 646.435 4550.88 660.625 4556.82 673.839L4559.56 672.608ZM4550.91 631.303H4553.91C4553.91 612.705 4557.57 596.433 4564.79 582.407L4562.12 581.034L4559.45 579.661C4551.73 594.665 4547.91 611.906 4547.91 631.303H4550.91ZM4562.12 581.034L4564.78 582.422C4572.22 568.165 4582.96 556.373 4597.07 547.034L4595.42 544.532L4593.76 542.031C4578.85 551.903 4567.39 564.445 4559.46 579.646L4562.12 581.034ZM4595.42 544.532L4597.08 547.029C4610.17 538.302 4626.37 531.592 4645.75 526.958L4645.05 524.04L4644.35 521.123C4624.45 525.881 4607.56 532.832 4593.75 542.036L4595.42 544.532ZM4645.05 524.04L4645.74 526.96C4665.32 522.328 4687.5 519.996 4712.29 519.996V516.996V513.996C4687.13 513.996 4664.48 516.361 4644.36 521.121L4645.05 524.04ZM4712.29 516.996V519.996H4768V516.996V513.996H4712.29V516.996ZM4768 516.996H4771V493.623H4768H4765V516.996H4768ZM4768 493.623H4771C4771 484.295 4769.33 475.763 4765.94 468.077L4763.2 469.288L4760.45 470.499C4763.47 477.329 4765 485.02 4765 493.623H4768ZM4763.2 469.288L4765.97 468.146C4762.82 460.486 4758.19 453.828 4752.11 448.196L4750.07 450.397L4748.03 452.598C4753.48 457.64 4757.6 463.575 4760.42 470.431L4763.2 469.288ZM4750.07 450.397L4752.03 448.125C4745.48 442.482 4737.52 438.243 4728.22 435.364L4727.34 438.23L4726.45 441.096C4735.08 443.767 4742.28 447.64 4748.11 452.669L4750.07 450.397ZM4727.34 438.23L4728.31 435.391C4719.18 432.273 4708.7 430.747 4696.92 430.747V433.747V436.747C4708.19 436.747 4717.99 438.21 4726.37 441.069L4727.34 438.23ZM4696.92 433.747V430.747C4686.22 430.747 4676.72 432.056 4668.46 434.736L4669.38 437.59L4670.31 440.443C4677.84 438 4686.7 436.747 4696.92 436.747V433.747ZM4669.38 437.59L4668.43 434.744C4660.44 437.408 4653.67 441.108 4648.2 445.898L4650.17 448.156L4652.15 450.414C4656.92 446.238 4662.95 442.895 4670.33 440.436L4669.38 437.59ZM4650.17 448.156L4648.31 445.804C4642.8 450.168 4638.65 455.585 4635.89 462.023L4638.64 463.205L4641.4 464.386C4643.77 458.87 4647.3 454.256 4652.03 450.508L4650.17 448.156ZM4638.64 463.205L4635.87 462.073C4633.36 468.218 4632.12 474.795 4632.12 481.776H4635.12H4638.12C4638.12 475.522 4639.23 469.718 4641.42 464.337L4638.64 463.205ZM4635.12 481.776V478.776H4558.28V481.776V484.776H4635.12V481.776ZM4558.28 481.776L4561.28 481.822C4561.48 468.412 4564.68 455.512 4570.89 443.094L4568.2 441.752L4565.52 440.41C4558.92 453.607 4555.5 467.39 4555.28 481.729L4558.28 481.776ZM4568.2 441.752L4570.89 443.094C4577.07 430.717 4586.17 419.738 4598.24 410.163L4596.38 407.812L4594.51 405.462C4581.83 415.525 4572.14 427.172 4565.52 440.41L4568.2 441.752ZM4596.38 407.812L4598.31 410.11C4609.92 400.363 4624.3 392.633 4641.5 386.968L4640.56 384.118L4639.63 381.269C4621.83 387.13 4606.74 395.197 4594.45 405.514L4596.38 407.812ZM4640.56 384.118L4641.52 386.961C4658.88 381.108 4678.71 378.153 4701.08 378.153V375.153V372.153C4678.19 372.153 4657.69 375.175 4639.61 381.276L4640.56 384.118ZM4701.08 375.153V378.153C4721.11 378.153 4739.71 380.682 4756.91 385.717L4757.75 382.838L4758.6 379.958C4740.79 374.747 4721.61 372.153 4701.08 372.153V375.153ZM4757.75 382.838L4756.95 385.729C4774.35 390.55 4789.25 397.757 4801.72 407.311L4803.54 404.931L4805.37 402.55C4792.21 392.466 4776.59 384.945 4758.55 379.947L4757.75 382.838ZM4803.54 404.931L4801.72 407.311C4814.13 416.831 4823.87 428.94 4830.93 443.688L4833.64 442.393L4836.34 441.097C4828.89 425.533 4818.56 412.668 4805.37 402.55L4803.54 404.931ZM4833.64 442.393L4830.94 443.703C4837.97 458.169 4841.52 474.997 4841.52 494.263H4844.52H4847.52C4847.52 474.253 4843.83 456.5 4836.34 441.082L4833.64 442.393ZM4844.52 494.263H4841.52V648.273H4844.52H4847.52V494.263H4844.52ZM4844.52 648.273H4841.52C4841.52 663.989 4842.6 678.248 4844.77 691.039L4847.73 690.538L4850.68 690.037C4848.58 677.64 4847.52 663.723 4847.52 648.273H4844.52ZM4847.73 690.538L4844.78 691.097C4847.16 703.666 4850.54 714.597 4854.94 723.847L4857.65 722.557L4860.36 721.267C4856.23 712.587 4852.99 702.171 4850.67 689.979L4847.73 690.538ZM4857.65 722.557H4854.65V728H4857.65H4860.65V722.557H4857.65ZM4857.65 728V725H4779.53V728V731H4857.65V728ZM4686.35 672.928V675.928C4696.64 675.928 4706.22 674.614 4715.07 671.959L4714.21 669.085L4713.35 666.212C4705.12 668.68 4696.13 669.928 4686.35 669.928V672.928ZM4714.21 669.085L4715.05 671.965C4724 669.344 4732.13 665.947 4739.4 661.76L4737.9 659.16L4736.41 656.56C4729.59 660.483 4721.92 663.704 4713.37 666.206L4714.21 669.085ZM4737.9 659.16L4739.4 661.76C4746.64 657.588 4752.94 652.843 4758.27 647.513L4756.15 645.392L4754.03 643.27C4749.12 648.186 4743.25 652.62 4736.41 656.56L4737.9 659.16ZM4756.15 645.392L4758.27 647.513C4763.59 642.199 4767.74 636.606 4770.68 630.724L4768 629.382L4765.32 628.041C4762.71 633.258 4758.96 638.338 4754.03 643.27L4756.15 645.392ZM4768 629.382H4771V565.345H4768H4765V629.382H4768ZM4768 565.345V562.345H4718.69V565.345V568.345H4768V565.345ZM4718.69 565.345V562.345C4701.86 562.345 4687.18 563.962 4674.7 567.246L4675.47 570.147L4676.23 573.049C4688.08 569.93 4702.22 568.345 4718.69 568.345V565.345ZM4675.47 570.147L4674.75 567.234C4662.3 570.291 4652.16 574.817 4644.46 580.926L4646.33 583.275L4648.19 585.624C4655.02 580.207 4664.29 575.981 4676.18 573.061L4675.47 570.147ZM4646.33 583.275L4644.5 580.894C4637.75 586.075 4632.62 592.316 4629.2 599.612L4631.92 600.885L4634.64 602.159C4637.62 595.793 4642.1 590.294 4648.15 585.656L4646.33 583.275ZM4631.92 600.885L4629.17 599.683C4625.99 606.944 4624.44 615.047 4624.44 623.939H4627.44H4630.44C4630.44 615.755 4631.87 608.488 4634.67 602.088L4631.92 600.885ZM4627.44 623.939H4624.44C4624.44 631.356 4625.79 638.365 4628.51 644.938L4631.28 643.791L4634.05 642.644C4631.65 636.836 4630.44 630.61 4630.44 623.939H4627.44ZM4631.28 643.791L4628.52 644.972C4631.26 651.365 4635.27 656.858 4640.52 661.423L4642.49 659.16L4644.45 656.896C4639.89 652.923 4636.42 648.17 4634.04 642.609L4631.28 643.791ZM4642.49 659.16L4640.52 661.423C4645.76 665.981 4652.19 669.57 4659.74 672.235L4660.74 669.406L4661.74 666.577C4654.77 664.118 4649.03 660.876 4644.45 656.896L4642.49 659.16ZM4660.74 669.406L4659.81 672.26C4667.44 674.728 4676.3 675.928 4686.35 675.928V672.928V669.928C4676.76 669.928 4668.55 668.78 4661.66 666.551L4660.74 669.406ZM4957.55 659.48L4959.67 661.601L4959.69 661.587L4959.7 661.573L4957.55 659.48ZM5023.51 659.48L5021.33 661.545L5021.36 661.573L5021.39 661.601L5023.51 659.48ZM5023.51 719.675L5021.39 717.554L5021.37 717.568L5021.36 717.582L5023.51 719.675ZM4945.38 689.577H4948.38C4948.38 678.382 4952.15 669.124 4959.67 661.601L4957.55 659.48L4955.43 657.359C4946.73 666.058 4942.38 676.865 4942.38 689.577H4945.38ZM4957.55 659.48L4959.7 661.573C4967.14 653.939 4977.3 649.992 4990.53 649.992V646.992V643.992C4976.02 643.992 4964.19 648.371 4955.4 657.386L4957.55 659.48ZM4990.53 646.992V649.992C5004 649.992 5014.13 653.948 5021.33 661.545L5023.51 659.48L5025.69 657.415C5017.1 648.362 5005.24 643.992 4990.53 643.992V646.992ZM5023.51 659.48L5021.39 661.601C5028.91 669.124 5032.68 678.382 5032.68 689.577H5035.68H5038.68C5038.68 676.865 5034.33 666.058 5025.63 657.359L5023.51 659.48ZM5035.68 689.577H5032.68C5032.68 700.773 5028.91 710.031 5021.39 717.554L5023.51 719.675L5025.63 721.796C5034.33 713.097 5038.68 702.289 5038.68 689.577H5035.68ZM5023.51 719.675L5021.36 717.582C5014.16 724.979 5004.02 728.842 4990.53 728.842V731.842V734.842C5005.22 734.842 5017.06 730.594 5025.66 721.768L5023.51 719.675ZM4990.53 731.842V728.842C4977.27 728.842 4967.11 724.988 4959.67 717.554L4957.55 719.675L4955.43 721.796C4964.22 730.585 4976.04 734.842 4990.53 734.842V731.842ZM4957.55 719.675L4959.67 717.554C4952.15 710.031 4948.38 700.773 4948.38 689.577H4945.38H4942.38C4942.38 702.289 4946.73 713.097 4955.43 721.796L4957.55 719.675ZM5359.07 620.737L5361.95 619.895L5361.31 617.737H5359.07V620.737ZM5212.74 620.737V617.737H5210.5L5209.86 619.887L5212.74 620.737ZM5181.04 728V731H5183.28L5183.92 728.85L5181.04 728ZM5100.99 728L5098.14 727.071L5096.86 731H5100.99V728ZM5252.76 261.807V258.807H5250.59L5249.91 260.878L5252.76 261.807ZM5320.96 261.807L5323.82 260.892L5323.15 258.807H5320.96V261.807ZM5470.17 728V731H5474.28L5473.03 727.086L5470.17 728ZM5390.44 728L5387.57 728.842L5388.2 731H5390.44V728ZM5232.27 554.778L5229.39 553.929L5228.26 557.778H5232.27V554.778ZM5340.18 554.778V557.778H5344.17L5343.06 553.943L5340.18 554.778ZM5286.7 370.35L5289.59 369.515L5286.73 359.665L5283.83 369.501L5286.7 370.35ZM5359.07 620.737V617.737H5212.74V620.737V623.737H5359.07V620.737ZM5212.74 620.737L5209.86 619.887L5178.17 727.15L5181.04 728L5183.92 728.85L5215.62 621.587L5212.74 620.737ZM5181.04 728V725H5100.99V728V731H5181.04V728ZM5100.99 728L5103.85 728.929L5255.62 262.735L5252.76 261.807L5249.91 260.878L5098.14 727.071L5100.99 728ZM5252.76 261.807V264.807H5320.96V261.807V258.807H5252.76V261.807ZM5320.96 261.807L5318.11 262.721L5467.31 728.914L5470.17 728L5473.03 727.086L5323.82 260.892L5320.96 261.807ZM5470.17 728V725H5390.44V728V731H5470.17V728ZM5390.44 728L5393.32 727.158L5361.95 619.895L5359.07 620.737L5356.19 621.579L5387.57 728.842L5390.44 728ZM5232.27 554.778V557.778H5340.18V554.778V551.778H5232.27V554.778ZM5340.18 554.778L5343.06 553.943L5289.59 369.515L5286.7 370.35L5283.82 371.186L5337.29 555.614L5340.18 554.778ZM5286.7 370.35L5283.83 369.501L5229.39 553.929L5232.27 554.778L5235.15 555.628L5289.58 371.199L5286.7 370.35ZM5538.05 261.807V258.807H5535.05V261.807H5538.05ZM5812.77 261.807H5815.77V258.807H5812.77V261.807ZM5812.77 325.524V328.524H5815.77V325.524H5812.77ZM5713.19 325.524V322.524H5710.19V325.524H5713.19ZM5713.19 664.603H5710.19V667.603H5713.19V664.603ZM5812.77 664.603H5815.77V661.603H5812.77V664.603ZM5812.77 728V731H5815.77V728H5812.77ZM5538.05 728H5535.05V731H5538.05V728ZM5538.05 664.603V661.603H5535.05V664.603H5538.05ZM5635.39 664.603V667.603H5638.39V664.603H5635.39ZM5635.39 325.524H5638.39V322.524H5635.39V325.524ZM5538.05 325.524H5535.05V328.524H5538.05V325.524ZM5538.05 261.807V264.807H5812.77V261.807V258.807H5538.05V261.807ZM5812.77 261.807H5809.77V325.524H5812.77H5815.77V261.807H5812.77ZM5812.77 325.524V322.524H5713.19V325.524V328.524H5812.77V325.524ZM5713.19 325.524H5710.19V664.603H5713.19H5716.19V325.524H5713.19ZM5713.19 664.603V667.603H5812.77V664.603V661.603H5713.19V664.603ZM5812.77 664.603H5809.77V728H5812.77H5815.77V664.603H5812.77ZM5812.77 728V725H5538.05V728V731H5812.77V728ZM5538.05 728H5541.05V664.603H5538.05H5535.05V728H5538.05ZM5538.05 664.603V667.603H5635.39V664.603V661.603H5538.05V664.603ZM5635.39 664.603H5638.39V325.524H5635.39H5632.39V664.603H5635.39ZM5635.39 325.524V322.524H5538.05V325.524V328.524H5635.39V325.524ZM5538.05 325.524H5541.05V261.807H5538.05H5535.05V325.524H5538.05Z" fill="white" mask="url(#path-4-outside-1_315_2031)"/>
</svg>
